<?xml version="1.0" encoding="utf-8"?>
<!-- Generator: Adobe Illustrator 23.0.3, SVG Export Plug-In . SVG Version: 6.00 Build 0)  -->
<svg version="1.1" xmlns="http://www.w3.org/2000/svg" xmlns:xlink="http://www.w3.org/1999/xlink" x="0px" y="0px"
	 viewBox="0 0 2000 1500" style="enable-background:new 0 0 2000 1500;" xml:space="preserve">
<style type="text/css">
	.st0{opacity:8.999630e-02;}
	.st1{clip-path:url(#SVGID_2_);fill:#4D3A66;}
	.st2{fill:#D1D0E7;}
	.st3{opacity:0.19;}
	.st4{clip-path:url(#SVGID_4_);fill:#D1D0E7;}
	.st5{clip-path:url(#SVGID_6_);fill:#D1D0E7;}
	.st6{fill:#022A44;}
	.st7{fill:#4D3A66;}
	.st8{fill:#885467;}
	.st9{fill:#F16E91;}
	.st10{fill:#FFFFFF;}
	.st11{fill:#F79B8A;}
</style>
<g id="Background">
</g>
<g id="Illustration">
	<g class="st0">
		<g>
			<defs>
				<rect id="SVGID_1_" x="218.2" y="142.7" width="1700.1" height="1120.5"/>
			</defs>
			<clipPath id="SVGID_2_">
				<use xlink:href="#SVGID_1_"  style="overflow:visible;"/>
			</clipPath>
			<path class="st1" d="M1339,244.7h17.4c1.8,0,3.3-1.5,3.3-3.3c0-1.8-1.5-3.3-3.3-3.3H1339c-1.8,0-3.3,1.5-3.3,3.3
				C1335.7,243.2,1337.2,244.7,1339,244.7"/>
			<path class="st1" d="M325.6,244.7h142.5v204.5c0,1.8,1.5,3.3,3.3,3.3c1.8,0,3.3-1.5,3.3-3.3V244.7h801.9c1.8,0,3.3-1.5,3.3-3.3
				c0-1.8-1.5-3.3-3.3-3.3H474.6V146c0-1.8-1.5-3.3-3.3-3.3c-1.8,0-3.3,1.5-3.3,3.3v92.2H325.6c-1.8,0-3.3,1.5-3.3,3.3
				C322.3,243.2,323.8,244.7,325.6,244.7"/>
			<path class="st1" d="M1915,639h-439.2V244.7h252.7c1.8,0,3.3-1.5,3.3-3.3s-1.5-3.3-3.3-3.3h-252.7V146c0-1.8-1.5-3.3-3.3-3.3
				c-1.8,0-3.3,1.5-3.3,3.3v92.2h-47.1c-1.8,0-3.3,1.5-3.3,3.3s1.5,3.3,3.3,3.3h47.1V639H591.1c-1.8,0-3.3,1.5-3.3,3.3
				c0,1.8,1.5,3.3,3.3,3.3h878.2V788c0,1.8,1.5,3.3,3.3,3.3c1.8,0,3.3-1.5,3.3-3.3V645.5H1915c1.8,0,3.3-1.5,3.3-3.3
				C1918.3,640.5,1916.8,639,1915,639"/>
			<path class="st1" d="M1835.2,1055.5h-359.4V836.6c0-1.8-1.5-3.3-3.3-3.3c-1.8,0-3.3,1.5-3.3,3.3v218.9H955.5
				c-1.8,0-3.3,1.5-3.3,3.3c0,1.8,1.5,3.3,3.3,3.3h513.8v198c0,1.8,1.5,3.3,3.3,3.3c1.8,0,3.3-1.5,3.3-3.3v-198h359.4
				c1.8,0,3.3-1.5,3.3-3.3C1838.5,1056.9,1837,1055.5,1835.2,1055.5"/>
			<path class="st1" d="M893,1055.5H474.6V645.5h54c1.8,0,3.3-1.5,3.3-3.3c0-1.8-1.5-3.3-3.3-3.3h-54v-62.3c0-1.8-1.5-3.3-3.3-3.3
				c-1.8,0-3.3,1.5-3.3,3.3V639H221.5c-1.8,0-3.3,1.5-3.3,3.3c0,1.8,1.5,3.3,3.3,3.3h246.6v409.9H296.9c-1.8,0-3.3,1.5-3.3,3.3
				c0,1.8,1.5,3.3,3.3,3.3h171.1v198c0,1.8,1.5,3.3,3.3,3.3c1.8,0,3.3-1.5,3.3-3.3v-198H893c1.8,0,3.3-1.5,3.3-3.3
				C896.2,1056.9,894.8,1055.5,893,1055.5"/>
			<path class="st1" d="M471.3,503.2c-1.8,0-3.3,1.5-3.3,3.3v15.6c0,1.8,1.5,3.3,3.3,3.3c1.8,0,3.3-1.5,3.3-3.3v-15.6
				C474.6,504.7,473.1,503.2,471.3,503.2"/>
		</g>
	</g>
	<path class="st2" d="M1712.3,1380.4c0,2.8-323,5-721.4,5c-398.4,0-721.4-2.2-721.4-5s323-5,721.4-5
		C1389.3,1375.4,1712.3,1377.7,1712.3,1380.4"/>
	<g class="st3">
		<g>
			<defs>
				<rect id="SVGID_3_" x="352.3" y="228.7" width="552" height="552"/>
			</defs>
			<clipPath id="SVGID_4_">
				<use xlink:href="#SVGID_3_"  style="overflow:visible;"/>
			</clipPath>
			<path class="st4" d="M904.3,504.8c0,152.4-123.6,276-276,276s-276-123.6-276-276s123.6-276,276-276S904.3,352.3,904.3,504.8"/>
		</g>
	</g>
	<g class="st3">
		<g>
			<defs>
				<rect id="SVGID_5_" x="1477.7" y="988.8" width="216" height="216"/>
			</defs>
			<clipPath id="SVGID_6_">
				<use xlink:href="#SVGID_5_"  style="overflow:visible;"/>
			</clipPath>
			<path class="st5" d="M1693.7,1096.8c0,59.6-48.4,108-108,108c-59.6,0-108-48.4-108-108c0-59.6,48.4-108,108-108
				C1645.3,988.8,1693.7,1037.1,1693.7,1096.8"/>
		</g>
	</g>
	<path class="st6" d="M513.8,613.7c-2.3-13.6-3.5-27.5-3.5-41.4h2.7c0,13.7,1.2,27.5,3.5,41L513.8,613.7z"/>
	<path class="st6" d="M699.3,810c-84.1-19.4-152.3-82.7-178-165.2l2.5-0.8c25.4,81.6,92.8,144.2,176,163.4L699.3,810z"/>
	<path class="st6" d="M754.3,816.3c-6.7,0-13.5-0.3-20.2-0.8l0.2-2.7c6.6,0.5,13.3,0.8,19.9,0.8V816.3z"/>
	<path class="st2" d="M1574.5,1052c-22-18.1-36.8-22.7-57.2-20.4c-20.4,2.3-42.4-3.3-46.7-6.6c-4.3-3.3-43.4-9.2-47.3,8.2
		c-0.4,1.9-0.4,3.7-0.1,5.4c0,0.1,0,0.2,0.1,0.4v31.7l-114.5,21.1c-25.1,4.6-48.1,17.1-65.8,35.6l-8,8.4c-2.6,2.7-7.1,1.8-8.4-1.7
		c-7.3-19.6-27.7-73.6-47.9-116.2c-6.4-13.5-12.8-25.8-18.7-35.5c0.1-0.4,0.2-0.9,0.3-1.3c9.9-48.3-10.4-82.3-29.6-95.6
		c-7.3-5-14.5-11.3-20.6-17.2c-10.1-9.7-17.3-18.3-17.3-18.3l0.7,0.1l2.6-18.8l-0.6-0.1l2.9-20.2l0.5,0.1l0.5-3.4l-0.5-0.1l2.8-19.7
		l0.4,0.1l7.2-52.3l-0.2,0l0.8-5.8l0.8-5.9l0.5-3.6l68.2-27c0,0-3.3-17.7-20.4-23.7c-6.5-2.2-9.2-6.8-10-11.7l59.5,5.7l0,0.7
		c40.9,2.9,43.6,4.4,53.8,9.9l0.6,0.4c10.5,5.7,109.6,72.5,115.3,76.4c3.3,16.7,11,30.2,11,30.3l1.3-0.7c0,0-0.2-0.4-0.6-1.1
		c3.9,6.5,8.6,12.5,14,17.8l19.6,19.3c2-6.9,0.3-14.8-5.6-19.7c-3.8-3.2-10.2-7.5-4.5-7.5c3.1,0,9.6,1.2,21.9,4.6
		c35.2,9.5,44,4.6,44,4.6l-11.2-4.9c13.5,4.3,24.7-1,24.7-1l-11.2-4.6c5.6,0,6.2-2.6,6.2-2.6l-18.1-9.8c8.5,0.7,8.9-2.3,8.9-2.3
		l-81.2-40.4l-114.3-102c-1.4-1.3-2.9-2.5-4.5-3.5c-3.8-2.5-7.9-4.3-12.3-5.5c-23.1-5.9-83.6-21-133.9-30c3.5-9.5,4.9-21.9-7.1-29.3
		c-21.4-13.3-42.6-12-44-32.2c-1.5-20.2,4.9-34.5-15.1-40.4c-28.3-8.4-27.4-28.7-42.7-36.8c-24.1-12.8-96.6-8.9-97.9,45.1
		c0,0,0.1,0.3,0.4,0.9c-3.6,5.6-6,11.8-7.3,18.4c-1.9,9.7-1.4,20.3,1.4,30.7c0.8,3.2,1.7,6.3,2.7,9.3c0.2,1.7,0,4.1-1.7,6.3
		c-3,3.9-3.9,6.6-2.3,9.3c1.3,2.2,6.1,2.8,10.1,1.3c13.9,32.7,33.9,44.5,59.7,30.7v17.4v1.2c-0.4,0.3-0.8,0.6-1.2,0.9l-6,10.4
		c-0.1-0.3-0.4-0.6-0.8-0.7c-4.8-1.2-23-3.8-45.7,19.3c-22,22.3-65.7,50.5-80.1,59.6c-1.9,1.2-4.3-0.4-3.9-2.6l1.2-8.1l1,0.1
		l13.8-96.9l2.5-1.8c0.7-0.5,1.4-1.1,2.1-1.6c8-5.4,25-19.1,43.8-47.4l-0.6-0.4v0c0.5-0.8,0-1.9-1-1.9c-3.4-0.2-10.4,0.4-15,8.5
		c-6.3,11.1-14.2,6-9.5-1.3c4.2-6.4,15.2-40.1,17.8-48c0.3-0.9-0.4-1.7-1.4-1.6c-1.1,0.1-2.7,0.5-4.2,1.6c-0.8,0.5-1.8,0-1.9-0.8
		c2.2-6.8,3.5-11.6,3.5-11.7l-0.7-0.2c0.2-0.9-0.6-1.8-1.5-1.5c-1.6,0.4-3.9,1.6-6.2,4.4c-0.5,0.6-1.4,0.6-1.9,0.1
		c0.2-0.6,0.3-1,0.4-1l-0.7-0.2c0.3-1-0.8-1.9-1.8-1.5c-3.4,1.5-9.7,5.8-14.5,16.9l-0.2-0.1l1.2-4.9c0.3-1.1-1-2-1.9-1.3
		c-3.2,2.2-9,8.2-16.7,23.6c-11.7,23.6-22.4,31.6-19.3,61.4c0,0.1,0,0.3,0,0.4l-36.6,146c-4.3,17,11.9,32,28.5,26.5l5-1.7l0.2,0.5
		l31.2-10.3l-0.2-0.5l16.4-5.4l0.2,0.6l3-1l-0.2-0.6l12-4l0.2,0.6l36.7-12.2l-0.2-0.6l6.8-2.3c1.4,6.9,4.2,13.6,8.2,19.6l3.1,4.6
		l2.4,3.5l5.4,8l1.2,4.5l2.8,10.3l32.3,121.3l-0.8,0.4l-15.8,1c0,0,0,0.3,0.1,0.9l-38.5,3.6l28.2-3l-0.2-1.5l-150.5,15.8l0,0.1
		l-4.6,0.4c-32.4,3-57.2,30.3-57.1,62.8c0.1,65.4-1.8,169.8-13.9,219.7c-0.8-0.3-1.5-0.3-2.2,0.3c-5.6,4.9-38.5,49-57.5,67.7
		c-19,18.7-22.7,22.7-22.7,22.7s10.5,23.6,45.2,15.6c-9.4,2.3-17.3,2.5-22.4,0.8l-0.5,1.4c2.4,0.8,5.4,1.2,8.8,1.2
		c16.1,0,41.8-9.2,65.4-28c0.2-0.2,0.4-0.3,0.6-0.5c9.4-6.3,17.6-11.9,29-15.7c5.9-1.7,11-2.2,15.7-2.7c4.4-0.5,8.5-0.9,12.6-2.2
		c14.7-4.6,12.9-19.4,12.8-19.5l-1,0.1c-0.1-1.5-0.4-3.1-0.8-4.7c-3.1-12.3-13.5-26.8-25.4-38.3c-0.5-0.5-1.1-1.1-1.7-1.6
		c-1.1-1-2.5-1.2-3.7-0.9l20-76c7.3-25.7,15.6-56.9,16-67.3c0.2-6.1-0.2-13.6-0.7-20.9c-0.3-7-1.1-13.9-2.2-20.8c-0.6-4.3-1-7-1-7.1
		l-0.4,0.1c-0.2-0.9-0.4-1.8-0.6-2.7c-1.1-4.8,3.1-9.2,8-8.2c34,7.1,143.6,28.6,206.7,27.3l0.5,0.6l3.6,4.6l123.5,156
		c3.9,4.9,8.3,9.1,13,12.7c22.2,16.6,52.8,18.9,77.6,4.2c0.9-0.5,1.8-1.1,2.8-1.6l0.7,1.2c0.6-0.4,64.6-39.4,117.4-64.9l0,0
		c11.7-5.6,23.2-10.7,34.2-15.2l0.1,0.2c6.3-2.4,11.8-4.2,16.4-5.4l-0.3-1.1c14.5-5.3,27.8-9.2,39-11c2,2.6,3.2,5.1,3.5,7.2
		c1.3,9.2,27.9-20.7,84.5-14.5c19.4,2.1,26.7-2.3,27.9-9.1c0.4-0.7,0.7-1.4,0.9-2.2C1589.7,1078.1,1590,1064.8,1574.5,1052
		 M708.7,1309.2c0.3-0.1,0.5-0.1,0.8-0.2C709.2,1309,709,1309.1,708.7,1309.2 M717.4,1306.5c0.7-0.2,1.3-0.5,2-0.7
		C718.7,1306.1,718,1306.3,717.4,1306.5 M719.9,1305.6c2.1-0.8,4.1-1.6,6-2.4C723.8,1304.1,721.8,1304.9,719.9,1305.6"/>
	<path class="st6" d="M1080.7,514.3l-0.6-2.6c9.5-2.3,19.3-3.4,29.1-3.4v2.7C1099.6,511,1090,512.1,1080.7,514.3"/>
	<path class="st6" d="M1233.7,632.8h-2.7c0-55.8-37.8-104.4-91.8-118.1l0.7-2.6C1195.1,526.1,1233.7,575.7,1233.7,632.8"/>
	<path class="st6" d="M1113.6,485.7l-0.2-2.7c3.1-0.2,6.2-0.3,9.3-0.3l0,2.7C1119.7,485.4,1116.7,485.5,1113.6,485.7"/>
	<path class="st6" d="M1051.8,507.5l-1.5-2.2c14.6-10.3,30.9-17.1,48.3-20.4l0.5,2.6C1082.1,490.7,1066.2,497.5,1051.8,507.5"/>
	<path class="st7" d="M983.6,598.6c0,0-9.2,22.3,7.9,28.3c17.1,5.9,20.4,23.7,20.4,23.7l-84.8,33.5l-5.9-82.2L983.6,598.6z"/>
	<rect x="821.3" y="528.9" class="st8" width="43.7" height="70.3"/>
	<path class="st6" d="M844.8,544.3c-3.5,14.8-11.2,25.7-23.5,35.4v-17.4c1.9-1,3.8-2.1,5.8-3.4C834,554.3,839.9,549.5,844.8,544.3"
		/>
	<path class="st8" d="M855.1,528.9c-2.6,5.6-6,10.7-10.4,15.4c-4.8,5.2-10.7,10-17.7,14.6c-2,1.3-3.9,2.4-5.8,3.4
		c-25.8,13.8-45.8,2-59.7-30.7c-4,1.5-8.8,0.9-10.1-1.3c-1.6-2.7-0.8-5.4,2.3-9.3c1.8-2.2,1.9-4.7,1.7-6.3c-0.9-3-1.8-6.1-2.7-9.3
		c-2.7-10.4-3.3-20.9-1.4-30.7c4.4-22.6,21.9-41,55.6-43c32.8-2,52,21.2,54.1,56.7C862,505.2,860.1,518.2,855.1,528.9"/>
	<path class="st6" d="M769,505.9c0,2.3-1.8,4.1-4.1,4.1c-2.3,0-4.1-1.8-4.1-4.1c0-2.3,1.8-4.1,4.1-4.1
		C767.2,501.8,769,503.7,769,505.9"/>
	<path class="st6" d="M755.6,500.5c0.4,0.8,1.4,1,2.1,0.5c2.2-1.7,7.1-4.8,11.7-4.4c6.3,0.6,8.4,0.7,8.4,0.7s-6-3.2-11.7-2.8
		c-4.2,0.3-8.3,2.7-10.1,4C755.4,499,755.2,499.9,755.6,500.5"/>
	<path class="st9" d="M787.6,528.6c0,5.6-4.5,10.1-10.1,10.1c-5.6,0-10.1-4.5-10.1-10.1s4.5-10.1,10.1-10.1
		C783,518.5,787.6,523,787.6,528.6"/>
	<path class="st7" d="M758.2,455.4c0,0,9.4,21,30.3,28.1c21,7.1,25.1,9.6,32,22.2c6.9,12.6,3,45.1,32,49.3
		c29.1,4.2,54.3-10.3,105.3,7.5c0,0,21.4-29.4,0-42.7c-21.4-13.3-42.6-12-44-32.2c-1.5-20.2,4.9-34.5-15.1-40.4
		c-28.3-8.4-27.4-28.7-42.7-36.8C832,397.4,759.5,401.4,758.2,455.4"/>
	<path class="st10" d="M985.5,655.9c0-0.1-2.1-12.2-18-20.5c-11.3-5.9-10.9-21.4-10.6-35c0.2-7,0.3-13.7-1-18.7
		c-0.4-1.5-0.8-3.3-1.2-5.1c-3.8-16.7-10.2-44.6-43.3-41.6c-24.7,2.2-42.1-1.5-51.8-11c-6.6-6.4-9.5-15.4-8.8-26.6l1.5,0.1
		c-0.7,10.8,2.1,19.4,8.4,25.5c9.4,9.2,26.4,12.7,50.7,10.5c34.4-3.1,41,25.6,44.9,42.8c0.4,1.9,0.8,3.6,1.2,5.1
		c1.4,5.2,1.2,11.9,1,19.1c-0.3,13.9-0.7,28.2,9.8,33.7c16.6,8.6,18.7,21,18.8,21.6L985.5,655.9z"/>
	<path class="st10" d="M845.3,480.9c-0.5-0.6-1.1-1.1-1.6-1.7l1-1.1c0.6,0.6,1.2,1.2,1.7,1.8L845.3,480.9z"/>
	<path class="st10" d="M833.9,473.1c-11.1-4.9-23.7-5.3-23.9-5.3l0-1.5c0.1,0,13.1,0.4,24.4,5.4L833.9,473.1z"/>
	<path class="st8" d="M814.2,593c0.2-0.7-0.2-1.4-0.9-1.5c-4.8-1.2-23-3.8-45.7,19.3c-22,22.3-65.7,50.5-80.1,59.6
		c-1.9,1.2-4.3-0.4-3.9-2.6L698.8,564c0-0.3,0.2-0.6,0.5-0.8l2.7-2c17-12.5,31.5-28,42.9-45.7l2.3-3.7c0.5-0.8,0-1.9-1-1.9
		c-3.4-0.2-10.4,0.4-15,8.5c-6.3,11.1-14.2,6-9.5-1.3c4.2-6.4,15.2-40.1,17.8-48c0.3-0.9-0.4-1.7-1.4-1.6c-1.1,0.1-2.7,0.5-4.2,1.6
		c-0.9,0.7-2.2-0.2-1.9-1.3c0.9-3.7,2.1-8.7,2.8-11.4c0.2-0.9-0.6-1.8-1.5-1.5c-1.6,0.4-3.9,1.6-6.2,4.4c-0.9,1-2.6,0.2-2.2-1.1l0,0
		c0.3-1-0.8-1.9-1.8-1.5c-3.5,1.6-10.1,6.1-15,18.1l1.5-6.1c0.3-1.1-1-2-1.9-1.3c-3.2,2.2-9,8.2-16.7,23.6
		c-11.7,23.6-22.4,31.5-19.3,61.4c0,0.1,0,0.3,0,0.4l-36.6,146c-4.3,17,11.9,32,28.5,26.5l126.2-42c0.4-0.1,0.7-0.5,0.8-0.9
		L814.2,593z"/>
	<path class="st8" d="M1300.7,750.8l11.2,4.9c0,0-8.9,4.9-44-4.6c-12.3-3.3-18.9-4.6-21.9-4.6c-5.7,0,0.7,4.3,4.5,7.5
		c5.9,4.9,7.6,12.8,5.6,19.7l-19.6-19.3c-12.9-12.7-21.6-29-25.1-46.7l-114.1-75.6l-1.5-1c-5.9-3.9-12.6-6.2-19.6-6.9l-101.7-9.7
		c-21.1-2-42.3-2.2-63.5-0.8c-9.9,0.7-21.7,0.8-32.7-1.1h0c-21.5-3.6-39.8-14.5-35.4-42.4c0,0,11.2-29.6,66.4-28.3
		c46.6,1.1,156.6,28.5,189.6,37c4.4,1.1,8.5,3,12.3,5.5c1.6,1.1,3.1,2.2,4.5,3.5l114.3,102l81.2,40.4c0,0-0.3,3-8.9,2.3l18.1,9.8
		c0,0-0.6,2.6-6.2,2.6l11.2,4.6C1325.4,749.8,1314.2,755,1300.7,750.8"/>
	
		<rect x="667.9" y="717.3" transform="matrix(0.9492 -0.3147 0.3147 0.9492 -191.1651 251.8064)" class="st6" width="32.8" height="1.5"/>
	
		<rect x="716.2" y="706.2" transform="matrix(0.9492 -0.3147 0.3147 0.9492 -185.9813 261.768)" class="st6" width="3.1" height="1.5"/>
	
		<rect x="730.3" y="695.6" transform="matrix(0.9492 -0.3147 0.3147 0.9492 -181.0424 271.2593)" class="st6" width="38.7" height="1.5"/>
	<path class="st6" d="M685.8,659.8l-1.5-0.2l14-98.3l0.4-0.2c0.2-0.1,22.4-11.2,48-49.8l1.2,0.8c-24,36.3-45.2,48.6-48.2,50.2
		L685.8,659.8z"/>
	<path class="st6" d="M715.7,504.4l-1.2-0.9c11.3-15.5,19.6-47.1,19.7-47.4l1.4,0.4C735.6,456.8,727.1,488.7,715.7,504.4"/>
	<path class="st6" d="M707.2,498.4l-1.3-0.8c10.7-17.1,18.3-39.6,18.4-39.9l1.4,0.5C725.6,458.5,717.9,481.1,707.2,498.4"/>
	
		<rect x="692.1" y="483" transform="matrix(0.4298 -0.9029 0.9029 0.4298 -35.6046 911.1091)" class="st6" width="22.9" height="1.5"/>
	<path class="st6" d="M684.8,550.3c-4.2-9.5,3.5-21.9,3.8-22.4l1.3,0.8c-0.1,0.1-7.6,12.3-3.7,21L684.8,550.3z"/>
	<path class="st6" d="M1300.5,751.5c-1.3-0.4-31.2-9.8-38.9-14.5l0.8-1.3c7.5,4.6,38.2,14.2,38.5,14.3L1300.5,751.5z"/>
	<path class="st6" d="M1314,745.9c-1.2-0.3-29.8-7.7-40.6-16.3l0.9-1.2c10.6,8.4,39.8,16,40.1,16L1314,745.9z"/>
	<path class="st6" d="M1302.1,733.4c-0.1-0.1-12.8-6.5-19.7-10.9l0.8-1.2c6.8,4.4,19.4,10.7,19.6,10.8L1302.1,733.4z"/>
	<path class="st6" d="M1221.7,738.5c-0.1-0.1-7.7-13.6-11-30.3c-5.8-3.9-104.9-70.7-115.3-76.4l-0.7-0.4c-10.2-5.5-12.9-7-53.8-9.9
		l0.1-1.5c41.2,2.9,44,4.4,54.4,10.1l0.6,0.4c10.8,5.9,111.4,73.7,115.7,76.6l0.3,0.2l0.1,0.3c3.2,16.6,10.8,30,10.9,30.2
		L1221.7,738.5z"/>
	
		<rect x="1115.3" y="593.5" transform="matrix(0.9062 -0.4229 0.4229 0.9062 -148.5781 528.1598)" class="st6" width="1.5" height="10.9"/>
	<path class="st6" d="M652.8,756.9c-4.8-0.5-9.7-1.1-14.4-2l0.5-2.6c4.7,0.8,9.5,1.5,14.2,1.9L652.8,756.9z"/>
	<path class="st6" d="M676.2,757.8l-0.1-2.7c27.4-0.6,54-7,78.9-18.9l1.2,2.4C730.9,750.8,704,757.2,676.2,757.8"/>
	<path class="st6" d="M1054.3,1221.9v-2.7c9.6,0,19.2-1.1,28.5-3.4l0.6,2.6C1073.9,1220.7,1064.1,1221.9,1054.3,1221.9"/>
	<path class="st6" d="M1023.7,1218.1c-55.2-14-93.8-63.6-93.8-120.7h2.7c0,55.8,37.8,104.4,91.8,118.1L1023.7,1218.1z"/>
	<path class="st6" d="M560.4,973.5c-2.8-7-4.7-14.4-5.7-21.9l2.6-0.4c1,7.3,2.9,14.5,5.6,21.3L560.4,973.5z"/>
	<path class="st6" d="M556.9,928.1l-2.7-0.3c4.8-43.8,38.6-78.6,82.3-84.7l0.4,2.6C594.5,851.7,561.6,885.5,556.9,928.1"/>
	<path class="st8" d="M1313.6,1059.4c-48.8,2.2-155.7,61-220,99c-24.8,14.7-55.4,12.4-77.6-4.2c-4.8-3.6-9.2-7.8-13-12.7l-123.5-156
		l-3.6-4.6L864,966c0,0,3.6-2.9,9.5-7.2c0.8-0.6,1.6-1.1,2.4-1.7c22.1-16,69.4-47.1,94.5-40.1c2.8,0.8,5.2,2,7.4,3.7
		c4.3,3.5,9.3,10.2,14.7,18.9c6,9.7,12.3,22,18.7,35.5c20.3,42.5,40.7,96.5,47.9,116.2c1.3,3.5,5.8,4.4,8.4,1.7l8-8.4
		c17.6-18.5,40.6-30.9,65.8-35.6l121.7-22.4L1313.6,1059.4z"/>
	<path class="st6" d="M1016,1154.2c-4.8-3.6-9.2-7.8-13-12.7l-123.5-156l-3.6-4.6L864,966c0,0,3.6-2.9,9.5-7.2
		c23.5-10,65.8-28.4,96.9-41.9c2.8,0.8,5.2,2,7.4,3.7c4.3,3.5,9.3,10.2,14.7,18.9c6,9.7,12.3,22,18.7,35.5
		C1006,987.3,978.4,1061.4,1016,1154.2"/>
	<path class="st9" d="M943.1,681.2l-0.8,5.9c-32,2.1-111.9-4.6-90.1-127.4c1.5-0.9,2.9-1.8,4.3-2.7
		C832.3,680.8,914.9,683.6,943.1,681.2"/>
	<path class="st11" d="M942.3,687.1l-3.2,22.3c-118.1-6.1-146.8-1.1-152.9,2.9l-3.1-4.6c-11.7-17.3-12.5-39.8-2.1-57.9l39.2-68
		c8.6-6.7,21.2-15.2,32.1-22.2C830.3,682.5,910.3,689.1,942.3,687.1"/>
	<path class="st9" d="M939.1,709.4l-0.3,1.8l-2,14.3c-89.9-3.7-127.3-1-141.6,2.9l-1.2-4.5l-5.4-8l-2.4-3.5
		C792.3,708.3,821,703.3,939.1,709.4"/>
	<path class="st8" d="M955.2,596.6l-2.5,17.4l-1.2,8.2l-6.6,46.5l-1.8,12.5c-28.2,2.5-110.8-0.4-86.6-124.2
		c4.3-2.8,8.2-5.2,11.2-7.1c3.5-2.2,5.7-3.5,5.7-3.5L955.2,596.6z"/>
	<path class="st8" d="M936.8,725.5l-0.1,1l-11.5,80.7l-93.7,57.2l-33.5-125.7l-2.8-10.3C809.5,724.4,846.9,721.8,936.8,725.5"/>
	<path class="st8" d="M856.7,858.2l-208.4,19.6c-32.4,3-57.2,30.3-57.1,62.8c0.2,77.5-2.5,209.5-21.7,241l13.8,30.9l41.4-38.1
		l34.7-131.6c7-26.7,7.5-54.6,1.3-81.5c-1.1-4.8,3.1-9.2,8-8.2c42.5,8.8,203,40.2,243.3,21.5c46.7-21.7,75.6-102.5,39.4-133.4
		C915.2,810.3,856.7,858.2,856.7,858.2"/>
	<path class="st11" d="M942.4,825.4c-21.7,17.5-102.9,32.7-111.8,34.3l94.5-52.6C925.1,807.1,932.3,815.7,942.4,825.4"/>
	<path class="st9" d="M992.6,938.3c-0.1,0.4-0.2,0.9-0.3,1.3c-9.9,40.5-90.8,45.4-112.9,45.9l-3.6-4.6l28.6-5.7
		c-10.7-5.6-20.2-11.7-28.5-18.2c-54.7-41.9-62.2-95.7-62.2-95.7l15.8-1l1.2-0.6c9-1.6,90.1-16.8,111.8-34.3
		c6.2,5.9,13.3,12.2,20.6,17.2C982.3,855.9,1002.5,890,992.6,938.3"/>
	<path class="st6" d="M952.7,614l-1.2,8.2c-4.6,0.1-9.2,0.4-13.7,0.7c-17.5,1.2-40.6,0.5-55.1-9.2c11,1.8,22.7,1.8,32.7,1.1
		C927.8,614,940.2,613.7,952.7,614"/>
	<path class="st9" d="M640.5,1221.7c-40.1,4.6-44,24-88.4,41.1c-44.4,17.1-57.2-11.8-57.2-11.8s3.6-3.9,22.7-22.7
		c19.1-18.7,51.9-62.8,57.5-67.7c5.6-4.9,13.5,25.3,32.2,22.7c12.7-1.8,17.6-15.6,19.4-24.2c0.6-3,4.4-4.2,6.6-2.1
		c0.6,0.5,1.1,1,1.7,1.6c11.9,11.5,22.3,26.1,25.4,38.3C663.5,1209.4,658.9,1219.6,640.5,1221.7"/>
	<path class="st2" d="M1420.5,1041.8c-0.2,0.8-0.5,1.5-0.9,2.2c-1.4,2.2-3.9,3.5-6.6,3.4c-6.4-0.5-17.3-4-35-10
		c-25.3-8.5-37.8-13.1-66-16.1c-5.6-0.6-11.4-1.5-17.1-2.7c-19.3-4.1-36.5-11.6-39.1-22.4c0-0.1-0.1-0.2-0.1-0.4
		c-0.4-1.7-0.4-3.5,0.1-5.4c3.9-17.4,43.1-11.5,47.3-8.2c4.3,3.3,26.3,8.9,46.7,6.6c20.4-2.3,35.2,2.3,57.2,20.4
		C1422.5,1021.9,1422.1,1035.2,1420.5,1041.8"/>
	<path class="st9" d="M1419.7,1044c-1.2,6.8-8.5,11.3-27.9,9.1c-56.5-6.2-83.2,23.7-84.5,14.5c-1.3-9.2-21.7-26.6-37.5-24.3
		c-15.8,2.3-14.1-8.2-14.1-8.2v-38.9c2.6,10.8,19.9,18.4,39.1,22.4c5.6,1.2,11.4,2.1,17.1,2.7c28.3,3,40.7,7.6,66,16.1
		c17.8,6,28.6,9.6,35,10C1415.7,1047.6,1418.3,1046.2,1419.7,1044"/>
	<path class="st11" d="M660.3,1196.9c-36.2,22.6-67,0.4-47.3-5.7c16.7-5.2,20.9-25.1,21.9-32.6
		C646.9,1170,657.3,1184.6,660.3,1196.9"/>
	<path class="st11" d="M1306.2,1047.2c-19.7-15.1-43.7-15.2-50.4-14.9v-36.1c2.6,10.8,19.9,18.4,39.1,22.4
		C1313.4,1037.1,1320.1,1057.9,1306.2,1047.2"/>
	<path class="st10" d="M554.2,1250.9l-0.8-1.3c7.2-4.5,12.8-9.5,18.2-14.3c11.1-10,21.5-19.4,44.2-22.1
		c35.4-4.3,40.8-12.9,40.9-12.9l1.3,0.7c-0.2,0.4-5.5,9.3-42,13.7c-22.2,2.7-32.5,12-43.4,21.8
		C567.2,1241.2,561.6,1246.3,554.2,1250.9"/>
	<path class="st10" d="M531.9,1259.6l-0.2-1.5c1.6-0.2,3.1-0.6,4.7-1l0.4,1.4C535.1,1259,533.5,1259.3,531.9,1259.6"/>
	<path class="st10" d="M516.9,1259.6c-11.8-1.7-19.3-7-19.6-7.2l0.9-1.2c0.1,0.1,7.5,5.3,19,7L516.9,1259.6z"/>
	<path class="st10" d="M623.6,1191.2c0,0,11.8,13.3,18.7-15.3C642.3,1175.9,636.9,1215.8,623.6,1191.2"/>
	<path class="st10" d="M1291.9,1034.2c0,0-0.4-16.4-22.4-4.1C1269.4,1030.1,1297.2,1010,1291.9,1034.2"/>
	<path class="st10" d="M818.1,631.8c0,0,11.8,13.3,18.7-15.3C836.9,616.5,831.4,656.4,818.1,631.8"/>
	<path class="st10" d="M846.2,868.2c0,0-12.4,12.7,16.6,17.6C862.8,885.8,822.6,883.2,846.2,868.2"/>
	<path class="st10" d="M1296.4,1008.8c-0.8-0.1-20.2-1.4-25-8.9c-1.3-2-1.5-4.1-0.6-6.5c4.1-11.1,20-6.2,38.5-0.5
		c3.6,1.1,7.3,2.2,11,3.3c10.3,2.9,17.5,1.6,25.2,0.2l1.5-0.3l0.3,1.5l-1.5,0.3c-7.5,1.4-15.3,2.8-25.9-0.3c-3.8-1.1-7.5-2.2-11-3.3
		c-17.8-5.5-33.1-10.2-36.7-0.4c-0.7,1.9-0.6,3.6,0.4,5.2c4.5,6.9,23.7,8.3,23.9,8.3L1296.4,1008.8z"/>
	<path class="st10" d="M1379,1000.2c-2.4-0.9-4.7-1.7-7-2.2l0.4-1.4c2.3,0.6,4.7,1.4,7.1,2.3L1379,1000.2z"/>
	<path class="st10" d="M1411.4,1034.6c0-0.1-3.1-13.6-15.8-24.5l1-1.1c13.1,11.3,16.2,24.8,16.3,25.3L1411.4,1034.6z"/>
	<path class="st10" d="M875.8,980.4l-0.1-1.5c0.9-0.1,92.4-5.9,107.3-45.4l1.4,0.5C969.2,974.5,879.7,980.2,875.8,980.4"/>
	<path class="st6" d="M1248.7,1078l-0.5-1.4c6.3-2.4,11.9-4.2,16.6-5.4l0.4,1.4C1260.5,1073.8,1254.9,1075.6,1248.7,1078"/>
	<path class="st6" d="M1232.7,1084.6l-0.6-1.4c1.2-0.6,2.5-1.1,3.7-1.6l0.6,1.4C1235.1,1083.5,1233.9,1084,1232.7,1084.6"/>
	<path class="st6" d="M1097,1157.9l-0.8-1.3c0.6-0.4,64.7-39.4,117.6-65l0.6,1.3C1161.7,1118.6,1097.7,1157.6,1097,1157.9"/>
	
		<rect x="652.6" y="869.3" transform="matrix(0.9945 -0.1046 0.1046 0.9945 -87.0273 80.9601)" class="st6" width="151.3" height="1.5"/>
	<path class="st6" d="M638.6,1117.4l-1.4-0.4c0.3-0.9,26.3-86.2,26.9-104.3c0.6-18.1-3.9-48.2-3.9-48.5l1.5-0.2
		c0,0.3,4.6,30.5,4,48.8C664.9,1031,639.6,1113.9,638.6,1117.4"/>
	<path class="st6" d="M525.9,1270c-3.4,0-6.3-0.4-8.8-1.2l0.5-1.4c13.3,4.4,44.9-4.4,72.8-26.5c20.8-16.5,34.9-18,46.1-19.2
		c4.3-0.5,8.4-0.9,12.3-2.1c13.5-4.2,11.9-17.4,11.8-17.9l1.5-0.2c0,0.2,1.9,15-12.8,19.5c-4,1.3-8.2,1.7-12.6,2.2
		c-11.1,1.2-24.9,2.7-45.4,18.9C567.7,1260.8,542,1270,525.9,1270"/>
	
		<rect x="910.9" y="718.2" transform="matrix(0.1362 -0.9907 0.9907 0.1362 97.4209 1549.5406)" class="st6" width="52.8" height="1.5"/>
	
		<rect x="929" y="765.7" transform="matrix(0.1362 -0.9907 0.9907 0.1362 44.6848 1584.0945)" class="st6" width="3.4" height="1.5"/>
	
		<rect x="916.9" y="797" transform="matrix(0.1361 -0.9907 0.9907 0.1361 10.0272 1606.9867)" class="st6" width="19" height="1.5"/>
</g>
</svg>
