<?xml version="1.0" encoding="utf-8"?>
<!-- Generator: Adobe Illustrator 23.0.3, SVG Export Plug-In . SVG Version: 6.00 Build 0)  -->
<svg version="1.1" id="圖層_1" xmlns="http://www.w3.org/2000/svg" xmlns:xlink="http://www.w3.org/1999/xlink" x="0px" y="0px"
	 viewBox="0 0 2000 1500" style="enable-background:new 0 0 2000 1500;" xml:space="preserve">
<style type="text/css">
	.st0{fill:#A57A67;}
	.st1{fill-rule:evenodd;clip-rule:evenodd;fill:#FFEFEF;}
	.st2{opacity:0.4;}
	.st3{clip-path:url(#SVGID_2_);fill-rule:evenodd;clip-rule:evenodd;fill:#A57A67;}
	.st4{fill:#FFEFEF;}
	.st5{fill:#FFFFFF;}
	.st6{fill-rule:evenodd;clip-rule:evenodd;fill:#A57A67;}
	.st7{fill-rule:evenodd;clip-rule:evenodd;fill:#FECE60;}
	.st8{fill:#47352F;}
	.st9{opacity:0.22;}
	.st10{clip-path:url(#SVGID_4_);fill-rule:evenodd;clip-rule:evenodd;fill:#A57A67;}
	.st11{fill-rule:evenodd;clip-rule:evenodd;fill:#FEBAC8;}
	.st12{clip-path:url(#SVGID_6_);fill-rule:evenodd;clip-rule:evenodd;fill:#E5B2EB;}
	.st13{clip-path:url(#SVGID_8_);fill-rule:evenodd;clip-rule:evenodd;fill:#E5B2EB;}
	.st14{fill-rule:evenodd;clip-rule:evenodd;fill:#F59BB5;}
	.st15{clip-path:url(#SVGID_10_);fill-rule:evenodd;clip-rule:evenodd;fill:#FEBAC8;}
	.st16{fill:none;stroke:#FFFFFF;stroke-width:1.524;stroke-linecap:round;stroke-linejoin:round;stroke-miterlimit:10;}
	.st17{fill:#FECE60;}
</style>
<g id="Background">
</g>
<g>
	<path class="st0" d="M871.3,732.4c-143.6,0-260.5-116.9-260.5-260.5s116.9-260.5,260.5-260.5c21.6,0,43.2,2.7,63.9,7.9l-0.8,3
		c-20.5-5.2-41.8-7.8-63.2-7.8C729.3,214.6,613.9,330,613.9,472s115.5,257.4,257.4,257.4s257.4-115.5,257.4-257.4
		c0-30.5-5.3-60.3-15.7-88.6l2.9-1.1c10.5,28.7,15.9,58.9,15.9,89.7C1131.7,615.6,1014.9,732.4,871.3,732.4"/>
	<path class="st0" d="M1042.9,280.2c-6.7-6-13.9-11.8-21.2-17l1.8-2.5c7.4,5.3,14.6,11.1,21.4,17.3L1042.9,280.2z"/>
	<path class="st1" d="M1095.1,482.2c0,145.1-117.6,262.7-262.7,262.7S569.7,627.3,569.7,482.2s117.6-262.7,262.7-262.7
		S1095.1,337.1,1095.1,482.2"/>
	<g class="st2">
		<g>
			<g>
				<defs>
					<rect id="SVGID_1_" x="323.4" y="1155.8" width="1402.1" height="160.9"/>
				</defs>
				<clipPath id="SVGID_2_">
					<use xlink:href="#SVGID_1_"  style="overflow:visible;"/>
				</clipPath>
				<polygon class="st3" points="1725.6,1316.7 323.4,1316.7 508.1,1155.8 1574,1155.8 				"/>
			</g>
		</g>
	</g>
	<path class="st4" d="M1848.1,1010.6L1848.1,1010.6h-84.9c-1.5,0-2.7-1.2-2.7-2.7s1.2-2.7,2.7-2.7l0,0h84.9c1.5,0,2.7,1.2,2.7,2.7
		C1850.8,1009.4,1849.6,1010.6,1848.1,1010.6"/>
	<path class="st4" d="M1726.7,1010.5L1726.7,1010.5h-7.3c-1.5,0-2.7-1.2-2.7-2.7s1.2-2.7,2.7-2.7l0,0h7.3c1.5,0,2.7,1.2,2.7,2.7
		C1729.4,1009.3,1728.2,1010.5,1726.7,1010.5"/>
	<path class="st4" d="M1683.1,1010.5L1683.1,1010.5L296,1009.7c-1.5,0-2.7-1.2-2.7-2.7s1.2-2.7,2.7-2.7l0,0l1387.1,0.8
		c1.5,0,2.7,1.2,2.7,2.7C1685.8,1009.3,1684.6,1010.5,1683.1,1010.5"/>
	<path class="st4" d="M257.7,1009.7L257.7,1009.7l-95.5-0.1c-1.5,0-2.7-1.2-2.7-2.7s1.2-2.7,2.7-2.7l0,0l95.5,0.1
		c1.5,0,2.7,1.2,2.7,2.7C260.5,1008.4,259.2,1009.7,257.7,1009.7"/>
	<rect x="1206.8" y="644.7" class="st1" width="170.4" height="183.7"/>
	<rect x="1488.6" y="525.9" class="st1" width="144.2" height="200.9"/>
	<rect x="1177.7" y="315.4" class="st1" width="265.7" height="277.1"/>
	<path class="st5" d="M1393.5,537.4h-166.6c-1.3,0-2.3-1-2.3-2.3V372.5c0-1.3,1-2.3,2.3-2.3h166.6c1.3,0,2.3,1,2.3,2.3v162.6
		C1395.8,536.4,1394.8,537.4,1393.5,537.4 M1229.2,532.8h162v-158h-162V532.8z"/>
	<path class="st5" d="M1346.2,791.8h-108.6c-1.3,0-2.3-1-2.3-2.3V684.9c0-1.3,1-2.3,2.3-2.3h108.6c1.3,0,2.3,1,2.3,2.3v104.7
		C1348.5,790.8,1347.5,791.8,1346.2,791.8"/>
	<rect x="1239.9" y="687.2" class="st5" width="104" height="100"/>
	<path class="st5" d="M1606.5,686.7h-91.9c-1.3,0-2.3-1-2.3-2.3V569.9c0-1.3,1-2.3,2.3-2.3h91.9c1.3,0,2.3,1,2.3,2.3v114.5
		C1608.8,685.6,1607.8,686.7,1606.5,686.7"/>
	<rect x="1516.9" y="572.2" class="st5" width="87.2" height="109.8"/>
	<rect x="1259.2" y="708.1" class="st6" width="65.4" height="59.7"/>
	<rect x="1532.9" y="595.3" class="st6" width="55.4" height="65.3"/>
	<rect x="1267.3" y="411.4" class="st7" width="86.9" height="90.8"/>
	<path class="st6" d="M380,587.6c30.2-14.3,71.2,8.8,91.4,51.6c20.3,42.8,12.2,89.1-18,103.4c-30.2,14.3-71.2-8.8-91.4-51.6
		S349.8,601.9,380,587.6"/>
	<path class="st6" d="M609.7,592.5c24.7,22.5,19,69.2-12.9,104.2c-31.8,35-77.7,45.2-102.5,22.7c-24.7-22.5-19-69.2,12.9-104.2
		C539,580.2,584.9,570,609.7,592.5"/>
	<path class="st6" d="M562.6,865.8c-18.9,19.4-55.4,14.6-81.6-10.8c-26.2-25.4-32.1-61.8-13.3-81.2c18.9-19.4,55.4-14.6,81.6,10.8
		C575.5,809.9,581.4,846.3,562.6,865.8"/>
	<path class="st6" d="M606.2,785.8c-12.5,23.2-49,32.5-81.4,20.8c-32.5-11.7-48.7-40.1-36.2-63.3s49-32.5,81.4-20.8
		C602.5,734.2,618.7,762.6,606.2,785.8"/>
	<path class="st6" d="M297.2,737.3c6.6-25.2,39-38.6,72.4-29.9c33.4,8.7,55.2,36.2,48.6,61.5c-6.6,25.2-39,38.6-72.4,29.9
		C312.4,790.1,290.6,762.5,297.2,737.3"/>
	<path class="st6" d="M342.3,689.2c-7.7,10.9-26.7,10.8-42.4-0.3c-15.7-11.1-22.1-28.9-14.4-39.9c7.7-10.9,26.7-10.8,42.4,0.3
		C343.6,660.4,350,678.3,342.3,689.2"/>
	<path class="st6" d="M431.4,810.6c6.7,12.5-4.5,31.6-25.1,42.7c-20.6,11.1-42.7,10-49.4-2.4c-6.7-12.5,4.5-31.6,25.1-42.7
		C402.5,797,424.6,798.1,431.4,810.6"/>
	<polygon class="st6" points="464.2,670.8 391.1,717.9 373.1,777.7 476.1,835.5 542.8,802.5 539.7,706.2 	"/>
	<path class="st6" d="M365.2,801.5c0,0,29.5-5.6,12.8,11.9C361.3,831,393.6,830,393.6,830s37.5-2.1,38.3-3.2
		c0.3-0.4,2.6-0.1,5.3,0.4c5.6,1.1,10.6,3.9,14.5,8c8.3,8.8,25.5,25.2,44.4,31.9c26.4,9.4,44.9-11,42.7-35.4
		c-2.3-24.4-47.5-70.9-85.8-76.3C414.8,750,344.1,752.8,365.2,801.5"/>
	<path class="st8" d="M458.7,985.6c-1.3,0-2.5-0.6-3.3-1.8c-0.9-1.4-1.1-1.7,0.3-125.2c0.4-33.5,0.8-66.9,1-90.3l-28.7-21
		c-1.7-1.3-2.1-3.7-0.9-5.4c1.3-1.7,3.7-2.1,5.4-0.9l24.3,17.7c0.2-13.9,0.3-22.5,0.3-22.5c0-2.1,1.8-3.8,3.9-3.8s3.8,1.8,3.8,3.9
		c-0.1,8.3-0.2,18.3-0.4,29.4c0.1,0.4,0.1,0.8,0,1.2c-0.1,9.9-0.2,20.7-0.4,31.9l46.5-17.7c2-0.8,4.2,0.2,5,2.2c0.8,2-0.2,4.2-2.2,5
		L464,807.2c-0.9,75.2-1.8,168.1-1.5,173.9c0.2,1.5-0.4,3-1.8,3.9C460.1,985.4,459.4,985.6,458.7,985.6 M462.5,981.2L462.5,981.2
		L462.5,981.2z M462,979.7L462,979.7L462,979.7 M462,979.7L462,979.7L462,979.7"/>
	<path class="st7" d="M529.3,957.1H387.8v92.5c0,17.6,14.2,31.8,31.8,31.8h77.9c17.6,0,31.8-14.2,31.8-31.8V957.1z"/>
	<path class="st1" d="M1223,1142.8c1.9,4.2,6.8,8.7,12.8,13H826c-11.1-14-15.8-22.7-25.5-28.6c-10.5-6.3-131.7-48.4-131.2-65.6
		s-1-42-1-42s-66.7,1.2-65.1-2.8c1.6-4,70-11.9,87.1-5.8c17.1,6.1,39.6,18.8,28.4,42.5c0,0,73.8,26,111.3,31.1
		c37.4,5.1,74.9,9.8,85.1,8.5c10.2-1.2,44,35.4,129.2,23.9s120,6.7,150.1-3.5s61.8-5.5,72.5-7.3c10.6-1.8,14.2,31.1,14.2,31.1
		S1216.6,1128.7,1223,1142.8"/>
	<g class="st9">
		<g>
			<g>
				<defs>
					<rect id="SVGID_3_" x="826" y="1155.8" width="733.9" height="128.2"/>
				</defs>
				<clipPath id="SVGID_4_">
					<use xlink:href="#SVGID_3_"  style="overflow:visible;"/>
				</clipPath>
				<path class="st10" d="M1559.8,1255.3c0,0-50.4,11.6-117,1.4c0,0-134.5,34.9-168.2,25.7c-33.7-9.2-105.5-70.4-109.5-91.1
					c0,0-109.5-29.1-153.9-29.3c-44.4-0.2-69.8,4.8-69.8,4.8s-99.4,8.6-112.6-7.5c-1-1.2-1.9-2.4-2.9-3.5h409.8
					c14,10,33.9,18.7,33.9,18.7l7.2,34.3c0,0-64.8-23.8-47.9-7.5s40.3,33.2,55.9,31.6s28.4,25.7,77.1,16.7c48.8-9,81.7-18,115.5-7
					C1511.2,1253.6,1559.8,1255.3,1559.8,1255.3"/>
			</g>
		</g>
	</g>
	<rect x="1333" y="950.7" class="st11" width="91.1" height="66.8"/>
	<g>
		<g>
			<defs>
				<rect id="SVGID_5_" x="1333" y="950.7" width="91.1" height="66.8"/>
			</defs>
			<clipPath id="SVGID_6_">
				<use xlink:href="#SVGID_5_"  style="overflow:visible;"/>
			</clipPath>
			<path class="st12" d="M1397.8,936.7c0,0-6.7-0.3-1.8,12.6c4.9,12.9-25.3,54.2-18.2,75.2c7.2,21,27.1,1.2,27.1,1.2l3-21.1
				l-1.3-54.5L1397.8,936.7z"/>
		</g>
	</g>
	<path class="st11" d="M1440.6,910.8c35.4-18.1,82.9-4.4,97.4,32.6c17.3,44.5-16.5,84.3-53.8,98.2s-76.7,15.4-88.2-24.3
		C1385.1,980,1399.5,931.9,1440.6,910.8"/>
	<path class="st6" d="M1486.1,1019.5c0,0,10.2-1.8,12.4,4.7c2.2,6.5,0.9,9.8,5.2,10.5C1509.6,1035.8,1504.4,1012.8,1486.1,1019.5"/>
	<path class="st11" d="M905.5,910.8c-0.3-0.7-49.5-67.5-82.9-163.1c-17.8-51.2-19.8-106.6-5.8-159c14.1-52.8,29.8-129.3,22.6-187.8
		c0,0-11.7-76.6-98.4-77.1c0,0,1.5-30,71.2-20.9c69.6,9.1,89.8,12.4,91.4,27.9c1.6,15.5-29.2,34.2-15.4,104.6
		c10.5,53.3-2.7,146.6-9.7,188.8c-2.4,14.1,0.8,28.6,8.8,40.4c23.9,35.2,75.5,111.9,100.6,155.1C1021.1,877,905.9,911.7,905.5,910.8
		"/>
	<path class="st11" d="M913.6,923.8c0.6,1.3-34.2,242.5-34.6,243.3s-174.3,9.3-203.3,11.7c-29,2.4-36.2-15.5-50.9-16.9
		s-17.6,27.4-53.7,45.1c-36,17.7-84.3,40.6-61.9,48.7c22.4,8,58.7-0.6,96.3-10.6c37.6-10,78.2-12.6,78.2-12.6s100.9-14.7,208.8,1.7
		c25.5,3.9,50.5-9.7,61-33.3c21.2-47.6,52.9-126.1,57.2-179.4C1017.4,940.5,912.9,922.5,913.6,923.8"/>
	<g>
		<g>
			<defs>
				<path id="SVGID_7_" d="M913.6,923.8c0.6,1.3-34.2,242.5-34.6,243.4c-0.3,0.8-174.3,9.3-203.3,11.7c-29,2.4-36.2-15.5-50.9-16.9
					s-17.6,27.4-53.7,45.1c-36,17.7-84.3,40.6-61.9,48.7c22.4,8,58.7-0.6,96.3-10.6c37.6-10,78.2-12.6,78.2-12.6
					s100.9-14.7,208.8,1.7c25.5,3.9,50.5-9.7,61-33.3c21.2-47.6,52.9-126.1,57.2-179.4c6.3-78.4-91.1-97.8-97-97.8
					C913.7,923.8,913.6,923.8,913.6,923.8"/>
			</defs>
			<clipPath id="SVGID_8_">
				<use xlink:href="#SVGID_7_"  style="overflow:visible;"/>
			</clipPath>
			<path class="st13" d="M920.1,909.8c0,0-18.4,77.4,35.9,137.3c54.3,59.9,69.1,71.7,69.1,71.7l22.5-96.4L920.1,909.8z"/>
		</g>
	</g>
	<path class="st11" d="M1499.6,1034.3c0,0-11.3,2.6-16,13.9c-4.6,11.4-17.5,4.5-16.9-5.6C1467.3,1032.2,1499.6,1034.3,1499.6,1034.3
		"/>
	<path class="st6" d="M1489.9,831c17.6-18.8,48.3-18.8,68.4,0.1c20.1,18.9,22.2,49.4,4.6,68.2s-48.3,18.8-68.4-0.1
		C1474.3,880.3,1472.3,849.8,1489.9,831"/>
	<path class="st6" d="M1429.1,871c37-22.3,83.9-12.2,104.8,22.4c20.9,34.6,7.8,80.8-29.2,103.1s-83.9,12.2-104.8-22.4
		C1379.1,939.4,1392.1,893.2,1429.1,871"/>
	<path class="st6" d="M1528.7,901.9c24,0,43.4,25.2,43.4,56.2s-19.5,56.2-43.4,56.2c-24,0-43.4-25.2-43.4-56.2
		C1485.3,927.1,1504.7,901.9,1528.7,901.9"/>
	<path class="st0" d="M1468.3,1122c-6.4,0-13.2-3.5-15.8-8.8c-2.3-4.6-0.8-9.4,4.1-13.3c5.9-4.6,12.6-10.9,12.3-17.8
		c-0.3-5.6-5.1-11.5-14.4-17.4c-9.9-6.3-14.5-14.1-13.1-22c1.9-10.9,15.1-20.4,34.4-24.7c8.5-1.9,14.9-5,19.8-8.5
		c-6.2-5.9-9.4-11.5-9.5-11.7c-0.4-0.7-0.1-1.7,0.6-2.1c0.7-0.4,1.7-0.1,2.1,0.6c0.3,0.6,3.3,5.9,9.1,11.3
		c10.5-8.7,12.3-19.1,12.4-19.7c0.1-0.8,0.9-1.4,1.8-1.3c0.8,0.1,1.4,0.9,1.3,1.8c0,0.2-2,11.6-13.2,21.2
		c9.4,7.9,24.7,14.7,45.8,5.5c21-9.2,27.6-34.9,26.9-54.2c-0.8-20.6-8.8-37.6-21-45.5c-0.6,0.2-1.2,0.4-1.9,0.5
		c-0.8,0.2-1.7-0.3-1.9-1.1c-0.1-0.5,0-1,0.3-1.4c-1-0.5-1.9-0.9-2.9-1.2c-0.8-0.3-1.2-1.2-0.9-2c0.3-0.8,1.2-1.2,2-0.9
		c2,0.7,3.9,1.6,5.8,2.7c11.7-3.8,19.9-10,24.5-18.7c5.4-10.1,5.7-23.7,0.8-38.2c-2.4-7.1-7-12.2-12.2-15.8c0.8,3.9,0.9,8,0.5,12.1
		c-0.6,5.8-3.4,10.5-8.2,13.9c-19.9,13.9-68.6,2-70.7,1.5c-0.8-0.2-1.3-1-1.1-1.9c0.2-0.8,1.1-1.3,1.9-1.1
		c0.5,0.1,49.5,12.1,68.2-1.1c4.1-2.9,6.4-6.7,6.9-11.6c0.5-4.9,0.1-9.7-1.2-14.2c-9.7-5.5-19.9-6.7-20.1-6.7
		c-0.8-0.1-1.5-0.9-1.4-1.7s0.9-1.4,1.7-1.4c0.3,0,7.8,0.9,16.3,4.6c0.7,0.3,1.3,0.6,2,0.9c-3.1-7.4-8.5-13.9-15.8-18.4
		c-14.4-8.8-32.7-7.8-49,2.8c-34.9,22.7-22.7,47.8-22.1,48.9c0.4,0.8,0.1,1.7-0.7,2.1c-0.8,0.4-1.7,0.1-2.1-0.7
		c-0.1-0.3-14.1-28.7,23.2-52.9c17.3-11.2,36.9-12.3,52.3-2.8c9,5.5,15.3,13.8,18.3,23.2c8.1,4.9,13.7,11.4,16.3,19.3
		c5.1,15.3,4.8,29.8-1,40.7c-4.7,8.8-12.8,15.3-24,19.4c11.9,8.9,19.7,26.1,20.4,46.6c1,26.7-10.3,49.1-28.7,57.2
		c-22.6,9.9-39.2,2.1-49.3-6.5c-5.2,3.9-12.2,7.4-21.4,9.4c-17.8,4-30.4,12.7-32,22.2c-1.2,6.6,2.9,13.2,11.8,18.9
		c10.3,6.6,15.4,13.1,15.8,19.8c0.4,8.4-7,15.3-13.4,20.4c-3.7,2.9-4.8,6.2-3.2,9.5c2.5,5,10.2,8.2,16.3,6.7
		c0.8-0.2,1.7,0.3,1.9,1.1c0.2,0.8-0.3,1.7-1.1,1.9C1471.1,1121.9,1469.7,1122,1468.3,1122"/>
	<path class="st6" d="M891.3,382.2c0,0-64.1,14.7-64.8,15.8c-0.7,1.1-16.6,36.7,9.8,58l61-10.8C897.4,445.2,917.1,403.9,891.3,382.2
		"/>
	<path class="st6" d="M652.6,1174c0,0-31.9,24.9-2.4,69.6l48.3-2.3c0,0,16.4-15.9,5.8-66.7L652.6,1174z"/>
	<path class="st6" d="M1490.1,1027.4c2.6,0,4.6,2,4.6,4.5s-2.1,4.5-4.6,4.5c-2.6,0-4.6-2-4.6-4.5S1487.5,1027.4,1490.1,1027.4"/>
	<path class="st14" d="M1252.2,1016.3c0,0,2,124.6,2.9,182.6c0.1,7.2,3.4,14,9,18.6s12.9,6.5,20,5.2c42.2-7.6,116.5-21.1,116.9-22
		c0.7-1.2,48.1,8,48.1,8s53.2,2.4,58.6-4.9l-35-5.8c0,0,55,3.7,56.3-6.5c0,0,4.1-1.2,4.8-6.1c0,0-35.6-4.2-35.5-4.3
		c0.1-0.2-47.3-8.9-58.6-10.8c-11.3-1.9-137,11.3-137,11.3s1-15.4,2.2-33.1c1.9-28,6.2-55.7,13-82.9c8.3-33.2,15-81.9-13.4-93
		C1260.6,955.3,1251,1001.3,1252.2,1016.3"/>
	<path class="st7" d="M1085.8,934.9c0,0,227-12.3,256.2,18.2c29.3,30.5,15.7,126.5-56.9,150.1c-19.6,6.4-28.8,18.8-58.9,7.9
		c-26.6-9.6-27.2-29.9-26.9-30.5c0.4-0.9-223-10.8-283.8-151.3C915.5,929.3,1021.4,973.2,1085.8,934.9"/>
	<g>
		<g>
			<defs>
				<path id="SVGID_9_" d="M1199.4,1080.6c-0.3,0.6,0.3,20.9,26.9,30.5c30.1,10.9,39.3-1.5,58.9-7.9
					c72.6-23.7,86.2-119.6,56.9-150.1c-29.3-30.5-256.2-18.2-256.2-18.2c-64.4,38.3-170.3-5.6-170.3-5.6
					C976.4,1069.8,1199.8,1079.8,1199.4,1080.6"/>
			</defs>
			<clipPath id="SVGID_10_">
				<use xlink:href="#SVGID_9_"  style="overflow:visible;"/>
			</clipPath>
			<path class="st15" d="M1128.3,1081.3c0,0,31.8-93.6,10.4-149.8c0,0-71.5-43.7-139.6,97.8L1128.3,1081.3z"/>
		</g>
	</g>
	<path class="st5" d="M1280.8,1030.4c-0.2,0-0.4,0-0.6-0.1c-68.1-28.9-135.7-26.9-136.4-26.9c-0.9,0.1-1.6-0.6-1.6-1.5
		s0.6-1.6,1.5-1.6c0.7,0,69-2,137.7,27.1c0.8,0.3,1.2,1.2,0.8,2C1282,1030.1,1281.4,1030.4,1280.8,1030.4 M1284.2,1019.9
		c-0.2,0-0.4,0-0.6-0.1c-68.1-28.9-135.7-26.9-136.4-26.9c-0.9,0.1-1.6-0.6-1.6-1.5s0.6-1.6,1.5-1.6c0.7,0,69-2,137.7,27.1
		c0.8,0.3,1.2,1.2,0.8,2C1285.3,1019.5,1284.8,1019.9,1284.2,1019.9 M1337.9,1016.5c-0.4,0-0.8-0.2-1.1-0.5c-0.6-0.6-0.6-1.6,0-2.2
		c0,0,4.4-4.3,8.1-12.3c3.4-7.3,6.8-19.3,3.9-34.8c-0.2-0.8,0.4-1.6,1.2-1.8c0.9-0.2,1.6,0.4,1.8,1.2c5.7,31.5-12.1,49.1-12.9,49.9
		C1338.7,1016.3,1338.3,1016.5,1337.9,1016.5"/>
	<path class="st5" d="M1528,995.3c-1.6,0-3.2-0.1-4.8-0.3c-13.4-1.4-23.7-12.8-29.9-32.8c-4.5-14.7-5.3-28.8-5.3-29.3
		c-0.1-1.3,0.9-2.4,2.2-2.4c1.3,0,2.4,0.9,2.4,2.2c0,0.5,3.1,54.8,31.1,57.8c28.2,3,39.1-23.8,39.6-24.9c0.5-1.2,1.8-1.8,3-1.3
		s1.8,1.8,1.3,3C1567.5,967.5,1556.2,995.3,1528,995.3 M1524.6,899.5c-15.6,0-28.3-7.1-29.1-7.5c-1.1-0.6-1.5-2-0.9-3.2
		c0.6-1.1,2.1-1.5,3.2-0.9c0.3,0.1,26.3,14.6,48.1,1c21.1-13.1,10.2-32.8,9.7-33.6c-0.6-1.1-0.2-2.5,0.9-3.2
		c1.1-0.6,2.5-0.3,3.2,0.9c0.1,0.2,13.6,24.3-11.3,39.9C1540.5,897.9,1532.2,899.5,1524.6,899.5 M1542.4,841c-0.4,0-0.7-0.1-1.1-0.3
		c-0.1-0.1-12.6-6.6-20.3-2.8c-1.2,0.6-2.5,0.1-3.1-1.1c-0.6-1.1-0.1-2.5,1.1-3.1c9.9-4.9,24,2.6,24.6,2.9c1.1,0.6,1.6,2,1,3.1
		C1544.1,840.5,1543.3,841,1542.4,841"/>
	<path class="st11" d="M1273.6,1057.1c0,0,2.3,133.4,3.3,193.5c0.1,7.2,3.4,13.9,8.9,18.5s12.8,6.5,19.9,5.3
		c46.5-7.9,133.9-22.8,134.5-23.7c0.8-1.3,53.9,8.4,53.9,8.4s65,4.8,69.1-7.2l-54.4-5.2c0,0,73.2,4.9,74.7-5.7c0,0,4.6-1.2,5.3-6.4
		c0,0-39.9-4.4-39.7-4.5c0.2-0.2-52.9-9.3-65.6-11.3s-153.3,11.8-153.3,11.8s1.1-15.9,2.5-34.2c2.1-29.6,7-58.9,14.7-87.6
		c9.3-34.8,16.7-85.9-15.1-97.6C1282.9,993.1,1272.2,1041.3,1273.6,1057.1"/>
	<path class="st6" d="M1089.8,935.1c0,0-31.4,55-76.6,93.1c0,0-104.1-30.9-98.7-102.9l-13-17.3c0,0,87.4-55.7,85.8-89.8
		C987.3,818.2,1086.2,825.2,1089.8,935.1"/>
	<path class="st16" d="M914.7,925.1c0,0,14.7,52.6,84.8,94.1"/>
	<path class="st0" d="M1588.3,1236.8c-0.1,0-0.2,0-0.2,0c-0.9-0.1-90.7-14.3-106.4-16c-15.6-1.6-150.8,11.9-152.2,12.1
		c-0.9,0.1-1.6-0.5-1.7-1.4s0.5-1.6,1.4-1.7c5.6-0.6,136.9-13.7,152.8-12.1c15.8,1.7,105.7,15.9,106.6,16c0.8,0.1,1.4,0.9,1.3,1.8
		C1589.7,1236.3,1589.1,1236.8,1588.3,1236.8"/>
	<path class="st0" d="M1583.4,1241.5c-0.1,0-0.1,0-0.2,0l-64.7-8.4c-0.8-0.1-1.4-0.9-1.3-1.7c0.1-0.8,0.9-1.5,1.7-1.3l64.7,8.4
		c0.8,0.1,1.4,0.9,1.3,1.7C1584.8,1240.9,1584.1,1241.5,1583.4,1241.5"/>
	<path class="st0" d="M1562,1253.4c-0.1,0-0.1,0-0.2,0l-52.3-5.3c-0.8-0.1-1.5-0.8-1.4-1.7c0.1-0.8,0.8-1.4,1.7-1.4l52.3,5.3
		c0.8,0.1,1.5,0.8,1.4,1.7C1563.4,1252.8,1562.8,1253.4,1562,1253.4"/>
	<path class="st0" d="M1533.3,1187.2c-1.9,0-12.8-1.7-95.2-15c-17.3-0.5-92.5,7.9-93.3,8s-1.6-0.5-1.7-1.4c-0.1-0.8,0.5-1.6,1.4-1.7
		c3.1-0.3,76.7-8.5,93.8-8c0.1,0,0.1,0,0.2,0c31.6,5.1,91.7,14.8,94.5,15c0.5,0,1.1,0.3,1.3,0.8c0.4,0.8,0.1,1.7-0.7,2.1
		C1533.6,1187.2,1533.6,1187.2,1533.3,1187.2"/>
	<path class="st0" d="M1527.9,1193c-0.1,0-0.1,0-0.2,0l-73-10.6c-0.8-0.1-1.4-0.9-1.3-1.8c0.1-0.8,0.9-1.4,1.8-1.3l73,10.6
		c0.8,0.1,1.4,0.9,1.3,1.8C1529.3,1192.5,1528.7,1193,1527.9,1193"/>
	<path class="st0" d="M1458.4,1211.5c-2.8,0-5.3-0.1-7.3-0.2c-8.3-0.6-20.4-3.1-29-5.1c-10.8-2.5-15.1-3.7-16.9-4.4c0,0,0,0-0.1,0
		l0,0c-1.1-0.4-1.2-0.6-1.3-0.9c-0.2-0.5-0.2-1.1,0.2-1.6c0.3-0.5,1-0.7,1.5-0.6c0.2,0,0.4,0.1,0.6,0.2c3.1,1,30.6,8.3,45.2,9.3
		c14.3,1,45.2-1.8,54.4-3.8c-7.9-2.2-31.4-5.4-35.6-5.2c-0.9,0.1-1.6-0.6-1.6-1.5s0.6-1.6,1.5-1.6c0,0,0,0,0.1,0
		c2.6,0,37.9,3.6,40.4,7.3c0.4,0.6,0.4,1.2,0.2,1.8c-0.4,0.9-1.2,2.8-24.7,4.9C1476,1211,1466,1211.5,1458.4,1211.5"/>
	<path class="st0" d="M477,554.4c-0.1,0-0.2,0-0.2,0c-0.8-0.1-1.4-0.9-1.3-1.8c3.7-24.1,8.5-47.4,14.3-69.3c0.2-0.8,1.1-1.3,1.9-1.1
		c0.8,0.2,1.3,1.1,1.1,1.9c-5.8,21.8-10.6,45-14.2,69C478.4,553.9,477.8,554.4,477,554.4"/>
	<path class="st0" d="M512,422.4c-0.2,0-0.4,0-0.6-0.1c-0.8-0.3-1.2-1.2-0.9-2c1.8-4.4,3.6-8.8,5.5-13.1c0.3-0.8,1.3-1.1,2-0.8
		c0.8,0.3,1.1,1.3,0.8,2c-1.9,4.3-3.7,8.6-5.5,13C513.2,422,512.6,422.4,512,422.4"/>
	<path class="st0" d="M552,345.5c-0.3,0-0.6-0.1-0.9-0.3c-0.7-0.5-0.9-1.4-0.4-2.1c30.2-45.8,68.6-83,114.2-110.7
		c36.5-22.1,77.5-38.2,122.1-47.8c75.9-16.3,136.4-8.1,137-8c0.8,0.1,1.4,0.9,1.3,1.7c-0.1,0.8-0.9,1.4-1.7,1.3
		c-0.6-0.1-60.7-8.3-136,8c-44.2,9.5-85,25.5-121.1,47.5c-45.2,27.4-83.3,64.4-113.2,109.8C553,345.3,552.5,345.5,552,345.5"/>
	<path class="st0" d="M728.5,919.6c-8.2,0-12.3-6.3-15.9-11.9c-3.4-5.2-6.3-9.8-12-9.8s-8.6,4.5-12,9.8c-3.6,5.6-7.7,11.9-15.9,11.9
		s-12.3-6.3-15.9-11.9c-3.4-5.2-6.3-9.8-12-9.8s-8.6,4.5-12,9.8c-3.6,5.6-7.6,11.9-15.9,11.9c-8.2,0-12.3-6.3-15.9-11.9
		c-3.4-5.2-6.3-9.8-12-9.8v-4.6c8.2,0,12.3,6.3,15.9,11.9c3.4,5.2,6.3,9.8,12,9.8s8.6-4.5,12-9.8c3.6-5.6,7.6-11.9,15.9-11.9
		c8.2,0,12.3,6.3,15.9,11.9c3.4,5.2,6.3,9.8,12,9.8s8.6-4.5,12-9.8c3.6-5.6,7.7-11.9,15.9-11.9s12.3,6.3,15.9,11.9
		c3.4,5.2,6.3,9.8,12,9.8s8.6-4.5,12-9.8c3.6-5.6,7.7-11.9,15.9-11.9v4.6c-5.7,0-8.6,4.5-12,9.8
		C740.8,913.3,736.7,919.6,728.5,919.6"/>
	<path class="st17" d="M728.5,952.2c-7.8,0-11.8-6.1-15.2-11.5c-3.3-5.2-6.5-10.1-12.6-10.1s-9.3,4.9-12.6,10.1
		c-3.5,5.4-7.4,11.5-15.2,11.5s-11.8-6.1-15.2-11.5c-3.3-5.2-6.5-10.1-12.6-10.1s-9.3,4.9-12.6,10.1c-3.5,5.4-7.4,11.5-15.2,11.5
		s-11.8-6.1-15.2-11.5c-3.3-5.2-6.5-10.1-12.6-10.1v-3.1c7.8,0,11.8,6.1,15.2,11.5c3.3,5.2,6.5,10.1,12.6,10.1s9.3-4.9,12.6-10.1
		c3.5-5.4,7.4-11.5,15.2-11.5s11.8,6.1,15.2,11.5c3.3,5.2,6.5,10.1,12.6,10.1s9.3-4.9,12.6-10.1c3.5-5.4,7.4-11.5,15.2-11.5
		s11.8,6.1,15.2,11.5c3.3,5.2,6.5,10.1,12.6,10.1s9.3-4.9,12.6-10.1c3.5-5.4,7.4-11.5,15.2-11.5v3.1c-6.1,0-9.3,4.9-12.6,10.1
		C740.3,946.1,736.3,952.2,728.5,952.2"/>
	<path class="st0" d="M1631.5,393.4c-8.2,0-12.3-6.3-15.9-11.9c-3.4-5.2-6.3-9.8-12-9.8s-8.6,4.5-12,9.8
		c-3.6,5.6-7.7,11.9-15.9,11.9c-8.2,0-12.3-6.3-15.9-11.9c-3.4-5.2-6.3-9.8-12-9.8s-8.6,4.5-12,9.8c-3.6,5.6-7.6,11.9-15.9,11.9
		c-8.2,0-12.3-6.3-15.9-11.9c-3.4-5.2-6.3-9.8-12-9.8v-4.6c8.2,0,12.3,6.3,15.9,11.9c3.4,5.2,6.3,9.8,12,9.8s8.6-4.5,12-9.8
		c3.6-5.6,7.6-11.9,15.9-11.9c8.2,0,12.3,6.3,15.9,11.9c3.4,5.2,6.3,9.8,12,9.8s8.6-4.5,12-9.8c3.6-5.6,7.7-11.9,15.9-11.9
		c8.2,0,12.3,6.3,15.9,11.9c3.4,5.2,6.3,9.8,12,9.8s8.6-4.5,12-9.8c3.6-5.6,7.7-11.9,15.9-11.9v4.6c-5.7,0-8.6,4.5-12,9.8
		C1643.8,387,1639.7,393.4,1631.5,393.4"/>
	<path class="st17" d="M1631.5,426c-7.8,0-11.8-6.1-15.2-11.5c-3.3-5.2-6.5-10.1-12.6-10.1s-9.3,4.9-12.6,10.1
		c-3.5,5.4-7.4,11.5-15.2,11.5c-7.8,0-11.8-6.1-15.2-11.5c-3.3-5.2-6.5-10.1-12.6-10.1s-9.3,4.9-12.6,10.1
		c-3.5,5.4-7.4,11.5-15.2,11.5c-7.8,0-11.8-6.1-15.2-11.5c-3.3-5.2-6.5-10.1-12.6-10.1v-3.1c7.8,0,11.8,6.1,15.2,11.5
		c3.3,5.2,6.5,10.1,12.6,10.1s9.3-4.9,12.6-10.1c3.5-5.4,7.4-11.5,15.2-11.5c7.8,0,11.8,6.1,15.2,11.5c3.3,5.2,6.5,10.1,12.6,10.1
		s9.3-4.9,12.6-10.1c3.5-5.4,7.4-11.5,15.2-11.5s11.8,6.1,15.2,11.5c3.3,5.2,6.5,10.1,12.6,10.1s9.3-4.9,12.6-10.1
		c3.5-5.4,7.4-11.5,15.2-11.5v3.1c-6.1,0-9.3,4.9-12.6,10.1C1643.3,419.8,1639.3,426,1631.5,426"/>
	<path class="st0" d="M1087.9,798.7c-30.6,0-55.4-24.9-55.4-55.4c0-30.6,24.9-55.4,55.4-55.4c4.6,0,9.2,0.6,13.6,1.7l-0.8,3
		c-4.2-1.1-8.5-1.6-12.8-1.6c-28.8,0-52.3,23.5-52.3,52.3s23.5,52.3,52.3,52.3s52.3-23.5,52.3-52.3c0-6.2-1.1-12.3-3.2-18l2.9-1.1
		c2.2,6.1,3.4,12.5,3.4,19.1C1143.3,773.8,1118.5,798.7,1087.9,798.7"/>
	<path class="st0" d="M1122.8,704.3c-1.4-1.2-2.8-2.4-4.3-3.5l1.8-2.5c1.6,1.1,3.1,2.4,4.6,3.7L1122.8,704.3z"/>
</g>
</svg>
