<?xml version="1.0" encoding="utf-8"?>
<!-- Generator: Adobe Illustrator 23.0.3, SVG Export Plug-In . SVG Version: 6.00 Build 0)  -->
<svg version="1.1" id="圖層_1" xmlns="http://www.w3.org/2000/svg" xmlns:xlink="http://www.w3.org/1999/xlink" x="0px" y="0px"
	 viewBox="0 0 360 65.2" style="enable-background:new 0 0 360 65.2;" xml:space="preserve">
<style type="text/css">
	.st0{fill:#716964;}
	.st1{fill:#F8CFC5;}
	.st2{fill:#C78A7C;}
	.st3{fill:#D5A498;}
	.st4{fill:#FFD2C8;}
</style>
<g>
	<g>
		<path class="st0" d="M137.5,53.9c-2.7-0.2-4.5-0.7-5.3-1.7c-0.8-1-1.3-2.1-1.3-3.5c0-1.6,0.3-3.4,1-5.6c0.6-2.2,1.5-4.6,2.5-7
			c1.1-2.4,2.2-5,3.5-7.4c-0.5,0-1.4,0.1-2.7,0.2c-1.2,0.1-2.4,0.2-3.6,0.3c-1.3,0.1-2.2,0.2-3,0.3c0.1-1.3,0.7-2.3,1.8-3.1
			c1.1-0.7,2.3-1.3,4-1.6c1.6-0.3,3.4-0.5,5.3-0.5c1.3-3.1,2.7-6.1,4-8.9s2.8-5.5,4.2-8c-0.3,0-0.6-0.1-1.1-0.1c-0.4,0-1,0-1.7,0
			c-3.1,0-5.5,0.3-7.2,0.8c-1.7,0.5-2.9,1.4-3.5,2.3c-0.6,1.1-1,2.2-1,3.7c0,1.1,0.1,2,0.4,2.9c0.2,0.8,0.6,1.8,1.2,2.9
			c-2.3-0.3-4-1-5.1-1.9c-1.1-1-1.5-2.1-1.5-3.6c0-2.2,1-4.1,3-5.8c1.9-1.7,4.6-3,7.9-4c3.3-1,7-1.5,11.2-1.5c2.7,0,5.4,0.1,8.1,0.4
			s5.2,0.4,7.5,0.4c1.3,0,2.4-0.1,3.6-0.2c1.2-0.1,2.5-0.4,4-0.7c-2.4,2.2-4.5,3.7-5.9,4.5c-1.6,0.7-3.1,1.2-4.6,1.2
			c-1.2,0-2.8-0.1-4.7-0.4c-1.9-0.3-4-0.4-6.3-0.6c-0.6,1.4-1.4,2.9-2.1,4.7c-0.7,1.8-1.5,3.7-2.3,5.7c-0.7,2-1.6,4.1-2.4,6.3
			c2.7,0.2,5,0.3,7.1,0.5c2.1,0.2,4.5,0.3,7,0.4c-0.6,0.6-1.3,1.2-1.9,1.6s-1.5,0.6-2.5,0.8c-1.1,0.2-2.4,0.3-4.2,0.4
			c-1.8,0.1-4.1,0.1-7,0.2c-0.4,1.3-0.8,2.5-1.3,3.8c-0.4,1.3-0.8,2.4-1.2,3.4c-0.3,1-0.5,1.5-0.6,1.7c-1.4,4-2.4,7.3-3,9.9
			C137.8,49.8,137.5,52,137.5,53.9z"/>
		<path class="st0" d="M163.5,47.8c-1.4,0-2.4-0.6-3.3-1.9s-1.3-2.8-1.3-4.4c0-1.2,0.2-2.4,0.5-3.9c0.3-1.5,0.8-3,1.4-4.5
			c0.5-1.5,1.2-2.7,1.8-3.6c0.6-1,1.2-1.5,1.7-1.5c0.3,0,0.7,0.1,1.3,0.4c0.5,0.3,1.1,0.6,1.5,1.1c-0.4,0.6-1,1.6-1.6,3
			c-0.6,1.3-1.2,2.8-1.7,4.2c-0.5,1.5-0.7,2.9-0.7,4.1c0,0.2,0,0.5,0.1,1.2s0.2,1.2,0.4,1.7c0.2,0.5,0.6,0.7,1.3,0.7
			c0.6,0,1.4-0.3,2.2-1.1c0.7-0.7,1.6-1.7,2.4-2.9c0.8-1.2,1.6-2.4,2.4-3.8c0.7-1.4,1.5-2.7,2.1-3.9c0.6-1.3,1.2-2.3,1.5-3.3
			c0.3,0,0.8,0.1,1.4,0.3c0.5,0.2,1.1,0.3,1.5,0.6c0.4,0.2,0.6,0.6,0.6,1.1c0,0.1-0.2,0.6-0.5,1.5c-0.4,0.8-0.8,1.9-1.3,3.1
			c-0.5,1.2-1,2.4-1.3,3.7c-0.4,1.3-0.5,2.3-0.5,3.3c0,0.5,0.1,1.1,0.3,1.5c0.2,0.4,0.6,0.6,1.3,0.6c0.8,0,1.8-0.4,3-1.2
			c1.2-0.7,2.3-1.9,3.6-3.3c1.3-1.5,2.3-3.2,3.3-5.2l0.8,0.7c-0.8,2.1-2,4.1-3.4,5.8c-1.4,1.7-2.9,3.1-4.5,4c-1.6,1-3.2,1.5-4.7,1.5
			c-1.2,0-2-0.3-2.7-0.8c-0.5-0.5-1-1.3-1.2-2.1c-0.2-0.8-0.3-1.7-0.3-2.7c0-0.2,0-0.4,0-0.6s0-0.4,0-0.5c-0.6,1.1-1.4,2.1-2.2,3.2
			c-0.8,1.1-1.7,1.9-2.5,2.5C165.4,47.4,164.4,47.8,163.5,47.8z"/>
		<path class="st0" d="M205.6,47.2c-1.6,0-2.8-0.4-3.6-1.2c-0.8-0.7-1.3-1.8-1.3-3c0-0.8,0.1-1.7,0.4-2.5c0.3-0.8,0.5-1.8,0.8-2.8
			c0.3-1,0.4-1.8,0.4-2.7c0-0.8-0.2-1.5-0.6-1.8c-0.4-0.3-1-0.5-1.5-0.5c-1.2,0-2.4,0.5-3.7,1.5s-2.4,2.2-3.7,3.7
			c-1.2,1.5-2.3,3.1-3.3,4.7c-1.1,1.6-1.9,3.1-2.7,4.4c-0.7,0-1.5-0.1-2.1-0.4c-0.6-0.2-1.3-0.7-1.7-1.4c0-0.2,0.3-0.8,0.7-1.8
			c0.4-1,0.8-2.2,1.4-3.7c0.5-1.4,1-2.9,1.4-4.5s0.6-3,0.6-4.2c0.3-0.3,0.7-0.6,1.3-1c0.5-0.3,1.2-0.5,1.8-0.5
			c1.4,0,2.1,0.6,2.1,1.8c0,0.5-0.1,1.2-0.3,2.1c-0.2,1-0.4,2-0.7,3.2c1.1-1.4,2.2-2.8,3.4-3.9c1.3-1.3,2.5-2.2,3.9-3.1
			c1.4-0.7,2.7-1.2,4-1.2c1.7,0,3,0.5,3.8,1.7c0.8,1.2,1.3,2.4,1.3,3.8c0,1.2-0.2,2.3-0.6,3.4c-0.4,1.1-0.7,2-1.2,3
			c-0.4,1-0.5,1.8-0.5,2.7c0,0.6,0.1,1.1,0.4,1.4c0.3,0.2,0.6,0.4,1,0.4c1,0,1.9-0.4,3-1.4c1.1-1,2-2.1,3-3.5c1-1.4,1.8-2.9,2.4-4.2
			l1.1,0.8c-0.8,2-1.8,3.7-2.9,5.4c-1.1,1.6-2.2,3-3.5,3.9C208.7,46.7,207.3,47.2,205.6,47.2z"/>
		<path class="st0" d="M246.7,57.3c-2.4,0-4.5-0.5-6.2-1.5c-1.7-1.1-2.5-2.5-2.5-4.5c0-1.3,0.4-2.3,1.2-3.4c0.7-1,1.9-1.7,3.4-2
			c-0.2,1.1-0.4,1.9-0.5,2.4c-0.1,0.5-0.1,1.1-0.1,1.6c0,1.6,0.4,2.9,1.3,3.7c0.8,0.8,2.2,1.4,4.1,1.4c1.4,0,2.5-0.2,3.6-0.7
			c1.1-0.4,2-1.1,2.9-1.9c0.8-0.8,1.6-1.8,2.1-2.9c0.6-1.1,1.2-2.2,1.6-3.5c0.4-1.3,0.8-2.5,1.2-3.9c0.6-2.5,1.2-5.1,1.5-7.5
			c0.3-2.4,0.7-4.5,1.3-5.9c-1.6,2.5-3.4,4.6-5.4,6.2c-2,1.6-4.5,2.3-7.1,2.3s-4.6-0.7-5.7-2.2c-1.2-1.5-1.7-3.3-1.7-5.5
			c0-1.5,0.2-3.1,0.5-4.9c0.4-1.7,0.8-3.5,1.4-5.3s1-3.6,1.4-5.3c0.4-1.7,0.5-3.2,0.5-4.6c0-1.2-0.2-2.2-0.7-3.1
			c-0.4-0.8-1.3-1.3-2.5-1.3c-1.1,0-2,0.3-2.8,1c-0.7,0.6-1.4,1.5-1.9,2.4s-0.8,2-1.1,3.2s-0.3,2.2-0.3,3.3c0,0.6,0,1.2,0.1,1.6
			c0.1,0.4,0.3,1.1,0.5,1.7c-2,0-3.4-0.4-4.1-1.4c-0.8-0.8-1.2-2-1.2-3.3c0-1.2,0.3-2.4,0.8-3.7c0.6-1.3,1.5-2.5,2.5-3.6
			c1.1-1.1,2.4-2,3.9-2.7c1.5-0.6,3.1-1.1,4.8-1.1c1.6,0,3,0.3,3.9,0.8c1.1,0.6,1.8,1.4,2.3,2.4c0.5,1,0.7,2.1,0.7,3.3
			c0,0.8-0.1,1.9-0.4,3.2s-0.7,2.9-1.3,4.9s-1.1,3.9-1.5,5.8c-0.4,1.8-0.6,3.5-0.6,5.1c0,1.7,0.3,3.1,1,4.1c0.6,1.1,1.7,1.6,3.3,1.6
			c1.4,0,2.7-0.4,3.9-1.2c1.3-0.7,2.3-1.8,3.5-3.2c1.1-1.4,2-2.9,3-4.6c0.8-1.7,1.6-3.5,2.3-5.5c0.5-1.5,1.1-3.2,1.6-5.1
			c0.5-1.9,1.2-3.7,1.7-5.5c0.6-1.8,1.3-3.3,2-4.5s1.5-1.7,2.2-1.7c0.4,0,1.1,0.2,1.8,0.6c0.7,0.4,1.5,1,2.2,1.7
			c-0.8,1.3-1.6,2.5-2.2,3.8c-0.6,1.2-1.2,2.5-1.7,3.9s-1.1,3.1-1.7,5c-0.5,1.9-1.2,4.2-1.9,6.9c-0.6,2.7-1.5,5.9-2.4,9.9
			c-0.5,2.1-1.1,4.2-1.8,6.4c-0.6,2.1-1.5,4.2-2.4,6.2s-2.1,3.7-3.4,5.3c-1.3,1.6-2.9,2.8-4.7,3.7S249.2,57.3,246.7,57.3z"/>
		<path class="st0" d="M274.7,47.9c-1.8,0-3.1-0.6-3.7-1.8c-0.6-1.2-1-2.4-1-3.9c0-1.3,0.2-2.5,0.6-3.9c0.4-1.4,1-2.5,1.7-3.7
			c0.7-1.2,1.5-2.1,2.3-2.8c0.8-0.7,1.7-1.1,2.7-1.1c0.3,0,0.6,0,1,0.1c0.4,0.1,0.6,0.2,0.8,0.4c-0.5,0.6-1,1.4-1.5,2.2
			c-0.5,0.8-1,1.8-1.4,2.8c-0.4,1-0.7,2-1,3c-0.2,1-0.3,1.9-0.3,2.8s0.1,1.5,0.4,2c0.3,0.5,0.8,0.7,1.6,0.7c0.7,0,1.7-0.4,2.8-1.3
			c1.1-0.8,2.1-1.8,3.1-3c-1.3-1.2-2.2-2.4-2.8-3.8c-0.5-1.4-0.8-3.1-0.8-5c0-0.8,0.2-1.8,0.6-2.9c0.4-1.1,1.1-2,2-2.9
			c1-0.8,2.2-1.2,3.8-1.2c1.7,0,3,0.5,3.6,1.5c0.7,1,1.1,2.1,1.1,3.4c0,1.5-0.4,3.2-1.2,5c-0.7,1.8-1.7,3.6-2.8,5.2
			c0.5,0.2,1.1,0.3,1.7,0.3c0.6,0,1.3-0.1,2.1-0.4c0.8-0.3,1.7-0.7,2.4-1.4c0.8-0.6,1.5-1.6,1.9-2.7l1.1,0.7c-0.8,2-2,3.5-3.5,4.5
			c-1.5,1-2.9,1.4-4.2,1.4c-0.5,0-1.1,0-1.6-0.1c-0.5-0.1-1-0.2-1.5-0.4c-1.4,1.6-3,3-4.7,4.2C278.2,47.3,276.5,47.9,274.7,47.9z
			 M284.1,38.6c1-1.4,1.8-2.9,2.4-4.5c0.6-1.6,1.1-3.1,1.1-4.5c0-1-0.1-1.6-0.4-2c-0.3-0.4-0.7-0.6-1.3-0.6c-0.7,0-1.6,0.5-2.3,1.6
			c-0.8,1.1-1.2,2.4-1.2,4.1c0,0.8,0.1,1.9,0.4,3.1C283.2,37,283.6,38,284.1,38.6z"/>
		<path class="st0" d="M296,62.8c-1,0-1.9-0.3-2.8-0.8c-0.8-0.5-1.3-1.6-1.3-3c0-1.3,0.3-2.4,1.1-3.5c0.7-1.1,1.7-2,3-2.9
			c1.3-0.8,2.5-1.7,3.9-2.3c1.4-0.7,2.8-1.4,4.1-2c0.4-1.1,0.8-2.2,1.3-3.5c0.4-1.3,0.7-2.5,1.2-4c-1.4,1.8-2.9,3.2-4.5,4.4
			c-1.6,1.2-3.1,1.7-4.7,1.7c-1.6,0-2.9-0.5-3.8-1.7c-1-1.2-1.4-2.7-1.4-4.5c0-2.1,0.5-4.1,1.6-5.9c1.1-1.8,2.4-3.5,4.1-5
			c1.7-1.5,3.5-2.7,5.4-3.4c1.9-0.8,3.7-1.3,5.5-1.3c1.3,0,2.2,0.2,2.9,0.7c0.6,0.4,1,1,1,1.6c0,0.5-0.1,0.8-0.4,1.2
			c-0.3,0.3-0.4,0.4-0.5,0.5c-0.4-0.4-0.8-0.7-1.3-0.8c-0.4-0.1-1-0.2-1.5-0.2c-1.6,0-3.1,0.4-4.5,1.3c-1.5,0.8-2.8,2-3.8,3.4
			c-1.1,1.4-2,2.9-2.7,4.2c-0.6,1.5-1,2.9-1,4c0,0.8,0.2,1.4,0.5,1.8c0.3,0.4,0.8,0.6,1.3,0.6c1.2,0,2.4-0.7,4.1-2.2
			c1.6-1.5,3.2-3.2,4.7-5.3c0.1-0.3,0.1-0.6,0.2-0.8c0.1-0.2,0.1-0.5,0.1-0.7c0.4-1.6,0.8-2.8,1.5-3.5c0.5-0.7,1.4-1.2,2.3-1.2
			c0.2,0,0.4,0,0.7,0.1c0.3,0,0.6,0.1,1,0.2c0,0.7-0.2,1.9-0.6,3.5c-0.4,1.6-1,3.6-1.6,5.7c-0.6,2.2-1.5,4.5-2.3,6.7
			c1.3-0.5,2.5-1.3,3.8-2.2c1.3-1,2.4-2.1,3.5-3.4c1.1-1.4,1.9-2.9,2.4-4.5l1.1,1.1c-0.6,1.8-1.6,3.5-3,5.1
			c-1.4,1.5-2.8,2.9-4.4,3.9c-1.6,1.1-3,1.9-4.4,2.5c-1.1,2.7-2.2,5.1-3.5,7.2c-1.3,2.2-2.7,3.9-4,5.2
			C299.2,62.2,297.7,62.8,296,62.8z M295.8,60.1c0.7,0,1.7-0.6,3-2c1.3-1.4,2.7-3.7,4.1-6.9c-1.5,0.7-2.9,1.5-4.1,2.2
			c-1.3,0.7-2.2,1.6-3,2.4c-0.7,0.8-1.2,1.7-1.2,2.7c0,0.5,0.1,1,0.3,1.3C295.2,59.9,295.5,60.1,295.8,60.1z"/>
		<path class="st0" d="M320.6,48.8c-1.3,0-2.4-0.4-3.5-1.3c-1-0.8-1.5-2.2-1.5-3.9c0-1.4,0.3-3,1-4.6c0.6-1.6,1.5-3.3,2.7-4.9
			s2.4-3.1,3.8-4.4c1.5-1.3,3-2.3,4.7-3.2c1.6-0.8,3.3-1.2,4.9-1.2c1.7,0,3.2,0.4,4.4,1.3c1.2,0.8,1.8,2,1.8,3.5
			c0,1.1-0.4,1.9-1.2,2.3c-0.7,0.5-1.7,0.6-2.7,0.4c0.1-0.3,0.1-0.7,0.2-1.1c0.1-0.3,0.1-0.7,0.1-1.2c0-0.8-0.2-1.5-0.5-2.1
			s-1-1-2-1c-1.2,0-2.2,0.4-3.4,1.2c-1.2,0.7-2.2,1.8-3.3,3c-1.1,1.3-2,2.5-2.9,4c-0.8,1.5-1.5,2.9-2,4.2c-0.5,1.4-0.7,2.7-0.7,3.8
			c0,1.3,0.4,1.9,1.4,1.9s1.9-0.4,3.1-1.4c1.2-0.8,2.2-2,3.4-3.4s2.2-2.8,3.3-4.1c1.1-1.4,1.9-2.7,2.7-3.6c0.1-0.2,0.3-0.3,0.5-0.3
			s0.4,0.1,1,0.3c0.4,0.1,0.8,0.3,1.3,0.6c0.4,0.3,0.6,0.6,0.6,1.1s-0.2,1-0.5,1.5c-0.3,0.6-0.7,1.3-1.2,2s-0.8,1.5-1.2,2.2
			c-0.3,0.7-0.5,1.5-0.5,2.1c0,0.5,0.1,1.1,0.4,1.5c0.3,0.4,0.7,0.7,1.4,0.7c1,0,2.3-0.7,4-2.1s3.5-3.8,5.3-7.2l1.2,1.2
			c-1,2.1-2.1,4-3.5,5.7c-1.4,1.7-2.8,3-4.2,3.9s-3,1.4-4.5,1.4c-1.6,0-2.9-0.5-3.7-1.6c-0.8-1.1-1.3-2.1-1.3-3.4c0-0.1,0-0.1,0-0.2
			v-0.1c-1.6,1.9-3.1,3.4-4.5,4.6C323.6,48.3,322.1,48.8,320.6,48.8z"/>
	</g>
	<g>
		<path class="st1" d="M37,10c0,0,0.5-2,2.7-1.4c2.1,0.6,34.7,16.9,23.3,47C62.6,56.5,33.5,48.2,37,10z"/>
		<path class="st1" d="M89.1,10c0,0-0.5-2-2.7-1.4c-2.1,0.6-34.7,16.9-23.3,47C63.7,56.5,92.8,48.2,89.1,10z"/>
		<path class="st2" d="M13.6,37.3c0,0-0.8-1.9,1.1-2.8c2-0.8,37.5-9.3,48,21C63.1,56.5,35.4,68.9,13.6,37.3z"/>
		<path class="st2" d="M112.6,37.3c0,0,0.8-1.9-1.1-2.8c-2-0.8-37.5-9.3-48,21C63.1,56.5,90.7,68.9,112.6,37.3z"/>
		<path class="st3" d="M23,21.6c0,0-0.2-2.1,2-2.2c2.1-0.1,38.4,4,37.9,36.2C62.9,56.7,32.8,58.7,23,21.6z"/>
		<path class="st3" d="M103.2,21.6c0,0,0.2-2.1-2-2.2c-2.1-0.1-38.4,4-37.9,36.2C63.3,56.7,93.5,58.7,103.2,21.6z"/>
		<path class="st4" d="M61.5,3.2c0,0,1.4-1.5,3,0C66,4.7,87.2,34.5,63,55.7C62.2,56.2,40.4,35.2,61.5,3.2z"/>
		<path class="st3" d="M64.6,3.3c0-0.1-0.1-0.1-0.1-0.1c-1.5-1.5-3,0-3,0c-21.1,32.1,0.6,53.1,1.4,52.5c0.5-0.4,1-0.8,1.5-1.3
			C59.4,49.2,47,30.1,64.6,3.3z"/>
	</g>
</g>
</svg>
