<?xml version="1.0" encoding="utf-8"?>
<!-- Generator: Adobe Illustrator 23.0.3, SVG Export Plug-In . SVG Version: 6.00 Build 0)  -->
<svg version="1.1" id="圖層_1" xmlns="http://www.w3.org/2000/svg" xmlns:xlink="http://www.w3.org/1999/xlink" x="0px" y="0px"
	 viewBox="0 0 59.8 52.8" style="enable-background:new 0 0 59.8 52.8;" xml:space="preserve">
<style type="text/css">
	.st0{fill:#603969;}
	.st1{fill:none;stroke:#986F68;stroke-width:1.5;stroke-linecap:round;stroke-linejoin:round;stroke-miterlimit:10;}
</style>
<path class="st0" d="M9.4,21.2c-0.1,0.1-0.1,0.1-0.2,0C9.3,21.2,9.3,21.2,9.4,21.2z"/>
<g>
	<path class="st1" d="M1.6,42.1c0,0,24.8-7.3,56.6-0.8"/>
	<g>
		<path class="st1" d="M16.6,12.3l2.6,8.2c0,0,0.9,1.6,0.1,2C18.5,23,8.5,26.9,6.9,28.2s-5.8,4.4-5.3,8c0.4,3.5,2,2.1,2,2.1
			s1.9-5.2,5.6-6.1c3.7-0.9,7.9-1.1,7.9-1.1s-4.2,2-5.4,2.5c-1.2,0.4-1.7,2.5,0.8,2.3s13.3-2,14.9-4.8s0.7-4.6,0.4-5.9
			c-0.3-1.4-3.2-14.5-3.2-14.5"/>
		<path class="st1" d="M43.1,12.3l-2.6,8.2c0,0-0.9,1.6-0.1,2c0.8,0.4,10.7,4.4,12.4,5.7c1.7,1.3,5.8,4.4,5.3,8
			c-0.4,3.5-2,2.1-2,2.1s-1.9-5.2-5.6-6.1c-3.7-0.9-7.9-1.1-7.9-1.1s4.2,2,5.4,2.5c1.2,0.4,1.7,2.5-0.8,2.3
			c-2.5-0.1-13.3-2-14.9-4.8s-0.7-4.6-0.4-5.9c0.3-1.4,3.2-14.5,3.2-14.5"/>
	</g>
</g>
</svg>
