<?xml version="1.0" encoding="utf-8"?>
<!-- Generator: Adobe Illustrator 23.0.3, SVG Export Plug-In . SVG Version: 6.00 Build 0)  -->
<svg version="1.1" id="圖層_1" xmlns="http://www.w3.org/2000/svg" xmlns:xlink="http://www.w3.org/1999/xlink" x="0px" y="0px"
	 viewBox="0 0 375 495" style="enable-background:new 0 0 375 495;" xml:space="preserve">
<style type="text/css">
	.st0{fill:#FFE2D7;}
	.st1{fill:#FFEFB6;}
	.st2{fill:#FFC9CB;}
	.st3{fill:#EDC9EA;}
	.st4{fill:#FFC9CB;stroke:#A57A67;stroke-miterlimit:10;}
	.st5{fill:#A57A67;stroke:#A57A67;stroke-miterlimit:10;}
	.st6{fill:#F79898;stroke:#A57A67;stroke-miterlimit:10;}
	.st7{fill:#FFFFFF;stroke:#A57A67;stroke-miterlimit:10;}
	.st8{fill:#FECE60;}
	.st9{fill:#A57A67;}
	.st10{opacity:0.5;}
	.st11{fill:#FFFFFF;}
	.st12{opacity:0.24;}
	.st13{clip-path:url(#SVGID_2_);fill:#A57A67;}
</style>
<path class="st0" d="M94.8,359.5c0,12.1-9.8,21.9-21.9,21.9S51,371.6,51,359.5s9.8-21.9,21.9-21.9C85,337.5,94.8,347.3,94.8,359.5"
	/>
<path class="st1" d="M63.2,375.2c-12.3,0-22.3-10-22.3-22.3c0-12.3,10-22.3,22.3-22.3s22.3,10,22.3,22.3
	C85.6,365.2,75.6,375.2,63.2,375.2 M63.2,331.2c-11.9,0-21.6,9.7-21.6,21.6s9.7,21.6,21.6,21.6s21.6-9.7,21.6-21.6
	C84.9,340.9,75.2,331.2,63.2,331.2"/>
<g>
	<rect x="176.8" y="320.1" class="st2" width="18" height="19.4"/>
	<g>
		<path class="st3" d="M194.8,320.1v3.8c-4.7,7.5-15.3,5.5-18,5v-8.7L194.8,320.1L194.8,320.1z"/>
		<path class="st4" d="M208.1,302.1c-0.2-0.1-0.2-0.1-0.4-0.1c-0.1-12.4-10.2-21-22.7-21s-22.6,8.5-22.7,21c-0.1,0-0.2,0.1-0.4,0.1
			c-1.9,0.5-2.8,2.3-2.3,4.6c0.6,2.2,2.5,4.1,4.3,3.7c3.7,8.9,12.6,15.9,21,15.9c8.3,0,17.3-7,21-15.9c1.8,0.4,3.7-1.5,4.4-3.7
			C211.1,304.4,210,302.6,208.1,302.1"/>
		<path class="st5" d="M176.8,302.7c0,0.1,0,0.2,0,0.2c-0.1,0.9-0.9,1.6-1.9,1.6s-1.8-0.7-1.9-1.8c0-0.1,0-0.1,0-0.1
			c0-0.1,0-0.2,0-0.4c1.5-0.4,2.8-0.2,3.7,0.1C176.8,302.6,176.8,302.7,176.8,302.7"/>
		<path class="st5" d="M197.3,302.7c0,0.1,0,0.2,0,0.2c-0.1,0.9-0.9,1.7-1.9,1.7c-1,0-1.8-0.7-1.9-1.7c0-0.1,0-0.1,0-0.2
			c0-0.1,0-0.2,0-0.3c1.4-0.4,2.8-0.2,3.7,0.1C197.3,302.6,197.3,302.7,197.3,302.7"/>
		<path class="st5" d="M185.5,312.3l-0.1-0.4c-1.2,0.1-2.3-0.4-2.7-1.3c-0.4-0.8-0.1-1.8,0.8-2.6c2.4-2.2,2.2-4.1,2.2-4.2l-0.4,0.1
			h0.2h-0.2c0,0,0.2,1.8-2.1,3.9c-1.1,1-1.4,2.1-0.9,3.1C182.9,311.8,184.2,312.4,185.5,312.3"/>
		<path class="st5" d="M169.3,300.8c0,0,1.1-1.2,2.7-1.3c2.1,0,4.9,1.1,4.8-0.5c-0.1-1.5-4.1-1-5.2-0.5
			C169.9,299.2,169,300.3,169.3,300.8"/>
		<path class="st6" d="M173.3,310c0,2.2-1.8,4-4,4s-4-1.8-4-4c0-2.2,1.8-4,4-4S173.3,307.7,173.3,310"/>
		<path class="st6" d="M205.8,310c0,2.2-1.8,4-4,4s-4-1.8-4-4c0-2.2,1.8-4,4-4C204.1,306,205.8,307.7,205.8,310"/>
		<path class="st5" d="M185.3,317.5c-2.8,0-4.9-2.1-5-2.1c-0.1-0.1-0.1-0.3,0-0.4c0.1-0.1,0.3-0.1,0.4,0c0,0,2,2,4.6,2l0,0
			c1.5,0,2.9-0.7,4.1-2c0.1-0.1,0.3-0.1,0.4,0c0.1,0.1,0.1,0.3,0,0.4C188.5,316.8,186.9,317.5,185.3,317.5"/>
		<path class="st5" d="M178.6,303.6c-0.1,0.1-0.1,0.1-0.2,0.1c-0.1,0-0.1,0-0.1-0.1c0,0-0.6-0.4-1.4-0.7c-1-0.3-2.3-0.6-3.7-0.1
			c-0.5,0.2-1.1,0.4-1.6,0.7c-0.1,0.1-0.2,0.1-0.3-0.1c-0.1-0.1-0.1-0.2,0.1-0.3c0.7-0.4,1.3-0.7,1.9-0.9c1.5-0.4,2.8-0.2,3.7,0.1
			c1,0.3,1.6,0.7,1.6,0.7C178.6,303.3,178.6,303.5,178.6,303.6"/>
		<path class="st5" d="M199,303.6c-0.1,0.1-0.1,0.1-0.2,0.1s-0.1,0-0.1-0.1c0,0-0.6-0.4-1.5-0.7c-1-0.3-2.3-0.5-3.7-0.1
			c-0.5,0.2-1,0.4-1.5,0.7c-0.1,0.1-0.2,0.1-0.3-0.1c-0.1-0.1-0.1-0.2,0.1-0.3c0.6-0.4,1.2-0.7,1.8-0.8c1.4-0.4,2.8-0.2,3.7,0.1
			c1.1,0.3,1.8,0.7,1.8,0.7C199.1,303.3,199.1,303.5,199,303.6"/>
		<path class="st5" d="M163.3,307.9c-0.5-0.2-0.9-0.7-1.1-1.2c-0.2-0.6-0.2-1.2,0.1-1.8c0.1-0.2,0.3-0.6,0.7-0.7
			c0.3,0,0.3-0.5,0-0.5c-0.4,0-0.7,0.3-0.9,0.6c-0.2,0.3-0.3,0.7-0.4,1.1c-0.1,0.7,0.1,1.5,0.5,2.1c0.2,0.3,0.6,0.6,0.9,0.7
			C163.4,308.5,163.7,308.1,163.3,307.9"/>
		<path class="st5" d="M208.1,307.9c0.5-0.2,0.9-0.7,1.1-1.2c0.2-0.6,0.2-1.2-0.1-1.8c-0.1-0.2-0.3-0.6-0.7-0.7
			c-0.3,0-0.3-0.5,0-0.5c0.4,0,0.7,0.3,0.9,0.6c0.2,0.3,0.3,0.7,0.4,1.1c0.1,0.7-0.1,1.5-0.5,2.1c-0.2,0.3-0.6,0.6-0.9,0.7
			C208.1,308.5,207.9,308.1,208.1,307.9"/>
		<path class="st5" d="M207.8,314.9c-0.6-1-1.3-1.9-1.9-2.8c-0.6-0.9-1.1-1.8-1.5-2.8c-0.3-1.1-0.2-2.3,0.2-3.3
			c0.6-1.3,1.5-2.4,2.1-3.7c0.3-0.7,0.5-1.5,0.6-2.3c0.6,1.5,0.9,2.6,1,2.8c0,0.1,0.1,0,0.1-0.1c1.8-3.5,2.8-7.3,2.8-11.5
			c0-11.3-4.6-20.9-16.4-24.1c0.1-0.6,0.2-1.2,0.3-1.9c0.2-2.3-0.1-4.6-0.7-6.7c-0.7-2.2-1.8-4.2-3.3-5.9c-0.9-0.9-1.9-1.8-2.9-2.4
			c-1.3-0.7-2.6-1.1-4.1-1.1c-1.3,0-2.5,0.2-3.7,0.6c-0.2,0-0.4,0-0.7,0c-1.6,0-3.3,0.2-4.7,0.7c-0.6-0.1-1.3,0.1-1.9,0.3
			c-1,0.4-2,0.9-2.8,1.5c-1.7,1.1-3.3,2.4-4.6,4.1c-1.2,1.5-2.1,3.3-2.4,5.2c-0.3,1.9-0.2,3.8,0.3,5.6c0.5,1.9,1.4,3.7,2.5,5.1
			c0.2,0.2,0.3,0.4,0.5,0.6l0.1,0.1c-4.6,4.6-6.8,11.1-6.8,18.5c0,4.3,1.1,8.3,3,11.8c0.2,0.6,0.2,1,0.2,1s0-0.1,0.1-0.4
			c0.2-1.6,1.3-7.9,3.8-9.3c1.2-0.7,2.3-0.7,3.6-0.8c-1.4,0.9-2.6,1.9-3.5,3.2c-0.9,1.3-1.4,2.8-1.5,4.4c-0.1,1.6,0.3,3.2,0.9,4.7
			c0.6,1.5,1.2,3.2,1,4.8c-0.2,1.6-1.3,2.8-2.3,3.9c-0.5,0.6-1,1.1-1.3,1.8c-0.3,0.6-0.6,1.2-0.7,1.9c-0.7,2.6,0,5.5,1.8,7.6
			c0.2,0.2,0.5,0.5,0.7,0.7c0.2,0.2,0.6-0.2,0.3-0.3c-2-1.7-2.9-4.6-2.5-7.2c0.2-1.4,0.8-2.6,1.7-3.7c1-1.1,2.1-2.2,2.6-3.7
			c0.5-1.6,0.1-3.3-0.4-4.7c-0.5-1.5-1.2-3.1-1.3-4.7c-0.1-1.5,0.2-3.1,1-4.5c0.7-1.5,2-2.5,3.3-3.4c0.5-0.3,1-0.7,1.5-0.9
			c0.2-0.1,0.5-0.1,0.7-0.2c0.2,0.1,0.6,0.2,0.8,0.3c1.4,0.6,2.8,1.3,4.3,1.2c1.2-0.1,2.5-0.6,3-1.8c0.3-0.7,0.2-1.5,0.5-2.3
			c0.2-0.6,0.7-1.1,1.3-1.4c0.5-0.3,1.2-0.4,1.8-0.3c0.8,0.2,1.5,0.7,2.2,1.1c2.6,1.4,6,1.2,8.5-0.5c1-0.7,1.8-1.5,2.4-2.6
			c0.2,1.7,1,5.4,4.6,5.9c2.3,0.3,3.9,3.3,5,6c0.1,0.9,0,1.9-0.3,2.8c-0.4,1.3-1.4,2.4-2,3.7c-0.3,0.6-0.6,1.3-0.7,2
			c-0.1,0.6-0.1,1.1,0,1.6c0.2,1.1,0.7,2,1.2,2.9c0.6,1,1.3,1.9,1.9,2.8c0.6,0.9,1.1,1.8,1.4,2.8c0.1,0.5,0.2,1,0.2,1.5
			c0,0.6-0.2,1.2-0.4,1.8c-0.5,1.2-1.3,2.4-1.5,3.8c0,0.3,0,0.7,0.1,1s0.6,0.2,0.5-0.1c-0.3-1.3,0.5-2.6,1-3.8
			c0.3-0.6,0.6-1.3,0.7-2c0.1-0.6,0.1-1.1,0-1.6C208.8,316.7,208.4,315.7,207.8,314.9 M167.7,271.6c-0.2,0.2-0.6,0.5-0.8,0.7
			c0,0,0-0.1-0.1-0.1c-1.2-1.4-2.1-3-2.6-4.8c-0.6-1.7-0.8-3.6-0.6-5.4c0.2-1.8,0.8-3.6,2-5.1c0.8-1.1,1.8-2.2,2.9-3.1
			c-2.4,2.4-4,5.7-4,9.2C164.5,266.3,165.7,269.2,167.7,271.6 M194.2,266.8c0.2-0.9,0.4-1.9,0.5-2.8c0,0.1,0,0.2,0,0.4
			c-0.1,0.8-0.2,1.7-0.3,2.5C194.3,266.8,194.3,266.8,194.2,266.8 M182.8,288.3c-0.7,0.2-1.2,0.6-1.6,1.1c-0.5,0.6-0.7,1.2-0.8,2
			c-0.1,0.4-0.1,0.8-0.2,1.2c-0.1,0.2-0.2,0.5-0.4,0.7c-0.4,0.4-1,0.7-1.5,0.7c-1.5,0.3-2.8-0.2-4.1-0.8c-0.3-0.1-0.6-0.2-0.9-0.4
			c1.1-0.5,2.3-1.4,3.7-3c2.8-3.5,4-2.3,6.7-1.5C183.3,288.2,183,288.2,182.8,288.3 M181.9,249.6c0.4-0.1,0.8-0.2,1.2-0.2
			c1.4-0.1,2.8,0,4.1,0.6c1.1,0.6,2.2,1.3,3.1,2.3c1.5,1.5,2.7,3.5,3.5,5.5c0.3,0.8,0.5,1.6,0.7,2.4
			C193.1,254.8,188.1,250.5,181.9,249.6 M195.1,288.5c-2.2,1.9-5.6,2.3-8.2,1c-0.6-0.2-1.1-0.6-1.6-0.9c1.1,0.2,2.5,0.2,4.3-0.1
			c4.6-0.7,6.4-1.5,7.2-2C196.4,287.3,195.9,287.9,195.1,288.5"/>
		<path class="st7" d="M171.8,256.3c-2.4,3.1-2.6,7.6-0.7,11c0.2,0.4,0.9,0.1,0.7-0.4c-1.8-3.3-1.5-7.2,0.7-10.2
			C172.9,256.3,172.1,255.9,171.8,256.3"/>
		<path class="st7" d="M180.5,252.1c-0.6-0.1-1.1,0.1-1.7,0.3c-0.5,0.2-0.1,0.9,0.4,0.7c0.4-0.2,0.9-0.2,1.3-0.2
			C181,253,181,252.2,180.5,252.1"/>
		<path class="st7" d="M197.9,273.6c-0.2-0.5-1-0.2-0.7,0.2c1.2,3.1,1.3,6.5,0.2,9.7c-0.2,0.5,0.6,0.7,0.7,0.2
			C199.2,280.4,199.1,276.8,197.9,273.6"/>
		<path class="st5" d="M200.6,300.8c0,0-1.1-1.2-2.7-1.3c-2.1,0-4.9,1.1-4.8-0.5c0.1-1.5,4.1-1,5.2-0.5
			C199.9,299.2,200.8,300.3,200.6,300.8"/>
		<path class="st5" d="M109.7,355.5c11.3,17.2,27.1,26.9,35.1,21.6c8-5.3,5.4-23.6-5.9-40.8c-11.3-17.2-27.1-26.9-35.1-21.6
			C95.7,320,98.4,338.3,109.7,355.5"/>
		<path class="st5" d="M101.1,369.3c5.1,0.8,9.5-0.5,9.9-2.9c0.4-2.4-3.5-5-8.5-5.8c-5.1-0.8-9.5,0.5-9.9,2.9
			C92.1,366,96,368.5,101.1,369.3"/>
		<path class="st5" d="M129.2,393.2c12.7-3.7,21.5-11.4,19.8-17.3c-1.7-5.9-13.3-7.7-26-4.1c-12.7,3.7-21.5,11.4-19.8,17.3
			C104.9,395,116.5,396.9,129.2,393.2"/>
		<path class="st5" d="M169.3,358.4c0.2,8.3-2.8,15.1-6.7,15.2c-3.9,0.1-7.2-6.6-7.3-15c-0.2-8.4,2.8-15.1,6.7-15.2
			C165.9,343.4,169.1,350.1,169.3,358.4"/>
		<path class="st7" d="M143.3,371.1C143.3,371.1,143.3,371,143.3,371.1c0.1-0.2,0-0.4-0.2-0.5c-0.2-0.2-7-3.3-20.2,0.9
			c-0.2,0.1-0.3,0.2-0.2,0.4c0.1,0.2,0.2,0.3,0.4,0.2c13-4.1,19.7-0.9,19.8-0.9C143,371.4,143.2,371.2,143.3,371.1"/>
		
			<rect x="162.5" y="373.5" transform="matrix(0.9926 -0.1213 0.1213 0.9926 -44.6744 22.5824)" class="st5" width="1.4" height="9.3"/>
		<path class="st7" d="M139.9,369.8c0.1-0.1,0.1-0.2,0-0.4l-30-44.6c-0.1-0.2-0.3-0.2-0.5-0.1c-0.2,0.1-0.2,0.3-0.1,0.5l30,44.6
			C139.4,370,139.7,370,139.9,369.8C139.9,370,139.9,369.9,139.9,369.8"/>
		<path class="st7" d="M111.2,366.6C111.2,366.6,111.2,366.5,111.2,366.6c0.1-0.2,0-0.5-0.2-0.5l-14.2-2.4c-0.2,0-0.4,0.1-0.4,0.3
			c0,0.2,0.1,0.4,0.3,0.4l14.2,2.4C111.1,366.8,111.2,366.7,111.2,366.6"/>
		<path class="st7" d="M149.4,376.1c0.1-0.1,0.1-0.2,0-0.2c-0.1-0.2-0.2-0.3-0.4-0.2L112.6,386c-0.2,0.1-0.3,0.2-0.2,0.4
			c0.1,0.2,0.2,0.3,0.4,0.2l36.3-10.4C149.2,376.2,149.3,376.2,149.4,376.1"/>
		<path class="st7" d="M163.4,372.7c0-0.1,0.1-0.1,0.1-0.2l-1.1-21.2c0-0.2-0.2-0.3-0.4-0.3c-0.2,0-0.3,0.2-0.3,0.4l1.1,21.2
			c0,0.2,0.2,0.3,0.4,0.3C163.2,372.8,163.3,372.7,163.4,372.7"/>
		<path class="st7" d="M119,338.7C119,338.6,119.1,338.6,119,338.7c0.1-0.2,0-0.5-0.2-0.5l-12.6-1.2c-0.2,0-0.4,0.1-0.4,0.3
			c0,0.2,0.1,0.4,0.3,0.4l12.6,1.2C118.9,338.9,119,338.8,119,338.7"/>
		<path class="st7" d="M133.4,360.1L133.4,360.1l4.1-16.3c0.1-0.2-0.1-0.4-0.2-0.4c-0.2-0.1-0.4,0.1-0.4,0.2l-4.1,16.2
			c-0.1,0.2,0.1,0.4,0.2,0.4C133.1,360.2,133.3,360.1,133.4,360.1"/>
		<path class="st7" d="M120.4,391.8l5-8.9c0.1-0.2,0-0.4-0.2-0.5c-0.2-0.1-0.4,0-0.5,0.2l-5,8.9c-0.1,0.2,0,0.4,0.2,0.5
			C120.2,392.2,120.3,392.1,120.4,391.8"/>
		<path class="st7" d="M140.7,378.5L140.7,378.5c0.1-0.2,0-0.4-0.2-0.5l-8.9-4.6c-0.2-0.1-0.4,0-0.5,0.2c-0.1,0.2,0,0.4,0.2,0.5
			l8.9,4.6C140.5,378.8,140.7,378.7,140.7,378.5"/>
		<path class="st7" d="M104.4,365.7c0.1-0.1,0.1-0.2,0-0.3c-0.1-0.2-0.3-0.2-0.5-0.1l-4.3,2.6c-0.2,0.1-0.2,0.3-0.1,0.5
			c0.1,0.2,0.3,0.2,0.5,0.1l4.3-2.6C104.3,365.9,104.4,365.8,104.4,365.7"/>
		<path class="st5" d="M147.3,338c0.8,2.5,2.4,4.3,3.7,3.9c1.2-0.4,1.5-2.8,0.7-5.3c-0.8-2.5-2.4-4.3-3.7-3.9
			C146.8,333.1,146.4,335.5,147.3,338"/>
		<path class="st5" d="M97.7,382.4c3.3-1.1,5.5-3.2,5-4.7c-0.5-1.5-3.6-2-6.8-0.8c-3.3,1.1-5.5,3.2-5,4.7
			C91.3,383.1,94.4,383.5,97.7,382.4"/>
		<path class="st5" d="M148.6,403.3c2.1-0.7,3.7-2,3.3-3.1c-0.3-1-2.3-1.2-4.5-0.6c-2.1,0.7-3.7,2-3.3,3.1
			C144.5,403.8,146.5,404,148.6,403.3"/>
		<path class="st5" d="M148.7,403.6c-1.1,0.3-2.2,0.5-3.1,0.4c-1-0.1-1.6-0.5-1.8-1.1c-0.2-0.6,0.1-1.3,0.8-2
			c0.7-0.6,1.6-1.1,2.7-1.5c2.4-0.7,4.5-0.4,4.9,0.8c0.1,0.4,0.1,0.8-0.2,1.2C151.6,402.3,150.3,403.1,148.7,403.6 M144.6,402.7
			c0.1,0.3,0.6,0.6,1.3,0.7c0.8,0.1,1.8,0,2.8-0.3c2.1-0.7,3.3-2,3-2.6c-0.2-0.7-2-1-4-0.3c-1,0.3-1.9,0.8-2.4,1.3
			c-0.2,0.2-0.4,0.4-0.5,0.6C144.5,402.3,144.5,402.5,144.6,402.7"/>
		<path class="st5" d="M220.6,404c-2.1-0.7-3.7-2-3.3-3.1c0.3-1,2.3-1.2,4.5-0.6c2.1,0.7,3.7,2,3.3,3.1
			C224.7,404.4,222.8,404.6,220.6,404"/>
		<path class="st5" d="M217.2,402c-0.2-0.4-0.3-0.8-0.2-1.2c0.4-1.2,2.5-1.5,4.9-0.8c1.1,0.3,2,0.9,2.7,1.5c0.7,0.7,1,1.4,0.8,2
			c-0.2,0.7-0.9,1.1-1.8,1.1s-2,0-3.1-0.4C218.9,403.8,217.7,402.9,217.2,402 M224.6,402.7c-0.1-0.2-0.2-0.4-0.5-0.6
			c-0.6-0.6-1.5-1-2.4-1.3c-2.1-0.7-3.8-0.4-4,0.3c-0.2,0.7,1,2,3,2.6c1,0.3,2,0.4,2.8,0.3c0.7-0.1,1.1-0.3,1.3-0.7
			C224.8,403.1,224.7,402.9,224.6,402.7"/>
		<path class="st5" d="M256.5,355.5c-11.9,12-17,26.3-11.4,31.9c5.6,5.5,19.8,0.3,31.7-11.8c11.9-12,17-26.3,11.4-31.9
			C282.5,338.2,268.4,343.5,256.5,355.5"/>
		<path class="st5" d="M243.9,351c0.2,4.2,2,7.6,4,7.5c2-0.1,3.4-3.7,3.1-7.9c-0.2-4.2-2-7.6-4-7.5
			C245.1,343.2,243.7,346.7,243.9,351"/>
		<path class="st5" d="M229.5,377.6c5.1,9.5,12.8,15.3,17.3,12.9c4.5-2.4,3.9-12-1.1-21.5c-5.1-9.5-12.8-15.3-17.3-12.9
			C224,358.4,224.5,368.1,229.5,377.6"/>
		<path class="st5" d="M264.3,403.8c-6.7,1.5-12.6,0.2-13.3-2.8c-0.7-3.1,4.1-6.8,10.7-8.5c6.7-1.5,12.6-0.2,13.3,2.8
			C275.8,398.5,271,402.3,264.3,403.8"/>
		<path class="st7" d="M249.8,385.1L249.8,385.1c0.2,0.1,0.3-0.1,0.4-0.2c0.1-0.2,1.5-6.2-4.1-16.1c-0.1-0.2-0.2-0.2-0.4-0.1
			c-0.2,0.1-0.2,0.2-0.1,0.4c5.5,9.8,4.1,15.6,4.1,15.7C249.4,384.9,249.6,385.1,249.8,385.1"/>
		<path class="st7" d="M250.2,382.3c0.1,0,0.2,0,0.3-0.1l30.7-31.7c0.1-0.1,0.1-0.3,0-0.4c-0.1-0.1-0.3-0.1-0.4,0l-30.7,31.7
			C250,381.8,250,382.1,250.2,382.3C250,382.2,250.1,382.2,250.2,382.3"/>
		<path class="st7" d="M247.8,358.7L247.8,358.7c0.2,0,0.3-0.2,0.3-0.3l-0.5-11.8c0-0.2-0.2-0.2-0.3-0.2c-0.2,0-0.2,0.2-0.2,0.3
			l0.5,11.8C247.7,358.5,247.7,358.7,247.8,358.7"/>
		<path class="st7" d="M246.8,390.8c0.1,0,0.2,0,0.2,0c0.2-0.1,0.2-0.2,0.1-0.4L232.5,363c-0.1-0.2-0.2-0.2-0.4-0.1
			c-0.2,0.1-0.2,0.2-0.1,0.4l14.6,27.4C246.6,390.7,246.7,390.8,246.8,390.8"/>
		<path class="st7" d="M251.9,401.5c0.1,0,0.1,0,0.2,0l16.8-4.5c0.2-0.1,0.2-0.2,0.2-0.3s-0.2-0.2-0.3-0.2l-16.8,4.5
			c-0.2,0.1-0.2,0.2-0.2,0.3C251.7,401.4,251.8,401.4,251.9,401.5"/>
		<path class="st7" d="M271.6,360.1L271.6,360.1c0.2,0,0.3-0.2,0.3-0.3l-1.1-10.3c0-0.2-0.2-0.2-0.3-0.2c-0.2,0-0.2,0.2-0.2,0.3
			l1.1,10.3C271.4,360.1,271.5,360.1,271.6,360.1"/>
		<path class="st7" d="M256.8,375.3L256.8,375.3l13.7,0.6c0.2,0,0.3-0.1,0.3-0.2c0-0.2-0.1-0.3-0.2-0.3l-13.7-0.6
			c-0.2,0-0.3,0.1-0.3,0.2S256.8,375.3,256.8,375.3"/>
		<path class="st7" d="M229.1,370.3l8,2.4c0.2,0.1,0.3-0.1,0.4-0.2c0.1-0.2-0.1-0.3-0.2-0.4l-8-2.4c-0.2-0.1-0.3,0.1-0.4,0.2
			C228.9,370.1,229,370.3,229.1,370.3"/>
		<path class="st7" d="M243.3,384.4C243.3,384.4,243.4,384.4,243.3,384.4c0.2,0.1,0.3-0.1,0.4-0.2l2.2-7.9c0.1-0.2-0.1-0.3-0.2-0.3
			c-0.2-0.1-0.3,0.1-0.3,0.2l-2.2,7.9C243.1,384.2,243.2,384.3,243.3,384.4"/>
		<path class="st7" d="M247.3,353c0.1,0,0.2,0,0.2-0.1c0.1-0.1,0.1-0.3,0-0.4l-2.8-3c-0.1-0.1-0.3-0.1-0.4,0c-0.1,0.1-0.1,0.3,0,0.4
			l2.8,3C247.3,353,247.3,353,247.3,353"/>
		<path class="st5" d="M276.9,382.7c-1.9,1.1-3,2.7-2.5,3.6c0.5,0.9,2.4,0.7,4.3-0.4c1.9-1.1,3-2.7,2.5-3.6
			C280.8,381.4,278.8,381.5,276.9,382.7"/>
		<path class="st5" d="M232.8,350.5c1.4,2.4,3.5,3.9,4.6,3.3c1.1-0.7,0.9-3.2-0.5-5.6c-1.4-2.4-3.5-3.9-4.6-3.3
			C231.2,345.4,231.4,348,232.8,350.5"/>
	</g>
	<path class="st0" d="M324.9,452.3c0,10.2-63.1,18.6-140.9,18.6s-140.9-8.3-140.9-18.6c0-10.3,63.1-18.6,140.9-18.6
		S324.9,441.9,324.9,452.3"/>
	<path class="st2" d="M298.8,407.5l-13.2-4l11.5,4.3c0,0,2.3,1.4,1.4,3.7l-14.6-5l7.2,3.1c0,0,2.1,1.3,1,2.8c0,0-18.6-4.6-21.2-5.6
		c0,0,0,0,0-0.1l-39-7.6c-4.5-0.9-8.2-4-10.1-8.4l-8-19.2c-0.7,2-1.4,4.6-2,7.8l-9,39.2c-20.7,1-31.4-2.2-35.9-4.3l-8-35
		c-0.6-3.3-1.2-5.8-2-7.8l-8,19.2c-1.8,4.3-5.5,7.5-10.1,8.4l-39.1,7.6v0.1c-2.6,1-21.2,5.6-21.2,5.6c-1.1-1.5,1.1-2.8,1.1-2.8
		l7.2-3.1l-14.7,5c-0.9-2.3,1.4-3.7,1.4-3.7l11.5-4.3l-13.2,4c-1.6-2,1.9-3.6,1.9-3.6l8.6-2.9c0,0-4.2-4.4-4.2-4.5
		c0-0.1,3.3-4.9,3.3-4.9l5-2.6c1.1,3-3.6,6.7-3.6,6.7s4.1,2.6,4.6,2.6c0.4,0,3.7-2.1,3.7-2.1L90,392c-2.7-0.7-3.3-2-3.5-2.7
		c-0.1-0.6,0.1-0.9,0.1-0.9l6.3,0.9l1.1,6.3l4.2,4.1l32.8-11.4c2.9-1.1,5.4-3.4,6.3-6.4l10.7-29.5c0.1-0.4,0.2-0.8,0.4-1.2l0,0
		c3.8-9.2,19.4-18,36.7-18l0,0h0.1h0.1l0,0c17.3,0.1,32.9,8.9,36.7,18l0,0c0.2,0.4,0.3,0.8,0.4,1.2l10.7,29.5c1.1,3,3.4,5.4,6.3,6.4
		l32.8,11.4l4.2-4.1l1.1-6.3l6.3-0.9c0,0,0.2,0.4,0.1,0.9c-0.1,0.8-0.7,2-3.5,2.7l-0.9,4.2c0,0,3.3,2.1,3.7,2.1
		c0.4,0,4.6-2.6,4.6-2.6s-4.6-3.7-3.6-6.7l5,2.6c0,0,3.3,4.8,3.3,4.9c0,0.1-4.2,4.5-4.2,4.5l8.6,2.9
		C296.9,404,300.4,405.6,298.8,407.5"/>
	<path class="st8" d="M233.3,381.8l-3.1,0.8l-9.6,2.4l-2.5,0.7l-2.9-5.3l-0.7,8.9l-0.7,9.3v0.1c0,0-4.8-2.7-14-3.9
		c-1.8-0.2-3.7-0.4-5.8-0.5c-1.1-0.1-2.1-0.1-3.3-0.1c-2.5,0-5.2,0.1-8,0.3c-2,0.2-4,0.4-6.2,0.7l0,0c-0.9,0.2-2,0.3-2.9,0.5l0,0
		c-1.9,0.3-3.7,0.7-5.8,1.2c-3.1,0.7-6.3,1.7-9.8,2.8c-0.2,0.1-0.3,0.1-0.4,0.2V400v-4.2l-0.1-6l-0.1-6.4v-4.5l-2.1,5l-4.8-1.2
		l-10.7-2.8l-1.4-0.4c0,0,0.3-3.2,1.4-7.8c0.6-2.4,1.4-5.4,2.4-8.5c2.4-7,6.3-14.8,12.6-20.4c2.8-2.6,6.2-4.6,10.1-5.9
		c1.1-0.4,2.4-0.7,3.7-0.9c0,0,0.5,0.7,1.5,2c0.9,1.1,2.1,2.4,3.7,4.1c2.6,2.6,6.2,5.8,10.7,8.9c0.9,0.6,1.8,1.2,2.8,1.8l0,0
		c3.9,2.4,8.4,4.6,13.5,6.5c2.3,0.8,4.6,1.6,7.2,2.2c0.5,0.1,1,0.2,1.5,0.3c2.1,0.5,4.3,0.9,6.7,1.3c1.8,0.2,3.7,0.5,5.6,0.6
		c1.7,0.1,3.4,0.2,5.1,0.2l2.4,6.5L233.3,381.8z"/>
	<path class="st9" d="M209.3,361.8c-8.8-2.1-16.1-5.4-22-9.1c14.7-0.4,13.4-17.2,13.4-17.2l3.6,1.2
		C201.2,351.2,205.3,358.3,209.3,361.8"/>
	<path class="st9" d="M268.3,406.7c-15.7-4.3-45,5.6-58.1,10.7l0,0c-8.8,3.2-15,3.3-15,3.3c-3.5,0.1-7.9-0.1-13.1-0.6
		c-4.6-0.5-9.6-1.3-15-2.7c0,0-24-7.2-35.6-9.3c-10.2-2.3-20.6-3.3-27.9-1.4c-15.8,4.3-8.5,17.2,3.2,25.4c0,0,5.6,4.3,18.5,9.8
		c5.6,2.6,14,6,24.6,8.8c1.8,0.5,3.3,0.9,4.4,1.1c25.5,5.7,62.2,6.6,102.6-15C272.4,430,287.7,412,268.3,406.7"/>
	<path class="st9" d="M157.4,401.5c-0.1,0-0.2-0.1-0.2-0.2c-0.1-0.2,0.1-0.3,0.2-0.3c17.2-4.4,31.5-4.3,40.5-3.5
		c9.8,0.9,15.5,2.9,15.6,2.9c0.2,0.1,0.2,0.2,0.2,0.4c-0.1,0.2-0.2,0.2-0.4,0.2c-0.1,0-5.8-2-15.5-2.9
		C188.8,397.2,174.6,397.1,157.4,401.5L157.4,401.5"/>
	<path class="st2" d="M104.4,429.4c-5.9-3.6-6-12.1-0.2-15.7c6-3.7,16.6-4.9,35,5.4c36.2,20.2,32.6,18.7,32.6,18.7l17.6,8.2
		c5.6-2,11.5,2.3,11.9,8.5c0.3,4.3,0.1,10.5,0.6,16.9c0.4,4.8-2,9.5-5.9,11.9l-2,1.1c-1.6,1-3.7-0.1-3.9-2.1l-6.3-25.1
		C183.8,457.2,126.3,442.6,104.4,429.4"/>
	<path class="st2" d="M263.6,430.1c9.6-3.7,9-17.4-0.8-20.2c-6.2-1.8-15.4-1.4-29.1,4.1c-38.1,15.6-34.4,14.5-34.4,14.5l-18.5,6
		c-5.4-2.6-11.6,0.9-12.7,7c-0.7,4.3-1.2,10.4-2.4,16.7c-0.9,4.8,0.8,9.7,4.6,12.5l1.8,1.4c1.5,1.1,3.7,0.3,4.1-1.6l8.9-24.1
		C185.2,446.4,238.5,439.7,263.6,430.1"/>
	<g class="st10">
		<path class="st8" d="M165.2,340.7c0,0.1-0.1,0.2-0.1,0.3c-0.6,1.8-2.1,3.1-4,3.7c-1.6,0.5-3.5,0.4-5-0.4c-0.6-0.3-1.1-0.9-1.5-1.5
			c2.8-2.6,6.2-4.6,10.1-5.9c0.2,0.3,0.3,0.7,0.4,1C165.9,338.8,165.8,339.9,165.2,340.7"/>
		<path class="st8" d="M176.6,349.6c-0.1-1.1-0.7-2.1-1.7-2.7c-0.9-0.5-2-0.6-3-0.5c-0.4-0.1-0.9-0.1-1.4,0.2
			c-0.4,0.2-0.7,0.5-0.9,0.9c-0.2,0.3-0.4,0.8-0.4,1.4c0,0.9,0.5,1.6,1.1,2.1c0.4,0.4,0.9,0.7,1.4,1c0.9,0.6,2,0.7,3,0.4
			C175.9,352,176.7,350.9,176.6,349.6"/>
		<path class="st8" d="M163,359.2c-0.1-1.1-0.7-1.9-1.3-2.7c-0.4-0.6-0.9-1.1-1.3-1.7c-0.1-0.2-0.2-0.4-0.4-0.6
			c-0.2-0.2-0.4-0.6-0.7-0.8c-0.5-0.6-1-1.2-1.6-1.6c-0.7-0.4-1.5-0.6-2.3-0.4c-1.6-0.2-3.3,0-4.7,0.9c-0.5,0.3-0.9,0.7-1.2,1.2
			c-0.2,0.1-0.3,0.2-0.5,0.4c-1.5,1.2-1.6,3.2-0.9,4.8c0.7,1.6,2.4,2.4,4.1,3c2,0.6,4,0.9,6,0.8C160.1,362.3,163.2,361.8,163,359.2"
			/>
		<path class="st8" d="M181.1,362.5c-1.3-0.6-2.6-0.9-4-1.1c-0.7-0.2-1.3-0.2-2-0.3c-0.6-0.2-1.1-0.2-1.7,0.1
			c-0.6,0.1-1.1,0.3-1.4,0.8s-0.3,1.2,0,1.8c0.1,0.2,0.2,0.3,0.3,0.4c0,0.1,0.1,0.2,0.1,0.2c0.5,0.9,1.4,1.2,2.3,1.6
			c0.7,0.3,1.5,0.6,2.3,0.8c0.2,0.1,0.6,0.2,0.9,0.2c0.6,0.2,1.2,0.4,1.8,0.3c0.8,0.1,1.6,0.2,2.4,0.2c0.8,0,1.4-0.6,1.7-1.3
			C184.7,364.4,182.6,363.1,181.1,362.5"/>
		<path class="st8" d="M187.3,352.7L187.3,352.7c-1-0.6-2-1.2-2.8-1.8c-0.7,0.4-1.3,1.1-1.5,1.9c-0.4,1.2,0,2.4,0.8,3.3
			c0.9,1.1,2.1,2.1,3.5,2.8c1.3,1.1,3.1,1.8,4.7,2.1c1.7,0.3,3.7,0.4,5.4-0.3c0.5-0.1,1-0.2,1.5-0.3c0.7-0.2,1.5-0.6,2-1.2
			C195.6,357.4,191.2,355.1,187.3,352.7"/>
		<path class="st8" d="M216,363.1c-0.1,0.4-0.2,0.9-0.4,1.3c-0.7,1.1-1.7,2-2.8,2.7c-1.1,0.7-2.4,1.2-3.7,0.9
			c-1.4-0.4-2.4-1.6-2.3-3.1c0-0.7,0.3-1.3,0.7-1.8c0.1-0.2,0.2-0.3,0.3-0.5c0-0.4,0.1-0.7,0.2-1.1c0.5,0.1,1,0.2,1.5,0.3
			C211.4,362.3,213.6,362.7,216,363.1"/>
		<path class="st8" d="M229,370.4c-0.8,0.3-1.7,0.3-2.6,0.2c-2.1-0.5-4.6-1.8-5.1-4.1c-0.2-0.9-0.2-2,0.2-2.7
			c1.7,0.1,3.4,0.2,5.1,0.2L229,370.4z"/>
		<path class="st8" d="M222.4,372.9c-0.2-0.3-0.7-0.6-1.1-0.7c-0.2-0.1-0.4-0.1-0.6-0.1c-0.8-0.2-1.7-0.2-2.5,0.1
			c-0.7,0.2-1.2,0.8-1.3,1.5c-0.1,0.2-0.1,0.5,0.1,0.7c0.2,0.7,0.7,1.2,1.1,1.6c0.2,0.2,0.4,0.4,0.7,0.6c0.8,0.5,2,0.6,2.8,0.1
			c0.1-0.1,0.1-0.1,0.2-0.1c0.2-0.1,0.4-0.2,0.7-0.4C223.6,375.2,223.4,373.8,222.4,372.9"/>
		<path class="st8" d="M230,382.7l-9.6,2.4c-0.1-0.2-0.1-0.3-0.1-0.5c-0.1-0.5,0.1-1.1,0.5-1.4c0.9-1.4,2.6-2,4.2-2
			c0.3,0,0.7,0.1,1.1,0.1C227.5,381.4,228.9,381.8,230,382.7"/>
		<path class="st8" d="M214.1,377.1c-0.9-1.4-2.4-1.8-3.8-2c-0.9-0.1-1.8,0-2.6,0.2c-0.5-0.1-0.9,0-1.3,0.2c-0.1,0-0.1,0-0.1,0.1
			c-0.2,0.1-0.5,0.2-0.7,0.4c-0.2,0.1-0.5,0.1-0.7,0.2c-0.2,0.1-0.3,0.1-0.4,0.2c-0.3,0-0.7,0-1.1,0c-0.8,0.1-1.5,0.5-1.7,1.3
			c-0.2,0.7-0.2,1.6-0.1,2.4c-0.2,1.1,0.2,2.3,1.1,3.1c0.4,0.3,0.8,0.6,1.3,0.7c1.1,1.8,3.4,2.6,5.4,2.1c2.3-0.5,4.2-2.6,4.6-4.8
			c0.2-0.2,0.3-0.6,0.4-0.8C214.8,379.3,214.7,378.1,214.1,377.1"/>
		<path class="st8" d="M214.3,389.3l-0.7,9.3c-2-0.6-3.4-2.4-3.4-4.6c0-1.3,0.6-2.6,1.5-3.6C212.4,389.8,213.3,389.4,214.3,389.3"/>
		<path class="st8" d="M197.8,365.9c-2.3,0-4.6,0.9-6.4,2.4c-1.8,0.4-3.6,1.1-4.5,2.8c-0.7,1.4-0.1,2.9,1.3,3.6
			c1.4,0.7,2.8,0.3,4.2-0.2c1.2-0.6,2.4-1.2,3.5-1.9c1.2-0.7,2.4-1.4,3.7-2c0.5-0.2,0.8-0.9,0.9-1.5c0.1-0.2,0.1-0.3,0.1-0.5
			C200.8,367,199.4,365.9,197.8,365.9"/>
		<path class="st8" d="M167.1,369.7c-0.1-0.4-0.4-0.8-0.8-1.1c-0.4-0.2-0.8-0.3-1.3-0.2c-0.1,0-0.2,0-0.3,0c-0.1,0-0.4,0-0.5,0.1
			c-0.1,0-0.3,0.2-0.4,0.2c-0.1,0.1-0.3,0.2-0.4,0.3c-0.1,0.1-0.1,0.2-0.2,0.2c-0.2,0.2-0.2,0.3-0.3,0.7c-0.2,0.7,0,1.5,0.5,2
			c0,0,0,0,0,0.1c0.1,0.1,0.2,0.2,0.4,0.3c0.1,0.1,0.2,0.1,0.2,0.1c0.1,0,0.2,0.1,0.2,0.1c0.2,0,0.3,0.1,0.5,0.1s0.3,0,0.5-0.1
			c0.2,0,0.4-0.1,0.6-0.2c0.2-0.1,0.3-0.2,0.5-0.3c0.1-0.1,0.1-0.1,0.2-0.2c0.2-0.2,0.3-0.4,0.5-0.7
			C167.1,370.5,167.2,370.1,167.1,369.7"/>
		<path class="st8" d="M146.3,370.1c-0.5,0.6-1.2,1-1.9,1.3c-1.5,0.7-3.2,0.7-4.7,0.3c0.6-2.4,1.4-5.4,2.4-8.5
			c0.2,0.1,0.3,0.2,0.5,0.3c0.7,0.6,1.4,1.1,2,1.7c0.7,0.6,1.4,1.1,1.9,1.8C147.2,368,147.1,369.2,146.3,370.1"/>
		<path class="st8" d="M150.3,382.7l-10.7-2.8c0-0.3,0.2-0.6,0.3-0.9c0.2-0.6,0.6-1.1,1.2-1.2c2.4-0.6,5.2-0.6,7.5,0.6
			c1,0.5,1.8,1.5,2,2.6C150.8,381.5,150.7,382.1,150.3,382.7"/>
		<path class="st8" d="M156,374c-0.2-0.2-0.4-0.3-0.6-0.4c-0.2-0.6-0.9-1.1-1.6-1.1c-0.7,0-1.3,0.2-1.8,0.7c-0.2,0.3-0.4,0.6-0.5,1
			c-0.1,0.4,0.1,0.7,0.2,1.1c0.6,1.2,2.1,2,3.5,1.6C156.5,376.6,156.9,374.9,156,374"/>
		<path class="st8" d="M163.8,386.8c-1.1,1.8-2.6,3.5-4.9,3.1c-0.5,0.2-1.1,0.2-1.6,0.2l-0.1-6.4c0.6-0.7,1.4-1.3,2.3-1.5
			c0.9-0.2,1.8,0.2,2.1,1.1c0.2,0.2,0.4,0.3,0.7,0.6c0,0.1,0.1,0.1,0.1,0.1c0.2,0.1,0.6,0.2,0.8,0.4
			C164,384.9,164.3,386,163.8,386.8"/>
		<path class="st8" d="M182.1,379.4c-0.6-1.1-1.6-1.6-2.7-2c-2.2-0.7-5-0.9-7.2-0.2c-1.2,0.4-2.3,1.3-2.6,2.6c0,0,0,0,0,0.1
			c-0.2,0.4-0.3,0.7-0.3,1.2c0,0.7,0.3,1.2,0.8,1.6c0.2,0.2,0.3,0.5,0.5,0.7c1.4,1.5,4,2.3,6,1.8c1.7,0,3.5-0.6,4.6-2
			C182.3,382.2,182.9,380.7,182.1,379.4"/>
		<path class="st8" d="M167.7,397c-3.1,0.7-6.3,1.7-9.8,2.8l-0.1-0.1h-0.1c-0.1,0.1-0.2,0.1-0.3,0.2v-4.2c1.4-0.7,2.9-1.1,4.5-1.3
			c1.3-0.2,2.5-0.2,3.7,0.4C166.4,395.3,167.3,396.1,167.7,397"/>
		<path class="st8" d="M174.7,390.2c-0.2-0.1-0.5-0.2-0.7-0.3c-0.9-0.3-2,0.3-2.1,1.2c-0.1,0.2-0.1,0.3-0.1,0.5
			c-0.5,0.4-0.9,1.1-0.9,1.8c0,1.4,1.1,2.1,2.4,2.3c0.8,0.3,1.8,0.2,2.5-0.3c0.3-0.1,0.6-0.2,0.9-0.4c0.6-0.2,0.8-0.9,0.9-1.5
			C177.7,391.9,176.3,390.4,174.7,390.2"/>
		<path class="st8" d="M196.5,384.9c-0.3-0.9-1.2-1.5-2.1-1.2c-0.4,0.1-0.7,0.3-1,0.5c-0.3-0.1-0.6-0.1-0.9,0
			c-1,0.3-1.4,1.2-1.2,2.1c0.3,1.5,2,2.4,3.4,2C196.1,387.9,197,386.3,196.5,384.9"/>
		<path class="st8" d="M190.5,394.2c-2.5,0-5.2,0.1-8,0.3c-0.3-0.8-0.3-1.7,0.2-2.5c0.2-0.4,0.6-0.7,1.1-0.8
			c0.2-0.2,0.4-0.5,0.7-0.7c0.8-0.5,2-0.4,2.9-0.3c1.1,0.2,2,0.6,2.6,1.4C190.4,392.4,190.7,393.4,190.5,394.2"/>
		<path class="st8" d="M205.5,390.6c-0.2-0.4-0.6-0.7-1.1-0.8c-0.4-0.1-0.9-0.1-1.3,0.2c-0.4,0.2-0.7,0.6-0.8,1.1l-0.2,0.7
			c-0.1,0.4-0.1,1,0.2,1.3c0.2,0.4,0.6,0.7,1.1,0.8c0.4,0.1,0.9,0.1,1.3-0.2c0.4-0.2,0.7-0.6,0.8-1.1c0.1-0.2,0.2-0.5,0.2-0.7
			C205.9,391.5,205.8,391,205.5,390.6"/>
		<path class="st8" d="M199.5,394.9c-1.8-0.2-3.7-0.4-5.8-0.5c0.2-0.8,0.7-1.5,1.5-1.7c0.1-0.1,0.2-0.1,0.4-0.1
			c0.5-0.2,1.1-0.2,1.6,0.1c0.2,0.1,0.3,0.2,0.4,0.3h0.1C198.6,393.4,199.2,394,199.5,394.9"/>
		<path class="st8" d="M173.7,342c-0.2,0.2-0.4,0.4-0.7,0.5c-0.7,0.4-1.6,0.3-2.3,0c-1.4-0.2-2.4-1.5-2.1-2.9
			c0.2-0.7,0.7-1.2,1.2-1.6c0.1-0.1,0.1-0.1,0.1-0.1C170.8,338.9,172,340.4,173.7,342"/>
	</g>
	<path class="st9" d="M186.1,340.6c-4.1,0-7.2-1-8.7-2.9c-1.7-2.1-1.3-4.5-1.2-4.6c0-0.2,0.2-0.2,0.3-0.2c0.2,0,0.2,0.2,0.2,0.3
		c0,0.1-0.4,2.2,1.1,4.1c1.5,1.8,4.3,2.8,8.2,2.8c3.7,0,6.2-0.9,7.6-2.6c1.5-2,1.1-4.2,1.1-4.2c0-0.2,0.1-0.3,0.2-0.3
		c0.2,0,0.3,0.1,0.3,0.2c0,0.1,0.5,2.6-1.2,4.7C192.6,339.7,189.9,340.6,186.1,340.6"/>
	<path class="st9" d="M186.2,345.3c-3.7,0-6.5-1.1-8.4-3.3c-3-3.5-2.4-8.5-2.4-8.6c0-0.2,0.2-0.2,0.3-0.2c0.2,0,0.2,0.2,0.2,0.3
		c0,0.1-0.6,5,2.3,8.2c1.8,2,4.4,3,8,3c3.2,0,5.6-0.9,7.2-2.8c2.8-3.3,2.2-8.4,2.2-8.5c0-0.2,0.1-0.3,0.2-0.3c0.2,0,0.3,0.1,0.3,0.2
		c0,0.2,0.7,5.4-2.4,8.9C192.1,344.3,189.5,345.3,186.2,345.3"/>
	<path class="st11" d="M157.6,394.4c-0.1,0-0.2-0.1-0.2-0.2c-0.1-0.2,0.1-0.3,0.2-0.3c17.2-4.4,31.5-4.3,40.5-3.5
		c9.8,0.9,15.5,2.9,15.6,2.9c0.2,0.1,0.2,0.2,0.2,0.4c-0.1,0.2-0.2,0.2-0.4,0.2c-0.1,0-5.8-2-15.5-2.9
		C189,390.1,174.7,390.1,157.6,394.4L157.6,394.4"/>
	<path class="st1" d="M207.5,325c-1.8,0-3.5-1.1-4.6-3.1c-0.1-0.2,0-0.3,0.1-0.4c0.2-0.1,0.3,0,0.4,0.1c1,1.8,2.5,2.8,4.1,2.8
		c2.9,0,5.3-3.3,5.3-7.3s-2.4-7.3-5.3-7.3c-0.2,0-0.3-0.1-0.3-0.3c0-0.2,0.1-0.3,0.3-0.3c3.3,0,5.9,3.5,5.9,7.9
		C213.4,321.4,210.7,325,207.5,325"/>
	<path class="st1" d="M161.9,325c-3.1,0-5.7-3.6-5.7-8s2.5-8,5.7-8c0.2,0,0.3,0.1,0.3,0.3c0,0.2-0.1,0.3-0.3,0.3
		c-2.8,0-5.1,3.3-5.1,7.4s2.3,7.4,5.1,7.4c1.5,0,3-1,4-2.8c0.1-0.2,0.2-0.2,0.4-0.1c0.2,0.1,0.2,0.2,0.1,0.4
		C165.3,324,163.7,325,161.9,325"/>
	<path class="st1" d="M188.1,426.7c-3.7,0-7.4-0.6-11.2-1.8c-8-2.5-13.5-6.7-13.6-6.8c-0.1-0.1-0.2-0.2-0.1-0.4
		c0.1-0.1,0.2-0.2,0.4-0.1c0.1,0.1,5.5,4.3,13.4,6.7c7.2,2.3,18.1,3.5,28.6-3.7c0.1-0.1,0.3-0.1,0.4,0.1c0.1,0.1,0.1,0.3-0.1,0.4
		c-4.7,3.3-9.9,5.1-15.4,5.5C189.8,426.7,188.9,426.7,188.1,426.7"/>
	<path class="st11" d="M220.7,366.9c-6.5,0-12.9-1.1-19.3-3.1c-6.8-2.2-13.6-5.6-19.9-10.2c-10.9-7.7-17.2-16-17.2-16.1
		c-0.1-0.1-0.1-0.3,0.1-0.4c0.1-0.1,0.3-0.1,0.4,0.1c0.1,0.1,6.3,8.4,17.1,16c10,7.1,25.9,15,45.7,12.8c0.2,0,0.3,0.1,0.3,0.2
		s-0.1,0.3-0.2,0.3C225.2,366.8,222.9,366.9,220.7,366.9"/>
	<path class="st9" d="M301.2,433.3c-1.1,0-1.6-0.7-2.1-1.3c-0.4-0.6-0.8-1.1-1.6-1.1c-0.8,0-1.2,0.5-1.6,1.1c-0.5,0.6-1,1.3-2.1,1.3
		s-1.6-0.7-2.1-1.3c-0.4-0.6-0.8-1.1-1.6-1.1c-0.8,0-1.2,0.5-1.6,1.1c-0.5,0.6-1,1.3-2.1,1.3c-1.1,0-1.6-0.7-2.1-1.3
		c-0.4-0.6-0.8-1.1-1.6-1.1v-0.6c1.1,0,1.6,0.7,2.1,1.3c0.4,0.6,0.8,1.1,1.6,1.1c0.8,0,1.2-0.5,1.6-1.1c0.5-0.6,1-1.3,2.1-1.3
		c1.1,0,1.6,0.7,2.1,1.3c0.4,0.6,0.8,1.1,1.6,1.1s1.2-0.5,1.6-1.1c0.5-0.6,1-1.3,2.1-1.3c1.1,0,1.6,0.7,2.1,1.3
		c0.4,0.6,0.8,1.1,1.6,1.1V433.3z"/>
	<path class="st9" d="M301.2,435.1v0.6c-0.1,0-0.1,0-0.2,0c-1-0.1-1.5-0.7-2-1.3s-0.9-1.1-1.7-1.1s-1.2,0.5-1.7,1.1
		s-1.1,1.3-2.1,1.3c-1.1,0-1.6-0.7-2.1-1.3c-0.5-0.6-0.9-1.1-1.7-1.1c-0.8,0-1.2,0.5-1.7,1.1s-1.1,1.3-2.1,1.3s-1.6-0.7-2.1-1.3
		c-0.5-0.6-0.9-1.1-1.7-1.1l0,0v-0.6h0.1c1.1,0,1.6,0.7,2,1.3c0.5,0.6,0.9,1.1,1.7,1.1s1.2-0.5,1.7-1.1c0.5-0.6,1.1-1.3,2.1-1.3
		c1.1,0,1.6,0.7,2.1,1.3c0.5,0.6,0.9,1.1,1.7,1.1c0.8,0,1.2-0.5,1.7-1.1c0.5-0.6,1.1-1.3,2.1-1.3c1.1,0,1.6,0.7,2.1,1.3
		c0.4,0.5,0.8,1,1.5,1.1C301.1,435.1,301.2,435.1,301.2,435.1"/>
	<g class="st12">
		<g>
			<g>
				<g>
					<g>
						<defs>
							<rect id="SVGID_1_" x="282.1" y="433.4" width="18.9" height="25.7"/>
						</defs>
						<clipPath id="SVGID_2_">
							<use xlink:href="#SVGID_1_"  style="overflow:visible;"/>
						</clipPath>
						<path class="st13" d="M301,435.7v14.8c0,4.7-3.8,8.5-8.5,8.5h-1.9c-4.7,0-8.5-3.8-8.5-8.5v-16.3c0-0.2,0-0.5,0-0.7
							c0.8,0,1.2,0.5,1.7,1.1c0.5,0.6,1.1,1.3,2.1,1.3c1.1,0,1.6-0.7,2.1-1.3c0.5-0.6,0.9-1.1,1.7-1.1s1.2,0.5,1.7,1.1
							c0.5,0.6,1.1,1.3,2.1,1.3c1.1,0,1.6-0.7,2.1-1.3c0.5-0.6,0.9-1.1,1.7-1.1c0.8,0,1.2,0.5,1.7,1.1
							C299.5,435,300,435.6,301,435.7"/>
					</g>
				</g>
			</g>
		</g>
	</g>
	<path class="st9" d="M292.5,425h-1.9c-5,0-9.1,4.1-9.1,9.1v16.3c0,5,4.1,9.1,9.1,9.1h1.9c5,0,9.1-4.1,9.1-9.1v-16.3
		C301.6,429.1,297.5,425,292.5,425 M301,450.5c0,4.7-3.8,8.5-8.5,8.5h-1.9c-4.7,0-8.5-3.8-8.5-8.5v-16.3c0-0.2,0-0.5,0-0.7
		c0-0.2,0.1-0.4,0.1-0.6c0.7-4.1,4.1-7.2,8.5-7.2h1.9c4.7,0,8.5,3.8,8.5,8.5V450.5L301,450.5z"/>
	<rect x="287.3" y="419.4" class="st9" width="8.5" height="5.3"/>
	<path class="st11" d="M285.1,450c-0.3,0-0.6-0.2-0.6-0.6v-11c0-0.3,0.2-0.6,0.6-0.6c0.3,0,0.6,0.2,0.6,0.6v11
		C285.7,449.7,285.5,450,285.1,450"/>
	<path class="st11" d="M287.3,456c-0.1,0-0.2-0.1-0.4-0.1c-0.6-0.4-1.1-0.9-1.5-1.5c-0.2-0.2-0.2-0.6,0.1-0.8
		c0.2-0.2,0.6-0.2,0.8,0.1c0.4,0.5,0.8,0.9,1.3,1.3c0.2,0.2,0.3,0.6,0.1,0.8C287.6,455.9,287.4,456,287.3,456"/>
</g>
<g>
	<path class="st1" d="M94.7,280.2c-2.1,0-3-2.1-4-4.2c-0.9-2-1.8-3.8-3.4-3.8c-1.6,0-2.5,1.9-3.4,3.8c-1,2.1-2,4.2-4,4.2
		s-3-2.1-4-4.2c-0.9-2-1.8-3.8-3.4-3.8c-1.7,0-2.5,1.9-3.4,3.8c-1,2.1-2,4.2-4,4.2c-2.1,0-3-2.1-4-4.2c-0.9-2-1.8-3.8-3.4-3.8
		c-0.2,0-0.4-0.1-0.4-0.4c0-0.2,0.1-0.4,0.4-0.4c2.1,0,3,2.1,4,4.2c0.9,2,1.8,3.8,3.4,3.8c1.7,0,2.5-1.9,3.4-3.8c1-2.1,2-4.2,4-4.2
		s3,2.1,4,4.2c0.9,2,1.8,3.8,3.4,3.8c1.6,0,2.5-1.9,3.4-3.8c1-2.1,2-4.2,4-4.2c2.1,0,3,2.1,4,4.2c0.9,2,1.8,3.8,3.4,3.8
		c1.7,0,2.5-1.9,3.4-3.8c1-2.1,2-4.2,4-4.2c0.2,0,0.4,0.1,0.4,0.4c0,0.2-0.1,0.4-0.4,0.4c-1.7,0-2.5,1.9-3.4,3.8
		C97.8,278,96.8,280.2,94.7,280.2"/>
	<path class="st9" d="M315.1,330c-2.3,0-3.4-2.3-4.3-4.3c-0.9-1.9-1.7-3.6-3.1-3.6s-2.3,1.8-3.1,3.6c-1,2.1-2.1,4.3-4.3,4.3
		c-2.3,0-3.4-2.3-4.3-4.3c-0.9-1.9-1.7-3.6-3.1-3.6s-2.3,1.8-3.1,3.6c-1,2.1-2.1,4.3-4.3,4.3s-3.4-2.3-4.3-4.3
		c-0.9-1.9-1.7-3.6-3.1-3.6c-0.4,0-0.6-0.3-0.6-0.6c0-0.4,0.3-0.6,0.6-0.6c2.3,0,3.4,2.3,4.3,4.3c0.9,1.9,1.7,3.6,3.1,3.6
		s2.3-1.8,3.1-3.6c1-2.1,2.1-4.3,4.3-4.3s3.4,2.3,4.3,4.3c0.9,1.9,1.7,3.6,3.1,3.6s2.3-1.8,3.1-3.6c1-2.1,2.1-4.3,4.3-4.3
		c2.3,0,3.4,2.3,4.3,4.3c0.9,1.9,1.7,3.6,3.1,3.6s2.3-1.8,3.1-3.6c1-2.1,2.1-4.3,4.3-4.3c0.4,0,0.6,0.3,0.6,0.6
		c0,0.4-0.3,0.6-0.6,0.6c-1.4,0-2.3,1.8-3.1,3.6C318.4,327.6,317.4,330,315.1,330"/>
	<path class="st9" d="M94.7,292.9c-2.1,0-3-2.1-4-4.2c-0.9-2-1.8-3.8-3.4-3.8c-1.6,0-2.5,1.9-3.4,3.8c-1,2.1-2,4.2-4,4.2
		s-3-2.1-4-4.2c-0.9-2-1.8-3.8-3.4-3.8c-1.7,0-2.5,1.9-3.4,3.8c-1,2.1-2,4.2-4,4.2c-2.1,0-3-2.1-4-4.2c-0.9-2-1.8-3.8-3.4-3.8
		c-0.2,0-0.4-0.1-0.4-0.4c0-0.2,0.1-0.4,0.4-0.4c2.1,0,3,2.1,4,4.2c0.9,2,1.8,3.8,3.4,3.8c1.7,0,2.5-1.9,3.4-3.8c1-2.1,2-4.2,4-4.2
		s3,2.1,4,4.2c0.9,2,1.8,3.8,3.4,3.8c1.6,0,2.5-1.9,3.4-3.8c1-2.1,2-4.2,4-4.2c2.1,0,3,2.1,4,4.2c0.9,2,1.8,3.8,3.4,3.8
		c1.7,0,2.5-1.9,3.4-3.8c1-2.1,2-4.2,4-4.2c0.2,0,0.4,0.1,0.4,0.4c0,0.2-0.1,0.4-0.4,0.4c-1.7,0-2.5,1.9-3.4,3.8
		C97.8,290.7,96.8,292.9,94.7,292.9"/>
</g>
<path class="st0" d="M314.2,261.3c0,9.6-7.8,17.3-17.3,17.3s-17.3-7.8-17.3-17.3c0-9.6,7.8-17.3,17.3-17.3
	C306.4,243.9,314.2,251.7,314.2,261.3"/>
<path class="st1" d="M287.7,274.6c-9.7,0-17.6-7.9-17.6-17.6c0-9.7,7.9-17.6,17.6-17.6c9.7,0,17.6,7.9,17.6,17.6
	C305.4,266.7,297.4,274.6,287.7,274.6 M287.7,239.8c-9.4,0-17.1,7.7-17.1,17.1c0,9.4,7.7,17.1,17.1,17.1s17.1-7.7,17.1-17.1
	C304.8,247.5,297.2,239.8,287.7,239.8"/>
</svg>
