<?xml version="1.0" encoding="utf-8"?>
<!-- Generator: Adobe Illustrator 23.0.3, SVG Export Plug-In . SVG Version: 6.00 Build 0)  -->
<svg version="1.1" id="Layer_1" xmlns="http://www.w3.org/2000/svg" xmlns:xlink="http://www.w3.org/1999/xlink" x="0px" y="0px"
	 viewBox="0 0 2000 1500" style="enable-background:new 0 0 2000 1500;" xml:space="preserve">
<style type="text/css">
	.st0{fill:#FFEFB6;}
	.st1{fill:#A57A67;}
	.st2{fill:#FFE2D7;}
	.st3{fill:#FFC9CB;}
	.st4{fill:#EDC9EA;}
	.st5{fill:#FFC9CB;stroke:#A57A67;stroke-miterlimit:10;}
	.st6{fill:#A57A67;stroke:#A57A67;stroke-miterlimit:10;}
	.st7{fill:#F79898;stroke:#A57A67;stroke-miterlimit:10;}
	.st8{fill:#FFFFFF;stroke:#A57A67;stroke-miterlimit:10;}
	.st9{fill:#FECE60;}
	.st10{opacity:0.5;}
	.st11{fill:#FFFFFF;}
	.st12{opacity:0.24;}
	.st13{clip-path:url(#SVGID_2_);fill:#A57A67;}
</style>
<g>
	<g>
		<path class="st0" d="M608.1,760.7c-6.5,0-9.6-6.7-12.6-13.1c-2.9-6.1-5.6-11.9-10.8-11.9c-5.2,0-7.9,5.8-10.8,11.9
			c-3,6.4-6.1,13.1-12.6,13.1c-6.5,0-9.6-6.7-12.6-13.1c-2.9-6.1-5.6-11.9-10.8-11.9s-7.9,5.8-10.8,11.9c-3,6.4-6.1,13.1-12.6,13.1
			c-6.5,0-9.6-6.7-12.6-13.1c-2.9-6.1-5.6-11.9-10.8-11.9c-0.5,0-1-0.4-1-1c0-0.5,0.4-1,1-1c6.5,0,9.6,6.7,12.6,13.1
			c2.9,6.1,5.6,11.9,10.8,11.9s7.9-5.8,10.8-11.9c3-6.4,6.1-13.1,12.6-13.1c6.5,0,9.6,6.7,12.6,13.1c2.9,6.1,5.6,11.9,10.8,11.9
			s7.9-5.8,10.8-11.9c3-6.4,6.1-13.1,12.6-13.1c6.5,0,9.6,6.7,12.6,13.1c2.9,6.1,5.6,11.9,10.8,11.9c5.2,0,7.9-5.8,10.8-11.9
			c3-6.4,6.1-13.1,12.6-13.1c0.5,0,1,0.4,1,1c0,0.5-0.4,1-1,1c-5.2,0-7.9,5.8-10.8,11.9C617.7,754,614.7,760.7,608.1,760.7"/>
		<path class="st1" d="M1300.9,782c-7.2,0-10.6-7.3-13.6-13.6c-2.7-5.8-5.3-11.3-9.9-11.3s-7.2,5.5-9.9,11.3
			c-3,6.4-6.4,13.6-13.6,13.6c-7.2,0-10.6-7.3-13.6-13.6c-2.7-5.8-5.3-11.3-9.9-11.3c-4.6,0-7.2,5.5-9.9,11.3
			c-3,6.4-6.4,13.6-13.6,13.6c-7.2,0-10.6-7.3-13.6-13.6c-2.7-5.8-5.3-11.3-9.9-11.3c-1.1,0-2-0.9-2-2c0-1.1,0.9-2,2-2
			c7.2,0,10.6,7.3,13.6,13.6c2.7,5.8,5.3,11.3,9.9,11.3c4.6,0,7.2-5.5,9.9-11.3c3-6.4,6.4-13.6,13.6-13.6c7.2,0,10.6,7.3,13.6,13.6
			c2.7,5.8,5.3,11.3,9.9,11.3s7.2-5.5,9.9-11.3c3-6.4,6.4-13.6,13.6-13.6c7.2,0,10.6,7.3,13.6,13.6c2.7,5.8,5.3,11.3,9.9,11.3
			c4.6,0,7.2-5.5,9.9-11.3c3-6.4,6.4-13.6,13.6-13.6c1.1,0,2,0.9,2,2c0,1.1-0.9,2-2,2c-4.6,0-7.2,5.5-9.9,11.3
			C1311.5,774.8,1308.1,782,1300.9,782"/>
		<path class="st1" d="M608.1,800.6c-6.5,0-9.6-6.7-12.6-13.1c-2.9-6.1-5.6-11.9-10.8-11.9c-5.2,0-7.9,5.8-10.8,11.9
			c-3,6.4-6.1,13.1-12.6,13.1c-6.5,0-9.6-6.7-12.6-13.1c-2.9-6.1-5.6-11.9-10.8-11.9s-7.9,5.8-10.8,11.9c-3,6.4-6.1,13.1-12.6,13.1
			c-6.5,0-9.6-6.7-12.6-13.1c-2.9-6.1-5.6-11.9-10.8-11.9c-0.5,0-1-0.4-1-1c0-0.5,0.4-1,1-1c6.5,0,9.6,6.7,12.6,13.1
			c2.9,6.1,5.6,11.9,10.8,11.9s7.9-5.8,10.8-11.9c3-6.4,6.1-13.1,12.6-13.1c6.5,0,9.6,6.7,12.6,13.1c2.9,6.1,5.6,11.9,10.8,11.9
			s7.9-5.8,10.8-11.9c3-6.4,6.1-13.1,12.6-13.1c6.5,0,9.6,6.7,12.6,13.1c2.9,6.1,5.6,11.9,10.8,11.9c5.2,0,7.9-5.8,10.8-11.9
			c3-6.4,6.1-13.1,12.6-13.1c0.5,0,1,0.4,1,1c0,0.5-0.4,1-1,1c-5.2,0-7.9,5.8-10.8,11.9C617.7,794,614.7,800.6,608.1,800.6"/>
		<path class="st0" d="M1329.2,514.4c-6.5,0-9.6-6.7-12.6-13.1c-2.9-6.1-5.6-11.9-10.8-11.9c-5.2,0-7.9,5.8-10.8,11.9
			c-3,6.4-6.1,13.1-12.6,13.1c-6.5,0-9.6-6.7-12.6-13.1c-2.9-6.1-5.6-11.9-10.8-11.9s-7.9,5.8-10.8,11.9c-3,6.4-6.1,13.1-12.6,13.1
			c-6.5,0-9.6-6.7-12.6-13.1c-2.9-6.1-5.6-11.9-10.8-11.9c-0.5,0-1-0.4-1-1c0-0.5,0.4-1,1-1c6.5,0,9.6,6.7,12.6,13.1
			c2.9,6.1,5.6,11.9,10.8,11.9s7.9-5.8,10.8-11.9c3-6.4,6.1-13.1,12.6-13.1c6.5,0,9.6,6.7,12.6,13.1c2.9,6.1,5.6,11.9,10.8,11.9
			c5.2,0,7.9-5.8,10.8-11.9c3-6.4,6.1-13.1,12.6-13.1s9.6,6.7,12.6,13.1c2.9,6.1,5.6,11.9,10.8,11.9s7.9-5.8,10.8-11.9
			c3-6.4,6.1-13.1,12.6-13.1c0.5,0,1,0.4,1,1c0,0.5-0.4,1-1,1c-5.2,0-7.9,5.8-10.8,11.9C1338.8,507.8,1335.7,514.4,1329.2,514.4"/>
		<path class="st1" d="M1329.2,554.4c-6.5,0-9.6-6.7-12.6-13.1c-2.9-6.1-5.6-11.9-10.8-11.9c-5.2,0-7.9,5.8-10.8,11.9
			c-3,6.4-6.1,13.1-12.6,13.1c-6.5,0-9.6-6.7-12.6-13.1c-2.9-6.1-5.6-11.9-10.8-11.9s-7.9,5.8-10.8,11.9c-3,6.4-6.1,13.1-12.6,13.1
			c-6.5,0-9.6-6.7-12.6-13.1c-2.9-6.1-5.6-11.9-10.8-11.9c-0.5,0-1-0.4-1-1s0.4-1,1-1c6.5,0,9.6,6.7,12.6,13.1
			c2.9,6.1,5.6,11.9,10.8,11.9s7.9-5.8,10.8-11.9c3-6.4,6.1-13.1,12.6-13.1c6.5,0,9.6,6.7,12.6,13.1c2.9,6.1,5.6,11.9,10.8,11.9
			c5.2,0,7.9-5.8,10.8-11.9c3-6.4,6.1-13.1,12.6-13.1s9.6,6.7,12.6,13.1c2.9,6.1,5.6,11.9,10.8,11.9s7.9-5.8,10.8-11.9
			c3-6.4,6.1-13.1,12.6-13.1c0.5,0,1,0.4,1,1s-0.4,1-1,1c-5.2,0-7.9,5.8-10.8,11.9C1338.8,547.8,1335.7,554.4,1329.2,554.4"/>
		<path class="st2" d="M1168.3,580.3c0,93.2-75.6,168.7-168.7,168.7c-93.2,0-168.6-75.6-168.6-168.7s75.6-168.7,168.7-168.7
			S1168.3,487.2,1168.3,580.3"/>
		<path class="st0" d="M957.5,707.9c-22.9,0-45.2-4.5-66.1-13.3c-20.2-8.5-38.3-20.7-54-36.4c-15.6-15.6-27.8-33.7-36.4-54
			c-8.9-20.9-13.3-43.1-13.3-66.1c0-22.9,4.5-45.2,13.3-66.1c8.5-20.2,20.7-38.3,36.4-54c15.6-15.6,33.7-27.8,54-36.4
			c20.9-8.9,43.1-13.3,66.1-13.3s45.2,4.5,66.1,13.3c20.2,8.5,38.3,20.7,54,36.4s27.8,33.7,36.4,54c8.9,20.9,13.3,43.1,13.3,66.1
			c0,22.9-4.5,45.2-13.3,66.1c-8.5,20.2-20.7,38.3-36.4,54c-15.6,15.6-33.7,27.8-54,36.4C1002.7,703.4,980.4,707.9,957.5,707.9
			 M957.5,370.5c-92.5,0-167.7,75.2-167.7,167.7S865,705.9,957.5,705.9s167.7-75.2,167.7-167.7S1050,370.5,957.5,370.5"/>
	</g>
	<rect x="965.6" y="588.4" class="st3" width="62.1" height="66.9"/>
	<g>
		<path class="st4" d="M1027.7,588.4v13.1c-16.2,25.8-52.8,19.2-62.1,17.1v-30.1L1027.7,588.4L1027.7,588.4z"/>
		<path class="st5" d="M1074,526.3c-0.5-0.2-0.9-0.3-1.5-0.3c-0.2-43-35.2-72.5-78.3-72.5S916.1,483,915.9,526
			c-0.4,0.1-0.9,0.2-1.4,0.3c-6.5,1.8-9.9,8-7.8,16c2.1,7.6,8.7,14,14.9,12.8c12.6,30.9,43.5,55.1,72.5,55.1
			c28.7,0,59.8-24.2,72.4-55.1c6.3,1.3,13-5.1,15.1-12.8C1083.9,534.3,1080.4,528.1,1074,526.3"/>
		<path class="st6" d="M965.7,528.6c0,0.3,0,0.6-0.1,0.9c-0.4,3.2-3.2,5.7-6.5,5.7c-3.4,0-6.3-2.6-6.5-6.1c0-0.2,0-0.3,0-0.4
			c0-0.4,0-0.9,0.1-1.3c5-1.3,9.5-0.6,12.9,0.4C965.7,528,965.7,528.3,965.7,528.6"/>
		<path class="st6" d="M1036.2,528.6c0,0.3,0,0.5-0.1,0.8c-0.3,3.2-3.2,5.8-6.5,5.8c-3.4,0-6.2-2.6-6.5-6c0-0.2,0-0.3,0-0.6
			c0-0.4,0-0.8,0.1-1.1c4.9-1.4,9.5-0.8,12.9,0.2C1036.2,527.9,1036.2,528.3,1036.2,528.6"/>
		<path class="st6" d="M995.6,561.5l-0.2-1.3c-4.2,0.4-7.9-1.3-9.4-4.4c-1.3-2.9-0.3-6.2,2.9-9.1c8.2-7.6,7.6-14.2,7.6-14.5
			l-1.3,0.2l0.7-0.1l-0.7,0.1c0,0.1,0.5,6.3-7.2,13.4c-3.6,3.3-4.8,7.3-3.2,10.7C986.5,559.9,990.9,562,995.6,561.5"/>
		<path class="st6" d="M939.6,521.7c0,0,4-4.3,9.3-4.4c7.4-0.1,16.8,3.6,16.6-1.6c-0.2-5-14-3.3-18-1.8
			C941.9,516.1,938.8,520.1,939.6,521.7"/>
		<path class="st7" d="M953.7,553.4c0,7.5-6.1,13.7-13.7,13.7s-13.7-6.1-13.7-13.7c0-7.5,6.1-13.7,13.7-13.7
			S953.7,545.8,953.7,553.4"/>
		<path class="st7" d="M1065.8,553.4c0,7.5-6.1,13.7-13.7,13.7c-7.5,0-13.7-6.1-13.7-13.7c0-7.5,6.1-13.7,13.7-13.7
			C1059.7,539.7,1065.8,545.8,1065.8,553.4"/>
		<path class="st6" d="M994.9,579.6c-9.6,0-16.8-7.2-17.1-7.4c-0.4-0.4-0.3-1,0-1.5c0.4-0.4,1-0.3,1.5,0c0.1,0.1,6.8,6.8,15.6,6.8
			l0,0c5.1,0,10-2.3,14.4-6.8c0.4-0.4,1-0.4,1.5,0s0.4,1,0,1.5C1006,577,1000.6,579.6,994.9,579.6"/>
		<path class="st6" d="M971.6,531.4c-0.2,0.3-0.4,0.3-0.7,0.3c-0.2,0-0.3,0-0.4-0.2c-0.1,0-2-1.3-4.9-2.2c-3.3-1.1-7.9-1.9-13-0.4
			c-1.8,0.5-3.7,1.4-5.6,2.6c-0.3,0.3-0.9,0.2-1.1-0.3c-0.3-0.3-0.2-0.9,0.3-1.1c2.2-1.5,4.4-2.4,6.5-3c5-1.3,9.5-0.6,12.9,0.4
			c3.5,1.1,5.7,2.5,5.7,2.6C971.8,530.6,971.8,531.1,971.6,531.4"/>
		<path class="st6" d="M1042.5,531.4c-0.2,0.3-0.4,0.3-0.7,0.3c-0.2,0-0.3,0-0.4-0.2c-0.1,0-2-1.4-5.2-2.3c-3.3-1-8-1.8-13-0.2
			c-1.7,0.5-3.4,1.4-5.2,2.5c-0.3,0.3-0.9,0.2-1.1-0.3c-0.3-0.3-0.2-0.9,0.3-1.1c2-1.4,4.1-2.3,6.1-2.8c4.9-1.4,9.5-0.8,12.9,0.2
			c3.7,1.1,6.1,2.6,6.1,2.6C1042.6,530.6,1042.7,531.1,1042.5,531.4"/>
		<path class="st6" d="M919.2,546.6c-1.7-0.9-3.1-2.5-3.8-4.3c-0.7-2-0.6-4.2,0.3-6.1c0.4-0.9,1.1-2.1,2.2-2.2c1-0.1,1-1.6,0-1.6
			c-1.4,0.1-2.3,1-3.1,2c-0.8,1.1-1.2,2.4-1.5,3.7c-0.4,2.6,0.2,5.1,1.7,7.2c0.9,1.1,1.9,2,3.1,2.6
			C919.3,548.5,920.2,547,919.2,546.6"/>
		<path class="st6" d="M1074,546.6c1.7-0.9,3.1-2.5,3.8-4.3c0.7-2,0.6-4.2-0.3-6.1c-0.4-0.9-1.1-2.1-2.2-2.2c-1-0.1-1-1.6,0-1.6
			c1.4,0.1,2.3,1,3.1,2c0.8,1.1,1.2,2.4,1.5,3.7c0.4,2.6-0.2,5.1-1.7,7.2c-0.9,1.1-1.9,2-3.1,2.6C1074,548.5,1073.1,547,1074,546.6"
			/>
		<path class="st6" d="M1072.8,570.3c-2-3.3-4.4-6.5-6.5-9.7c-2-3.1-3.9-6.3-5-9.9c-1.1-3.8-0.8-7.8,0.9-11.4
			c2-4.4,5.2-8.3,7.2-12.7c1.1-2.5,1.7-5.1,2-7.8c1.9,5.1,3.1,9.1,3.5,9.6c0.1,0.2,0.2,0.1,0.2-0.4c6.2-12,9.7-25.4,9.7-39.8
			c0-39.1-16.1-72.2-56.7-83.3c0.4-2.1,0.8-4.3,1-6.5c0.8-7.8-0.2-15.8-2.5-23.2c-2.4-7.5-6.3-14.6-11.6-20.4
			c-3-3.2-6.4-6.2-10.2-8.4c-4.4-2.5-9.1-3.7-14.1-3.7c-4.4,0-8.8,0.9-13,2c-0.8,0-1.5-0.1-2.3-0.1c-5.7,0-11.2,0.9-16.3,2.3
			c-2.1-0.2-4.4,0.3-6.4,1c-3.4,1.3-6.6,3.2-9.6,5.3c-6,3.9-11.6,8.4-16.1,13.9c-4.3,5.3-7.2,11.4-8.3,18.1
			c-1.1,6.5-0.7,13.1,1,19.5c1.7,6.4,4.7,12.5,8.7,17.7c0.5,0.7,1,1.4,1.6,2c0.1,0.1,0.2,0.2,0.3,0.2c-15.9,16-23.5,38.5-23.5,63.6
			c0,14.8,3.8,28.7,10.3,40.8c0.6,2.1,0.9,3.3,0.9,3.3s0.1-0.4,0.2-1.3c0.8-5.5,4.5-27.2,13.1-32.4c4.1-2.5,8-2.5,12.4-2.9
			c-4.7,3-9.1,6.4-12.2,11c-3,4.5-4.8,9.8-5.1,15.2c-0.4,5.7,1.1,11,3,16.3c1.9,5.3,4.1,10.9,3.4,16.7c-0.7,5.5-4.5,9.5-8,13.5
			c-1.7,1.9-3.3,3.8-4.5,6.1c-1.1,2-2,4.3-2.6,6.5c-2.2,9.1,0,19.2,6.2,26.2c0.8,0.9,1.6,1.7,2.5,2.5c0.9,0.7,2-0.5,1.2-1.2
			c-7-6-10.2-15.8-8.7-24.8c0.8-4.8,2.8-9,5.9-12.6c3.3-4,7.3-7.7,9-12.7c1.8-5.5,0.4-11.2-1.4-16.4c-1.8-5.4-4.1-10.7-4.4-16.4
			c-0.3-5.3,0.9-10.7,3.4-15.4c2.6-5,6.7-8.7,11.4-11.8c1.7-1.1,3.4-2.2,5.2-3.2c0.9-0.2,1.7-0.4,2.6-0.8c0.9,0.3,1.9,0.7,2.7,1
			c4.8,2,9.6,4.4,15,4.1c4.2-0.3,8.6-2.1,10.3-6.2c1-2.5,0.5-5.3,1.6-7.8c0.9-2,2.6-3.7,4.4-4.7s4.2-1.5,6.3-1
			c2.8,0.6,5.2,2.5,7.7,3.8c9.1,4.8,20.7,4.1,29.2-1.7c3.4-2.3,6.1-5.4,8.2-9c0.6,5.9,3.3,18.7,15.7,20.4
			c7.8,1.1,13.6,11.6,17.4,20.9c0.3,3.2,0,6.5-1,9.6c-1.5,4.6-4.8,8.5-7,12.8c-1.1,2.1-2,4.4-2.4,6.7c-0.3,1.9-0.3,3.7,0.1,5.6
			c0.6,3.6,2.3,7,4.2,10.1c2,3.3,4.4,6.4,6.4,9.6c2,3.1,3.9,6.2,4.9,9.7c0.4,1.6,0.7,3.3,0.7,5c-0.1,2.1-0.7,4.2-1.5,6.1
			c-1.8,4.3-4.6,8.4-5,13.1c-0.1,1.1,0,2.2,0.3,3.3c0.3,1.1,2,0.6,1.6-0.4c-1.1-4.6,1.6-9.1,3.5-13.1c1-2.1,2-4.4,2.4-6.7
			c0.3-1.9,0.3-3.7,0.1-5.6C1076.2,576.8,1074.6,573.4,1072.8,570.3 M934.2,420.9c-0.9,0.9-1.9,1.7-2.8,2.6c0-0.1-0.1-0.3-0.2-0.3
			c-4.1-4.8-7.3-10.5-9.1-16.5c-2-6-2.7-12.4-2-18.7c0.7-6.3,2.9-12.4,6.6-17.6c2.8-4,6.3-7.5,10.2-10.6
			c-8.5,8.4-13.7,19.6-13.7,31.8C923,402.8,927.2,413,934.2,420.9 M1025.8,404.4c0.9-3.2,1.5-6.5,1.8-9.9c0,0.4,0,0.9-0.1,1.3
			c-0.2,2.9-0.5,5.9-1.1,8.7C1026.2,404.4,1026,404.4,1025.8,404.4 M986.4,478.6c-2.2,0.6-4.2,1.9-5.7,3.6c-1.7,1.9-2.5,4.1-2.7,6.6
			c-0.2,1.4-0.2,2.8-0.8,4.1c-0.3,0.9-0.9,1.6-1.5,2.2c-1.4,1.4-3.3,2.2-5.2,2.6c-5,1-9.6-0.9-14.2-2.8c-1-0.4-2-0.9-3.1-1.3
			c3.8-1.7,7.9-4.8,12.6-10.5c9.8-12,13.7-7.9,23.1-5C988,478.2,987.2,478.3,986.4,478.6 M983.1,345.2c1.4-0.3,2.8-0.5,4.3-0.6
			c4.8-0.4,9.6,0.1,14.1,2c4,1.9,7.6,4.6,10.7,7.8c5.4,5.4,9.4,12,12,19c1,2.8,1.8,5.6,2.4,8.5C1022,362.9,1004.7,348.1,983.1,345.2
			 M1029,479.3c-7.7,6.4-19.3,7.8-28.3,3.5c-1.9-0.9-3.7-2.1-5.6-3.1c4,0.6,8.8,0.8,14.9-0.2c16-2.6,22.3-5.2,24.7-7
			C1033.2,475.1,1031.4,477.4,1029,479.3"/>
		<path class="st8" d="M948.4,368.2c-8.1,10.8-9.1,26.1-2.6,38c0.9,1.5,3.2,0.2,2.4-1.4c-6.1-11.1-5-25.1,2.6-35.3
			C951.9,368.2,949.5,366.9,948.4,368.2"/>
		<path class="st8" d="M978.4,353.7c-2-0.3-4,0.2-5.9,1c-1.6,0.8-0.2,3.2,1.4,2.4c1.5-0.7,3-0.9,4.5-0.7
			C980.2,356.6,980.2,353.9,978.4,353.7"/>
		<path class="st8" d="M1038.4,427.8c-0.6-1.6-3.3-0.9-2.6,0.8c4.2,10.7,4.4,22.5,0.7,33.3c-0.6,1.7,2,2.4,2.6,0.8
			C1042.9,451.3,1042.6,438.9,1038.4,427.8"/>
		<path class="st6" d="M1047.7,521.7c0,0-4-4.3-9.3-4.4c-7.4-0.1-16.8,3.6-16.6-1.6c0.2-5,14-3.3,18-1.8
			C1045.4,516.1,1048.5,520.1,1047.7,521.7"/>
		<path class="st6" d="M733.9,710.7c39.1,59.5,93.4,93,121.2,74.6c27.8-18.3,18.6-81.4-20.5-140.9c-39.1-59.5-93.4-93-121.2-74.6
			C685.5,588.1,694.8,651.2,733.9,710.7"/>
		<path class="st6" d="M704.1,758.5c17.6,2.7,32.9-1.8,34.2-10c1.3-8.2-12-17.1-29.5-19.8c-17.6-2.7-32.9,1.8-34.2,10
			S686.6,755.8,704.1,758.5"/>
		<path class="st6" d="M801.2,841c43.7-12.6,74.4-39.4,68.5-59.8s-46.1-26.8-89.8-14.2c-43.7,12.6-74.4,39.4-68.5,59.8
			C717.4,847.3,757.5,853.6,801.2,841"/>
		<path class="st6" d="M939.7,720.8c0.5,28.7-9.9,52.3-23.3,52.4c-13.4,0.3-24.8-22.8-25.3-51.6c-0.5-28.8,9.9-52.3,23.3-52.4
			C927.9,669,939.2,692,939.7,720.8"/>
		<path class="st8" d="M850,764.6C850,764.6,850,764.5,850,764.6c0.3-0.7,0.1-1.4-0.5-1.7c-0.9-0.5-24.1-11.4-69.9,3
			c-0.7,0.2-1,0.9-0.8,1.5c0.2,0.7,0.9,1,1.5,0.8c44.8-14.1,67.9-3.2,68.1-3.1C849,765.4,849.6,765.1,850,764.6"/>
		
			<rect x="916" y="773.1" transform="matrix(0.9926 -0.1213 0.1213 0.9926 -88.9648 117.2361)" class="st6" width="4.9" height="32.4"/>
		<path class="st8" d="M838.4,760.3c0.3-0.4,0.2-0.9-0.1-1.3L734.8,604.8c-0.3-0.6-1.1-0.7-1.7-0.3c-0.6,0.3-0.7,1.1-0.3,1.7
			l103.5,154.2c0.3,0.6,1.1,0.7,1.7,0.3C838.2,760.7,838.3,760.5,838.4,760.3"/>
		<path class="st8" d="M739.3,749.1c0.1-0.1,0.1-0.3,0.2-0.4c0.1-0.7-0.3-1.3-1-1.4l-49.1-8.2c-0.7-0.1-1.3,0.3-1.4,1
			c-0.1,0.7,0.3,1.3,1,1.4l49.1,8.2C738.6,749.8,739.2,749.6,739.3,749.1"/>
		<path class="st8" d="M870.8,781.8c0.2-0.3,0.2-0.6,0.1-0.9c-0.2-0.7-0.9-1-1.5-0.9l-125.4,36c-0.7,0.2-1,0.9-0.9,1.5
			c0.2,0.7,0.9,1,1.5,0.9l125.4-36C870.4,782.3,870.7,782.1,870.8,781.8"/>
		<path class="st8" d="M919.3,770.1c0.1-0.2,0.2-0.4,0.2-0.7l-3.6-73.3c0-0.7-0.6-1.2-1.3-1.2c-0.7,0-1.2,0.6-1.2,1.3l3.6,73.3
			c0,0.7,0.6,1.2,1.3,1.2C918.7,770.7,919.2,770.4,919.3,770.1"/>
		<path class="st8" d="M766.1,652.7c0.1-0.2,0.2-0.3,0.2-0.4c0.1-0.7-0.4-1.3-1.1-1.4l-43.5-4.3c-0.7-0.1-1.3,0.4-1.4,1.1
			c-0.1,0.7,0.4,1.3,1.1,1.4l43.5,4.3C765.5,653.4,766,653.2,766.1,652.7"/>
		<path class="st8" d="M815.7,726.5c0.1-0.1,0.1-0.2,0.1-0.3l14.3-55.8c0.2-0.7-0.3-1.3-0.9-1.5c-0.7-0.2-1.3,0.3-1.5,0.9
			l-14.3,55.8c-0.2,0.7,0.3,1.3,0.9,1.5C814.8,727.2,815.4,726.9,815.7,726.5"/>
		<path class="st8" d="M771,836.4l17.1-30.8c0.3-0.6,0.1-1.4-0.5-1.6c-0.6-0.3-1.4-0.1-1.6,0.5l-17.1,30.8c-0.3,0.6-0.1,1.4,0.5,1.6
			C770,837.3,770.7,837,771,836.4"/>
		<path class="st8" d="M841.2,790.3L841.2,790.3c0.3-0.6,0.1-1.4-0.5-1.7l-30.6-16c-0.6-0.3-1.4-0.1-1.6,0.5
			c-0.3,0.6-0.1,1.4,0.5,1.6l30.6,16C840.2,791.1,840.9,790.9,841.2,790.3"/>
		<path class="st8" d="M715.7,746.2c0.2-0.3,0.2-0.9,0-1.2c-0.3-0.6-1.1-0.8-1.7-0.4l-14.9,9.1c-0.6,0.3-0.8,1.1-0.4,1.7
			c0.3,0.6,1.1,0.8,1.7,0.4l14.9-9.1C715.4,746.6,715.6,746.4,715.7,746.2"/>
		<path class="st6" d="M863.6,650.4c2.8,8.7,8.5,14.8,12.6,13.4c4.1-1.3,5.1-9.5,2.3-18.2c-2.8-8.7-8.5-14.8-12.6-13.4
			C861.8,633.4,860.7,641.6,863.6,650.4"/>
		<path class="st6" d="M692.3,803.8c11.4-3.7,19.1-10.9,17.4-16.2c-1.7-5.3-12.3-6.7-23.7-2.9c-11.4,3.7-19.1,10.9-17.4,16.2
			C670.3,806.2,680.9,807.5,692.3,803.8"/>
		<path class="st6" d="M868.3,875.9c7.3-2.4,12.5-7.1,11.4-10.6c-1.1-3.5-8-4.3-15.4-1.9c-7.3,2.4-12.5,7.1-11.4,10.6
			C854.1,877.5,861,878.3,868.3,875.9"/>
		<path class="st6" d="M868.7,877.1c-3.8,1.2-7.5,1.6-10.6,1.3c-3.4-0.4-5.6-1.8-6.3-4c-0.7-2.1,0.3-4.6,2.8-6.9
			c2.3-2.1,5.6-3.9,9.3-5.1c8.1-2.6,15.5-1.5,16.9,2.7c0.4,1.3,0.2,2.7-0.6,4.2C878.5,872.3,874.2,875.3,868.7,877.1 M854.2,873.6
			c0.3,1.2,2,2,4.4,2.3c2.7,0.3,6.1-0.1,9.5-1.2c7.2-2.3,11.3-6.7,10.5-9.1c-0.8-2.4-6.7-3.4-13.8-1.1c-3.4,1.1-6.4,2.7-8.4,4.6
			c-0.8,0.8-1.4,1.5-1.7,2.1C854.1,872.2,853.9,873,854.2,873.6"/>
		<path class="st6" d="M1116.8,878.1c-7.3-2.4-12.5-7.1-11.4-10.6c1.1-3.4,8-4.3,15.4-1.9c7.3,2.4,12.5,7.1,11.4,10.6
			C1131.1,879.6,1124.3,880.5,1116.8,878.1"/>
		<path class="st6" d="M1105,871.3c-0.8-1.5-1-2.8-0.6-4.2c1.4-4.2,8.8-5.3,16.9-2.7c3.8,1.2,7,3.1,9.3,5.1c2.5,2.3,3.5,4.8,2.8,6.9
			c-0.7,2.1-3,3.6-6.3,4c-3.1,0.3-6.8-0.1-10.6-1.3C1110.9,877.5,1106.7,874.4,1105,871.3 M1130.7,873.6c-0.3-0.7-0.9-1.4-1.7-2.1
			c-2-1.9-5-3.5-8.4-4.6c-7.2-2.3-13.1-1.3-13.8,1.1s3.3,6.7,10.5,9.1c3.4,1.1,6.7,1.5,9.5,1.2c2.4-0.3,3.9-1.1,4.4-2.3
			C1131.3,875.2,1131.1,874.4,1130.7,873.6"/>
		<path class="st6" d="M1240.8,710.7c-41.1,41.6-58.6,90.9-39.2,110.1c19.5,19.2,68.5,1,109.6-40.6s58.6-90.9,39.2-110.1
			C1330.9,651,1281.9,669.1,1240.8,710.7"/>
		<path class="st6" d="M1197.4,695.1c0.9,14.6,7,26,13.8,25.7c6.8-0.4,11.7-12.6,10.8-27.1c-0.9-14.6-7-26-13.8-25.7
			C1201.4,668.4,1196.6,680.5,1197.4,695.1"/>
		<path class="st6" d="M1147.8,787.1c17.6,32.9,44.3,52.9,59.7,44.7c15.4-8.2,13.6-41.6-4-74.5c-17.6-32.9-44.3-52.9-59.7-44.7
			C1128.5,720.8,1130.2,754.2,1147.8,787.1"/>
		<path class="st6" d="M1268,877.7c-23,5.4-43.5,0.9-46.1-9.7c-2.5-10.8,14.1-23.7,37.1-29.1c23-5.4,43.5-0.9,46.1,9.7
			C1307.5,859.3,1290.9,872.3,1268,877.7"/>
		<path class="st8" d="M1217.5,813.1L1217.5,813.1c0.6,0.2,1.1-0.2,1.3-0.7c0.3-0.9,5-21.3-14.3-55.6c-0.3-0.5-0.9-0.7-1.4-0.3
			c-0.5,0.3-0.7,0.9-0.3,1.4c19,33.6,14.2,53.9,14.1,54.1C1216.6,812.4,1217,812.9,1217.5,813.1"/>
		<path class="st8" d="M1218.9,803.1c0.3,0.1,0.8,0,1-0.3l106-109.4c0.4-0.4,0.3-1,0-1.5c-0.4-0.4-1-0.3-1.5,0l-106,109.4
			c-0.4,0.4-0.3,1,0,1.5C1218.6,802.9,1218.8,803,1218.9,803.1"/>
		<path class="st8" d="M1210.9,721.7c0.1,0,0.3,0.1,0.3,0c0.5,0,0.9-0.5,0.9-1l-1.8-40.8c0-0.5-0.5-0.9-1-0.9c-0.5,0-0.9,0.5-0.9,1
			l1.8,40.8C1210.2,721.2,1210.6,721.7,1210.9,721.7"/>
		<path class="st8" d="M1207.2,832.7c0.3,0.1,0.5,0.1,0.8-0.1c0.5-0.3,0.7-0.9,0.4-1.4l-50.3-94.5c-0.3-0.5-0.9-0.7-1.4-0.4
			s-0.7,0.9-0.4,1.4l50.3,94.5C1206.7,832.5,1207,832.7,1207.2,832.7"/>
		<path class="st8" d="M1224.9,869.6c0.2,0.1,0.3,0.1,0.5,0l58.2-15.5c0.5-0.2,0.9-0.7,0.7-1.2c-0.2-0.5-0.7-0.9-1.2-0.7l-58.2,15.5
			c-0.5,0.2-0.9,0.7-0.7,1.2C1224.3,869.3,1224.6,869.5,1224.9,869.6"/>
		<path class="st8" d="M1292.8,726.8c0.1,0,0.3,0.1,0.4,0c0.5-0.1,0.9-0.6,0.9-1.1l-4-35.7c-0.1-0.5-0.6-0.9-1.1-0.9
			c-0.5,0.1-0.9,0.6-0.9,1.1l4,35.7C1292.2,726.4,1292.5,726.6,1292.8,726.8"/>
		<path class="st8" d="M1242.2,779c0.1,0,0.2,0,0.3,0l47.2,2c0.5,0,1-0.4,1-0.9c0-0.5-0.4-1-0.9-1l-47.2-2c-0.5,0-1,0.4-1,0.9
			C1241.4,778.5,1241.7,778.9,1242.2,779"/>
		<path class="st8" d="M1146.4,762l27.7,8.4c0.5,0.2,1.1-0.2,1.3-0.7c0.2-0.5-0.2-1.1-0.7-1.3l-27.7-8.4c-0.5-0.2-1.1,0.2-1.3,0.7
			C1145.5,761.3,1145.9,761.9,1146.4,762"/>
		<path class="st8" d="M1195.3,810.5C1195.3,810.5,1195.4,810.5,1195.3,810.5c0.5,0.2,1.1-0.2,1.3-0.7l7.6-27.2
			c0.2-0.5-0.2-1.1-0.7-1.2c-0.5-0.2-1.1,0.2-1.2,0.7l-7.6,27.2C1194.5,809.8,1194.8,810.3,1195.3,810.5"/>
		<path class="st8" d="M1209.2,702.2c0.3,0.1,0.7,0,0.9-0.3c0.4-0.3,0.4-1,0-1.5l-9.8-10.4c-0.3-0.4-1-0.4-1.5,0
			c-0.4,0.3-0.4,1,0,1.5l9.8,10.4C1209,702.1,1209.1,702.2,1209.2,702.2"/>
		<path class="st6" d="M1311.4,804.5c-6.5,3.8-10.4,9.3-8.6,12.3c1.8,3.1,8.5,2.5,15-1.3c6.5-3.8,10.4-9.3,8.6-12.3
			C1324.7,800.1,1318,800.7,1311.4,804.5"/>
		<path class="st6" d="M1159,693.3c4.9,8.5,12,13.5,16.1,11.2c3.9-2.3,3.2-11-1.7-19.5c-4.9-8.5-12-13.5-16.1-11.2
			C1153.4,676.1,1154.1,684.9,1159,693.3"/>
	</g>
	<path class="st2" d="M1510.5,782c0,34.1-27.6,61.6-61.6,61.6s-61.6-27.6-61.6-61.6c0-34.1,27.6-61.6,61.6-61.6
		C1482.9,720.3,1510.5,748,1510.5,782"/>
	<path class="st2" d="M684.4,540.3c0,34.1-27.6,61.6-61.6,61.6s-61.6-27.6-61.6-61.6c0-34.1,27.6-61.6,61.6-61.6
		C656.8,478.6,684.4,506.2,684.4,540.3"/>
	<path class="st2" d="M1477.2,1045c0,35.5-217.9,64.4-486.7,64.4s-486.7-28.9-486.7-64.4c0-35.5,217.9-64.4,486.7-64.4
		S1477.2,1009.4,1477.2,1045"/>
	<path class="st3" d="M1387,890.6l-45.4-13.8l39.8,15c0,0,7.9,4.8,4.9,12.7l-50.6-17l24.7,10.8c0,0,7.3,4.4,3.5,9.8
		c0,0-64.3-16.1-73.3-19.5c0,0-0.1-0.1-0.1-0.2l-134.8-26.2c-15.5-3-28.5-13.8-34.7-28.9l-27.4-66.3c-2.5,7-4.7,15.7-6.6,27
		l-31.3,135.4c-71.5,3.5-108.4-7.7-124.2-14.8l-27.8-120.8c-1.9-11.3-4.1-20-6.6-27l-27.4,66.3c-6.2,15-19.2,25.9-34.7,28.9
		L700,888.3c0,0.1,0,0.2-0.1,0.2c-9.1,3.3-73.3,19.5-73.3,19.5c-3.7-5.4,3.6-9.8,3.6-9.8l24.7-10.8L604,904.6
		c-3-7.9,4.9-12.7,4.9-12.7l39.8-15l-45.4,13.8c-5.6-6.8,6.5-12.3,6.5-12.3l29.8-10c0,0-14.6-15.2-14.6-15.5s11.3-16.9,11.3-16.9
		l17.1-9c3.8,10.4-12.3,22.9-12.3,22.9s14.3,8.9,15.6,8.9s12.8-7.3,12.8-7.3l-3.1-14.5c-9.3-2.6-11.6-6.7-12-9.4
		c-0.3-1.9,0.4-3.2,0.4-3.2l21.7,3.2l3.7,21.7l14.5,14.2l113.1-39.3c10.2-3.6,18.4-11.7,22-22.2l36.8-101.8c0.4-1.4,0.9-2.7,1.5-4.1
		l0,0c13.3-31.8,67.1-62.2,126.9-62.3l0,0c0.1,0,0.2,0,0.3,0c0.1,0,0.2,0,0.3,0l0,0c59.8,0.2,113.6,30.7,126.7,62.2l0,0
		c0.6,1.4,1,2.7,1.5,4.1l36.8,101.8c3.8,10.5,11.9,18.7,22,22.2l113.1,39.3l14.5-14.2l3.7-21.7l21.7-3.2c0,0,0.7,1.3,0.4,3.2
		c-0.3,2.7-2.6,6.7-12,9.4l-3.1,14.5c0,0,11.5,7.3,12.8,7.3c1.4,0,15.6-8.9,15.6-8.9s-16.1-12.5-12.3-22.9l17.1,9
		c0,0,11.3,16.6,11.3,16.9c0,0.3-14.6,15.5-14.6,15.5l29.8,10C1380.6,878.3,1392.5,883.8,1387,890.6"/>
	<path class="st9" d="M1160.5,801.8l-10.8,2.7l-33.1,8.5l-8.7,2.2l-10.2-18.2l-2.5,30.6l-2.6,32.2v0.4c0,0-16.7-9.2-48.3-13.5
		c-6.1-0.9-12.6-1.5-19.8-1.8c-3.7-0.2-7.4-0.3-11.4-0.3c-8.6-0.1-17.9,0.3-27.9,1.2c-6.7,0.6-13.8,1.5-21.3,2.6l0,0
		c-3.2,0.5-6.6,1.1-10,1.7l0,0c-6.4,1.2-13,2.6-19.8,4.3c-10.8,2.6-21.9,5.9-33.6,9.8c-0.5,0.2-1,0.3-1.5,0.5v-0.3l-0.1-14.6
		l-0.2-20.7l-0.2-22.1l-0.1-15.4l-7.3,17.2l-16.6-4.3l-36.8-9.6l-4.8-1.3c0,0,1.1-10.9,4.7-26.9c2-8.5,4.7-18.6,8.4-29.2
		c8.5-24.2,21.9-51.2,43.4-70.4c9.9-8.9,21.4-16.1,34.9-20.5c4-1.4,8.2-2.4,12.6-3.2c0,0,1.7,2.5,5.1,6.6c3,3.6,7.3,8.5,12.9,14.1
		c9,9.1,21.4,20,37.2,30.7c3.1,2.1,6.3,4.2,9.7,6.3l0,0c13.4,8.3,28.9,16.1,46.5,22.6c7.8,2.9,16.1,5.5,24.7,7.7
		c1.6,0.4,3.3,0.9,5,1.2c7.3,1.7,14.9,3.2,22.9,4.4c6.3,0.9,12.8,1.6,19.5,2.1c5.8,0.4,11.7,0.7,17.8,0.8l8.1,22.4L1160.5,801.8z"/>
	<path class="st1" d="M1077.9,732.7c-30.3-7.2-55.7-18.9-76.2-31.5c50.8-1.5,46.4-59.5,46.4-59.5l12.3,4.3
		C1049.9,695.8,1064.1,720.5,1077.9,732.7"/>
	<path class="st1" d="M1281.6,887.8c-54.2-14.8-155.4,19.5-200.9,36.8l0,0c-30.2,10.9-51.6,11.4-51.6,11.4c-12,0.3-27.3-0.2-45.1-2
		c-15.6-1.7-33.1-4.6-51.8-9.4c0,0-82.9-25.1-122.9-31.9c-35.4-7.8-71-11.6-96.4-4.7c-54.6,14.9-29.4,59.2,10.9,87.6
		c0,0,19.3,14.8,63.8,33.9c19.4,9.1,48.4,20.9,85,30.2c6.2,1.8,11.2,3,15.1,3.6c88.3,19.6,214.7,22.8,354.4-51.7
		C1295.8,968.1,1348.4,906,1281.6,887.8"/>
	<path class="st1" d="M898.6,869.7c-0.4,0-0.9-0.3-0.9-0.8c-0.2-0.5,0.2-1.1,0.7-1.2c59.3-15.2,108.8-14.9,139.9-12
		c33.7,3.2,53.7,10,53.9,10.1c0.5,0.2,0.8,0.8,0.6,1.3c-0.2,0.5-0.8,0.8-1.3,0.6c-0.2-0.1-20-6.8-53.5-10
		c-30.9-2.9-80.2-3.2-139.2,12C898.7,869.7,898.7,869.7,898.6,869.7"/>
	<path class="st0" d="M595.8,584.4c-34.6,0-62.7-28.1-62.7-62.7c0-34.6,28.1-62.7,62.7-62.7s62.7,28.1,62.7,62.7
		C658.5,556.3,630.4,584.4,595.8,584.4 M595.8,461c-33.5,0-60.7,27.2-60.7,60.7c0,33.5,27.2,60.7,60.7,60.7
		c33.5,0,60.7-27.2,60.7-60.7C656.5,488.2,629.3,461,595.8,461"/>
	<path class="st0" d="M1416.5,829.2c-34.6,0-62.7-28.1-62.7-62.7s28.1-62.7,62.7-62.7s62.7,28.1,62.7,62.7
		C1479.2,801.2,1451.1,829.2,1416.5,829.2 M1416.5,705.9c-33.5,0-60.7,27.2-60.7,60.7c0,33.5,27.2,60.7,60.7,60.7
		s60.7-27.2,60.7-60.7C1477.2,733.1,1450,705.9,1416.5,705.9"/>
	<path class="st3" d="M715.6,965.9c-20.3-12.3-20.7-41.8-0.5-54.3c20.7-12.7,57.3-16.9,120.7,18.6c125,69.9,112.5,64.5,112.5,64.5
		l61,28.5c19.5-6.6,39.5,7.9,41,29.5c1,15,0.2,36.2,2,58.4c1.5,16.7-6.6,32.8-20.4,40.9l-6.8,4c-5.6,3.3-12.7-0.4-13.6-7.3
		l-21.7-86.8C989.9,1062,791.1,1011.5,715.6,965.9"/>
	<path class="st3" d="M1265.3,968.5c33-12.6,31.1-60-2.8-69.9c-21.3-6.2-53.1-4.9-100.4,14.4c-131.8,54-118.8,50-118.8,50
		l-63.6,20.8c-18.6-9-40.1,3-43.9,24.2c-2.6,14.9-4.1,35.9-8.5,57.7c-3.2,16.5,2.9,33.4,15.8,43.2l6.3,4.9c5.3,4,12.6,1.1,14.3-5.6
		l31-83.5C994.7,1024.8,1178.7,1001.7,1265.3,968.5"/>
	<g class="st10">
		<path class="st9" d="M925.7,659.7c-0.1,0.3-0.2,0.7-0.3,1c-2.1,6.3-7.4,10.8-13.7,12.7c-5.5,1.7-12.2,1.5-17.2-1.3
			c-2.1-1.2-3.9-3-5.1-5.1c9.9-8.9,21.4-16.1,34.9-20.5c0.6,1,1,2.2,1.4,3.3C927.9,652.9,927.7,656.8,925.7,659.7"/>
		<path class="st9" d="M965,690.6c-0.3-3.9-2.5-7.4-5.9-9.4c-3.2-1.8-6.9-2-10.4-1.6c-1.5-0.3-3.2-0.2-4.7,0.5
			c-1.5,0.7-2.5,1.8-3.2,3.1c-0.9,1.2-1.5,2.8-1.5,4.8c0,3.1,1.6,5.6,4,7.3c1.5,1.4,3.2,2.6,4.7,3.5c3.2,1.9,7,2.6,10.5,1.4
			C962.4,698.6,965.3,694.8,965,690.6"/>
		<path class="st9" d="M918,723.7c-0.3-3.8-2.5-6.5-4.6-9.3c-1.5-2-3-3.9-4.5-5.9c-0.4-0.7-0.9-1.4-1.3-2c-0.7-0.9-1.5-1.9-2.3-2.7
			c-1.6-2.1-3.3-4.3-5.7-5.6c-2.5-1.5-5.2-2-7.9-1.5c-5.6-0.8-11.6,0.1-16.2,3.2c-1.6,1.1-3.1,2.6-4.2,4.2c-0.6,0.4-1.2,0.8-1.7,1.3
			c-5,4.2-5.7,11-3.1,16.7c2.6,5.6,8.4,8.5,14,10.3c6.6,2,13.7,3.2,20.7,2.7C908,734.5,918.6,732.8,918,723.7"/>
		<path class="st9" d="M980.5,734.9c-4.4-1.9-9.1-3.1-13.7-3.7c-2.3-0.6-4.6-0.9-7-1c-2-0.5-4-0.6-5.9,0.3c-2,0.3-3.7,1-4.8,2.9
			c-1,1.8-1.2,4.3,0,6.1c0.3,0.5,0.7,1,1.1,1.5c0.1,0.3,0.3,0.6,0.4,0.9c1.7,3,4.7,4.2,7.8,5.5c2.6,1.1,5.2,2,7.9,2.7
			c0.9,0.3,2,0.5,3,0.8c2,0.9,4.2,1.3,6.3,1.2c2.8,0.4,5.7,0.7,8.5,0.8c2.9,0.1,4.8-2,5.8-4.4C992.6,741.7,985.6,737.1,980.5,734.9"
			/>
		<path class="st9" d="M1001.7,701.2L1001.7,701.2c-3.4-2-6.6-4.2-9.7-6.3c-2.5,1.5-4.4,3.8-5.3,6.5c-1.5,4.2,0.1,8.4,2.7,11.6
			c3.2,3.9,7.4,7.2,12,9.7c4.5,3.9,10.7,6.1,16.4,7.3c6,1.2,13,1.5,18.6-1c1.6-0.3,3.3-0.7,5-1.2c2.6-0.8,5.2-2,7-4.1
			C1030.7,717.3,1015.1,709.4,1001.7,701.2"/>
		<path class="st9" d="M1100.8,737c-0.2,1.5-0.8,3-1.5,4.4c-2.2,3.8-5.9,6.9-9.5,9.4c-3.8,2.6-8.5,4.3-13,3.1
			c-4.8-1.4-8.3-5.6-8-10.7c0.1-2.3,1-4.4,2.3-6.3c0.3-0.6,0.8-1.1,1.2-1.7c0-1.3,0.3-2.6,0.7-3.8c1.6,0.4,3.3,0.9,5,1.2
			C1085.2,734.4,1092.8,735.8,1100.8,737"/>
		<path class="st9" d="M1146.1,762.2c-2.8,1.1-5.9,1.2-9.1,0.5c-7.3-1.6-16-6.3-17.8-14.2c-0.8-3.2-0.5-6.6,0.9-9.4
			c5.8,0.4,11.7,0.7,17.8,0.8L1146.1,762.2z"/>
		<path class="st9" d="M1123.1,771c-0.9-1.2-2.3-2-4-2.6c-0.6-0.2-1.3-0.3-2-0.2c-2.8-0.6-5.8-0.5-8.6,0.3c-2.6,0.7-4.1,2.9-4.4,5.3
			c-0.2,0.9-0.2,1.8,0.2,2.6c0.9,2.2,2.2,4.1,3.9,5.6c0.8,0.8,1.5,1.4,2.5,2c2.9,1.7,7,2,9.9,0.2c0.3-0.2,0.4-0.3,0.7-0.4
			c0.9-0.4,1.5-0.9,2.2-1.5C1127.3,778.8,1126.4,773.9,1123.1,771"/>
		<path class="st9" d="M1149.5,804.6l-33.1,8.5c-0.2-0.6-0.3-1.2-0.3-1.8c-0.3-1.8,0.3-3.7,1.6-4.8c3-4.8,9.1-6.8,14.7-6.6
			c1.2,0.1,2.4,0.2,3.6,0.4C1140.8,800.4,1145.5,801.8,1149.5,804.6"/>
		<path class="st9" d="M1094.5,785.4c-3-4.7-8.1-6.3-13.3-6.8c-3.2-0.3-6.3-0.1-9.1,0.9c-1.6-0.3-3.2,0-4.6,0.9
			c-0.2,0.1-0.3,0.1-0.4,0.2c-0.9,0.3-1.8,0.8-2.6,1.5c-0.9,0.2-1.7,0.3-2.6,0.6c-0.5,0.2-1,0.3-1.5,0.6c-1.2-0.1-2.5-0.1-3.7,0.1
			c-2.8,0.3-5,1.7-5.8,4.4c-0.9,2.6-0.9,5.5-0.3,8.1c-0.7,3.9,0.6,7.9,3.9,10.7c1.4,1.1,2.8,1.9,4.4,2.4c3.8,6.1,11.8,9,18.9,7.3
			c7.9-1.8,14.5-8.9,16-16.7c0.6-0.9,1-1.9,1.4-2.9C1096.9,793.1,1096.7,788.9,1094.5,785.4"/>
		<path class="st9" d="M1095.1,827.5l-2.6,32.2c-6.7-2.1-11.8-8.5-11.8-15.7c0-4.5,1.9-9.1,5.2-12.3
			C1088.5,829.2,1091.6,828,1095.1,827.5"/>
		<path class="st9" d="M1038.3,746.8c-8-0.1-16.1,3.2-22.1,8.4c-6.1,1.3-12.4,4-15.4,9.8c-2.5,4.8-0.3,10.2,4.5,12.4
			c4.8,2.2,9.9,1.1,14.5-0.9c4.2-1.9,8.1-4.3,12.1-6.5c4.2-2.3,8.4-4.7,12.6-7.1c1.7-0.9,2.8-3,3-5c0.2-0.5,0.3-1.1,0.4-1.7
			C1048.7,750.3,1043.5,746.8,1038.3,746.8"/>
		<path class="st9" d="M932,759.6c-0.4-1.4-1.5-2.9-2.7-3.6c-1.4-0.7-2.9-1-4.4-0.7c-0.3-0.1-0.8-0.1-1.1-0.1
			c-0.4,0-1.4,0.1-1.7,0.3c-0.3,0.1-1.2,0.5-1.5,0.6c-0.3,0.2-1,0.8-1.3,1c-0.2,0.2-0.4,0.5-0.5,0.7c-0.6,0.8-0.9,1.1-1.2,2.2
			c-0.7,2.5-0.1,5.1,1.7,7c0,0,0.1,0.1,0.1,0.2c0.3,0.3,0.9,0.8,1.3,1c0.3,0.2,0.6,0.3,0.9,0.3c0.3,0.1,0.6,0.3,0.9,0.3
			c0.5,0.1,1.2,0.3,1.7,0.3c0.6,0,1.2-0.1,1.8-0.3c0.7-0.1,1.3-0.4,1.9-0.8s1.1-0.8,1.6-1.2c0.2-0.2,0.3-0.3,0.5-0.5
			c0.6-0.7,1.2-1.5,1.6-2.2C932.1,762.8,932.4,761.1,932,759.6"/>
		<path class="st9" d="M860.2,761.2c-1.7,2-4.1,3.3-6.5,4.4c-5.1,2.2-10.9,2.6-16.2,1.2c2-8.5,4.7-18.6,8.4-29.2
			c0.6,0.3,1.1,0.6,1.6,1c2.3,2,4.7,3.9,7,5.9c2.2,1.9,4.8,3.7,6.4,6.1C863.2,753.9,862.9,758.1,860.2,761.2"/>
		<path class="st9" d="M874.3,804.5l-36.8-9.6c0.1-1.1,0.5-2.1,1-3.1c0.5-2,2-3.8,4.2-4.3c8.3-2,18.1-2,25.9,2
			c3.5,1.8,6.3,5,6.8,8.9C875.9,800.6,875.3,802.7,874.3,804.5"/>
		<path class="st9" d="M893.7,774.6c-0.6-0.6-1.4-1.1-2.1-1.4c-0.9-2.1-3-3.8-5.5-3.8c-2.3,0.1-4.5,0.9-6.1,2.6
			c-0.9,1-1.5,2.1-1.6,3.5c-0.2,1.5,0.2,2.5,0.7,3.8c1.9,4.3,7.4,6.9,12,5.7C895.6,783.9,897.1,777.9,893.7,774.6"/>
		<path class="st9" d="M920.9,819c-3.6,6.3-9,12.1-16.9,10.6c-1.8,0.5-3.7,0.8-5.6,0.8l-0.2-22.1c2-2.5,4.7-4.4,7.9-5.1
			c3-0.8,6.1,0.9,7.3,3.8c0.8,0.5,1.5,1.2,2.2,2.1c0.1,0.2,0.2,0.3,0.3,0.4c0.9,0.3,1.9,0.8,2.7,1.4
			C921.5,812.5,922.6,816.1,920.9,819"/>
		<path class="st9" d="M984.1,793.3c-1.9-3.6-5.6-5.5-9.3-6.6c-7.6-2.4-17.1-3.2-24.7-0.7c-4.3,1.4-7.9,4.4-8.9,8.9
			c0,0.1,0,0.1,0,0.2c-0.7,1.3-1.1,2.6-1.1,4.1c0,2.4,1.2,4.2,2.8,5.6c0.5,0.9,1.1,1.7,1.8,2.4c4.8,5.1,13.7,7.8,20.7,6.1
			c6,0,12-1.9,16-6.6C984.7,803,986.5,797.9,984.1,793.3"/>
		<path class="st9" d="M933.9,854.3c-10.8,2.6-21.9,5.9-33.6,9.8c-0.1-0.1-0.2-0.2-0.3-0.3c-0.1,0-0.2,0-0.3-0.1
			c-0.3,0.3-0.7,0.4-1,0.6l-0.1-14.6c4.8-2.6,10.2-3.9,15.5-4.6c4.4-0.6,8.6-0.5,12.7,1.5C929.9,848.2,932.6,850.9,933.9,854.3"/>
		<path class="st9" d="M958.3,830.8c-0.9-0.4-1.7-0.8-2.5-1.1c-3-1-6.7,1.2-7.4,4.2c-0.2,0.6-0.2,1.2-0.2,1.8
			c-1.8,1.5-3.1,3.8-3.1,6.2c-0.1,4.9,3.9,7.3,8.2,7.9c2.9,1,6.2,0.6,8.8-1c1-0.3,2-0.8,3.1-1.3c2-0.9,2.9-3.2,3-5.2
			C968.5,836.7,963.8,831.3,958.3,830.8"/>
		<path class="st9" d="M1033.7,812.3c-1-3-4.1-5.2-7.4-4.2c-1.3,0.4-2.5,1-3.4,1.8c-1-0.3-2.1-0.3-3.2,0c-3.3,1.1-4.9,4.1-4.2,7.4
			c1,5.2,6.9,8.5,11.9,7C1032.2,822.8,1035.4,817.2,1033.7,812.3"/>
		<path class="st9" d="M1012.8,844.5c-8.6-0.1-17.9,0.3-27.9,1.2c-1.1-2.8-1-6,0.7-8.8c0.9-1.5,2.1-2.3,3.6-2.7
			c0.6-0.9,1.5-1.7,2.6-2.4c2.9-1.7,6.8-1.5,10-1c3.6,0.5,6.7,2,9,4.9C1012.7,838.2,1013.6,841.5,1012.8,844.5"/>
		<path class="st9" d="M1065,832c-0.8-1.3-2.1-2.5-3.6-2.7c-1.5-0.3-3.2-0.3-4.6,0.6c-1.4,0.9-2.3,2-2.7,3.6l-0.8,2.4
			c-0.4,1.5-0.2,3.3,0.6,4.6s2.1,2.5,3.6,2.7c1.5,0.3,3.2,0.3,4.6-0.6c1.4-0.9,2.3-2,2.7-3.6c0.3-0.8,0.5-1.6,0.8-2.4
			C1066.1,835.2,1065.8,833.3,1065,832"/>
		<path class="st9" d="M1044,846.7c-6.1-0.9-12.7-1.5-19.8-1.8c0.6-2.7,2.6-5,5.4-5.8c0.4-0.2,0.9-0.3,1.4-0.3
			c1.8-0.8,4-0.7,5.7,0.3c0.6,0.3,1.1,0.7,1.5,1.1c0.1,0,0.2,0.1,0.2,0.1C1041.1,841.5,1043.1,843.9,1044,846.7"/>
		<path class="st9" d="M954.8,664.1c-0.7,0.7-1.5,1.4-2.3,1.8c-2.6,1.4-5.6,1.2-8,0.1c-4.9-0.6-8.5-5-7.2-10.1
			c0.6-2.5,2.2-4.3,4.3-5.5c0.2-0.2,0.3-0.3,0.4-0.4C944.9,653.6,949.1,658.5,954.8,664.1"/>
	</g>
	<path class="st1" d="M997.9,659.5c-14.4,0-24.6-3.4-30.1-10.2c-5.9-7.2-4.4-15.4-4.3-15.7c0.1-0.5,0.6-0.9,1.2-0.8
		c0.5,0.1,0.9,0.6,0.8,1.2c0,0.2-1.4,7.7,3.9,14.1c5.2,6.3,14.8,9.5,28.5,9.5c12.5,0,21.3-3,26.1-8.9c5.4-6.6,3.8-14.6,3.8-14.7
		c-0.1-0.5,0.3-1.1,0.8-1.2c0.5-0.1,1.1,0.3,1.2,0.8c0.1,0.3,1.7,9-4.3,16.3C1020.3,656.2,1010.9,659.5,997.9,659.5"/>
	<path class="st1" d="M998,675.6c-12.8,0-22.5-3.8-28.9-11.1c-10.5-12-8.4-29.2-8.2-29.9c0.1-0.5,0.6-0.9,1.1-0.9
		c0.5,0.1,0.9,0.6,0.9,1.1c0,0.2-2.1,17,7.8,28.3c6.1,6.9,15.3,10.3,27.4,10.3c10.9,0,19.4-3.2,24.9-9.6c9.9-11.3,7.7-28.9,7.6-29.1
		c-0.1-0.5,0.3-1,0.9-1.1c0.5-0.1,1,0.3,1.1,0.9c0.1,0.8,2.4,18.7-8.1,30.7C1018.5,672.1,1009.5,675.6,998,675.6"/>
	<path class="st11" d="M899.2,845.4c-0.4,0-0.9-0.3-0.9-0.8c-0.2-0.5,0.2-1.1,0.7-1.2c59.3-15.2,108.8-14.9,139.9-12
		c33.7,3.2,53.7,10,53.9,10.1c0.5,0.2,0.8,0.8,0.6,1.3s-0.8,0.8-1.3,0.6c-0.2-0.1-20-6.8-53.5-10c-30.9-2.9-80.2-3.2-139.2,12
		C899.3,845.4,899.3,845.4,899.2,845.4"/>
	<path class="st0" d="M1071.6,605.4c-6.3,0-12.1-3.8-16-10.6c-0.3-0.5-0.1-1.1,0.3-1.4c0.5-0.3,1.1-0.1,1.4,0.3
		c3.5,6.1,8.7,9.6,14.3,9.6c10,0,18.2-11.3,18.2-25.2s-8.1-25.2-18.2-25.2c-0.5,0-1-0.4-1-1c0-0.5,0.4-1,1-1
		c11.1,0,20.2,12.2,20.2,27.2C1091.8,593.1,1082.7,605.4,1071.6,605.4"/>
	<path class="st0" d="M914.1,605.6c-10.8,0-19.7-12.4-19.7-27.5c0-15.2,8.8-27.5,19.7-27.5c0.5,0,1,0.4,1,1c0,0.5-0.4,1-1,1
		c-9.7,0-17.7,11.4-17.7,25.5s7.9,25.5,17.7,25.5c5.4,0,10.4-3.5,13.8-9.6c0.3-0.5,0.9-0.7,1.4-0.4c0.5,0.3,0.7,0.9,0.4,1.4
		C925.9,601.8,920.3,605.6,914.1,605.6"/>
	<path class="st0" d="M1004.5,956.8c-12.6,0-25.6-2-38.8-6.2c-27.6-8.6-46.6-23.4-46.8-23.6c-0.4-0.3-0.5-0.9-0.2-1.5
		c0.3-0.4,0.9-0.5,1.5-0.2c0.2,0.2,19,14.8,46.3,23.2c25,7.9,62.5,12,98.8-12.9c0.4-0.3,1.1-0.2,1.4,0.3c0.3,0.4,0.2,1.1-0.3,1.4
		c-16.3,11.2-34.2,17.6-53.3,19C1010.3,956.7,1007.4,956.8,1004.5,956.8"/>
	<path class="st11" d="M1117,750.1c-22.5,0-44.7-3.6-66.6-10.7c-23.7-7.7-46.9-19.5-68.9-35.1c-37.6-26.6-59.3-55.4-59.4-55.7
		c-0.3-0.4-0.3-1.1,0.2-1.4c0.4-0.3,1.1-0.3,1.4,0.2c0.2,0.3,21.7,28.9,59,55.3c34.4,24.3,89.7,51.7,157.9,44.1
		c0.6-0.1,1,0.3,1.1,0.9c0.1,0.5-0.3,1-0.9,1.1C1132.9,749.7,1124.9,750.1,1117,750.1"/>
	<path class="st1" d="M1395.3,979.4c-3.8,0-5.6-2.3-7.3-4.4c-1.5-2-2.9-3.7-5.7-3.7s-4.1,1.7-5.7,3.7c-1.6,2-3.5,4.4-7.3,4.4
		c-3.8,0-5.6-2.3-7.3-4.4c-1.5-2-2.9-3.7-5.7-3.7c-2.8,0-4.1,1.7-5.7,3.7c-1.6,2-3.5,4.4-7.3,4.4s-5.6-2.3-7.3-4.4
		c-1.5-2-2.9-3.7-5.7-3.7v-2c3.8,0,5.6,2.3,7.3,4.4c1.5,2,2.9,3.7,5.7,3.7c2.7,0,4.1-1.7,5.7-3.7c1.6-2,3.5-4.4,7.3-4.4
		s5.6,2.3,7.3,4.4c1.5,2,2.9,3.7,5.7,3.7c2.7,0,4.1-1.7,5.7-3.7c1.6-2,3.5-4.4,7.3-4.4s5.6,2.3,7.3,4.4c1.5,2,2.9,3.7,5.7,3.7V979.4
		z"/>
	<path class="st1" d="M1395.3,985.8v2c-0.3,0-0.4,0-0.7,0c-3.3-0.3-5.1-2.4-6.7-4.4c-1.6-2-3-3.7-5.8-3.7c-2.8,0-4.2,1.7-5.8,3.7
		c-1.7,2-3.6,4.4-7.4,4.4c-3.8,0-5.7-2.3-7.3-4.4c-1.6-2-3-3.7-5.8-3.7c-2.8,0-4.2,1.7-5.8,3.7c-1.7,2-3.6,4.4-7.4,4.4
		c-3.8,0-5.7-2.3-7.3-4.4c-1.6-2-3-3.7-5.8-3.7h-0.1v-2c0.1,0,0.2,0,0.3,0c3.6,0.1,5.5,2.4,7.1,4.4c1.6,2,3,3.7,5.8,3.7
		s4.2-1.7,5.8-3.7c1.7-2,3.6-4.4,7.3-4.4s5.7,2.3,7.3,4.4c1.6,2,3,3.7,5.8,3.7c2.8,0,4.3-1.7,5.8-3.7c1.7-2,3.6-4.4,7.3-4.4
		c3.8,0,5.7,2.3,7.4,4.4c1.5,1.8,2.7,3.3,5.1,3.6C1394.8,985.8,1395,985.8,1395.3,985.8"/>
	<g class="st12">
		<g>
			<g>
				<defs>
					<rect id="SVGID_1_" x="1329.1" y="979.7" width="65.5" height="88.7"/>
				</defs>
				<clipPath id="SVGID_2_">
					<use xlink:href="#SVGID_1_"  style="overflow:visible;"/>
				</clipPath>
				<path class="st13" d="M1394.6,987.7v51.1c0,16.3-13.2,29.5-29.5,29.5h-6.4c-16.3,0-29.5-13.2-29.5-29.5v-56.5
					c0-0.9,0-1.8,0.1-2.6c2.8,0,4.2,1.7,5.8,3.7c1.7,2,3.6,4.4,7.3,4.4c3.8,0,5.7-2.3,7.4-4.4c1.6-2,3-3.7,5.8-3.7
					c2.8,0,4.2,1.7,5.8,3.7c1.7,2,3.6,4.4,7.3,4.4s5.7-2.3,7.4-4.4c1.6-2,3-3.7,5.8-3.7c2.8,0,4.2,1.7,5.8,3.7
					C1389.5,985.3,1391.3,987.5,1394.6,987.7"/>
			</g>
		</g>
	</g>
	<path class="st1" d="M1365,950.8h-6.4c-17.4,0-31.5,14.2-31.5,31.5v56.5c0,17.4,14.2,31.5,31.5,31.5h6.4
		c17.4,0,31.5-14.2,31.5-31.5v-56.5C1396.6,965,1382.5,950.8,1365,950.8 M1394.6,1039c0,16.3-13.2,29.5-29.5,29.5h-6.4
		c-16.3,0-29.5-13.2-29.5-29.5v-56.5c0-0.9,0-1.8,0.1-2.6c0.1-0.7,0.2-1.4,0.3-2c2.2-14.1,14.4-24.9,29.2-24.9h6.4
		c16.3,0,29.5,13.2,29.5,29.5V1039z"/>
	<rect x="1347.1" y="931.6" class="st1" width="29.5" height="18.2"/>
	<path class="st11" d="M1339.7,1037c-1.1,0-2-0.9-2-2V997c0-1.1,0.9-2,2-2c1.1,0,2,0.9,2,2v37.9
		C1341.7,1036.1,1340.8,1037,1339.7,1037"/>
	<path class="st11" d="M1347.1,1057.9c-0.4,0-0.9-0.2-1.3-0.4c-2-1.5-3.7-3.2-5.2-5.1c-0.7-0.9-0.6-2.1,0.3-2.8
		c0.9-0.7,2.1-0.6,2.8,0.3c1.4,1.7,2.9,3.2,4.6,4.5c0.9,0.7,1,2,0.3,2.8C1348.3,1057.7,1347.7,1057.9,1347.1,1057.9"/>
</g>
</svg>
