<?xml version="1.0" encoding="utf-8"?>
<!-- Generator: Adobe Illustrator 23.0.3, SVG Export Plug-In . SVG Version: 6.00 Build 0)  -->
<svg version="1.1" id="圖層_1" xmlns="http://www.w3.org/2000/svg" xmlns:xlink="http://www.w3.org/1999/xlink" x="0px" y="0px"
	 viewBox="0 0 48 42.4" style="enable-background:new 0 0 48 42.4;" xml:space="preserve">
<style type="text/css">
	.st0{fill:#986F68;}
	.st1{fill:none;stroke:#986F68;stroke-width:1.5;stroke-miterlimit:10;}
</style>
<path class="st0" d="M11.5,35.4c2.3,0.4,4.5,0.2,6.7-0.6c5-2,7.9-5.7,8.5-11.2c0.1-1.1,0.1-2.1,0.4-3.2c0.5-1.8,1.6-3.3,3.1-4.3
	c0.8-0.6,1.8-1,2.8-1.1c5.1-0.9,9.3,3,9.2,7.8c-0.1,3.4-0.9,6.5-2.7,9.3c-3.1,4.8-7.5,7.7-13.2,8.4c-5.6,0.7-10.5-1-14.6-4.9
	C11.7,35.6,11.6,35.6,11.5,35.4C11.4,35.5,11.4,35.5,11.5,35.4z M38,22.6c0-1.7-1.3-3.1-3-3.1s-3.1,1.4-3.1,3c0,1.7,1.4,3.1,3,3.1
	C36.7,25.6,38,24.2,38,22.6z"/>
<path class="st1" d="M36.6,9.9c-2.3-0.4-4.5-0.2-6.7,0.6c-5,2-7.9,5.7-8.5,11.2c-0.1,1.1-0.1,2.1-0.4,3.2c-0.5,1.8-1.6,3.3-3.1,4.3
	c-0.8,0.6-1.8,1-2.8,1.1c-5.1,0.9-9.3-3-9.2-7.8C6,19.1,6.8,16,8.6,13.2c3.1-4.8,7.5-7.7,13.2-8.4c5.6-0.7,10.5,1,14.6,4.9
	C36.4,9.7,36.5,9.7,36.6,9.9C36.7,9.8,36.7,9.8,36.6,9.9z"/>
<path class="st1" d="M10.1,22.7c0,1.7,1.3,3.1,3,3.1s3.1-1.4,3.1-3c0-1.7-1.4-3.1-3-3.1C11.4,19.7,10.1,21.1,10.1,22.7z"/>
</svg>
