<?xml version="1.0" encoding="utf-8"?>
<!-- Generator: Adobe Illustrator 23.0.3, SVG Export Plug-In . SVG Version: 6.00 Build 0)  -->
<svg version="1.1" id="圖層_1" xmlns="http://www.w3.org/2000/svg" xmlns:xlink="http://www.w3.org/1999/xlink" x="0px" y="0px"
	 viewBox="0 0 50 44.2" style="enable-background:new 0 0 50 44.2;" xml:space="preserve">
<style type="text/css">
	.st0{fill:#603969;}
	.st1{fill:none;stroke:#986F68;stroke-width:1.5;stroke-miterlimit:10;}
</style>
<path class="st0" d="M8.7,18.2c-0.1,0.1-0.1,0.1-0.2,0C8.6,18.2,8.6,18.2,8.7,18.2z"/>
<path class="st1" d="M24.9,38.2c5.7,0,11.3,0,17,0c0.2,0,0.4-0.1,0.5,0.1c0.1,0.3-0.1,0.4-0.3,0.5c-0.5,0.5-1,1.1-1.6,1.6
	s-1.4,0.8-2.1,0.8c-9,0-18,0-27,0c-0.8,0-1.5-0.3-2.1-0.8s-1.2-1.1-1.7-1.7c-0.1-0.1-0.3-0.3-0.2-0.5C7.5,37.9,7.7,38,7.9,38
	c2.9,0,5.8,0,8.8,0C19.3,38.2,22.2,38.2,24.9,38.2z"/>
<path class="st1" d="M33.5,15.6c0.7-1.1,1.5-2.1,2.2-3.2c1.5-2.1,2.9-4.3,4.4-6.4c0.2-0.3,0.3-0.3,0.5-0.1c1.2,1.2,2.5,2.3,3.7,3.5
	c0.3,0.2,0.3,0.4,0.1,0.6c-1.5,1.7-2.8,3.6-4.2,5.3c-0.1,0.1-0.2,0.3-0.4,0.3C37.8,15.6,35.7,15.6,33.5,15.6z"/>
<path class="st1" d="M46.9,6.6c0,0.8-0.5,1.3-0.9,1.7c-0.1,0.2-0.2,0-0.3-0.1c-1.4-1.3-2.6-2.5-4-3.7c-0.2-0.2-0.2-0.3,0-0.5
	c0.2-0.2,0.3-0.5,0.5-0.7c0.5-0.7,1.4-0.8,2-0.3c0.7,0.7,1.5,1.5,2.2,2.2C46.8,5.7,46.9,6.2,46.9,6.6z"/>
<path class="st0" d="M42.7,18.1c-0.2,0-0.5,0.1-0.6,0C42.3,18,42.5,18,42.7,18.1z"/>
<path class="st1" d="M45.5,23.8c-0.1-0.4-0.3-0.5-0.6-0.5c-2.3,0-4.7,0-6.9,0c-2.8,0-5.7,0-8.5,0c-4,0-8,0-11.9,0
	c-4.2,0-8.5,0-12.7,0c-0.4,0-0.5,0.1-0.5,0.5C3.2,28.1,3.8,32,5.9,35.5C6.1,35.9,6.3,36,6.7,36c6,0,12.1,0,18.2,0s12.1,0,18.2,0
	c0.3,0,0.5,0,0.6-0.3C45.9,32.1,46.6,28.1,45.5,23.8z"/>
<path class="st1" d="M6.2,21.2c2.6,0,5.1,0,7.8,0c0.1,0,0.1,0,0.2,0s0.3,0,0.4,0h0.1c0.1,0,0.3,0,0.4,0c2.9,0,5.9,0,8.8,0
	c1.9,0,3.7,0,5.7,0c0.2,0,0.5,0,0.6,0c0.9,0,1.8,0,2.7,0c3.8,0,7.7,0,11.5,0c0.4,0,0.5-0.2,0.2-0.6c-0.3-0.6-0.6-1.3-1.1-1.9
	c-0.2-0.3-0.4-0.5-0.7-0.5c-0.2,0-0.5,0.1-0.6,0c-0.2,0-0.5,0-0.6,0c-1.2,0-2.4,0-3.5,0c-1.6,0-3,0-4.6,0c-0.1,0-0.1,0-0.2,0h-0.1
	c-0.5,0-0.9,0-1.3,0c-0.1,0-0.1,0-0.1,0c-0.3,0-0.5,0-0.7,0c-0.1-0.1-0.1-0.1-0.2,0c-0.1,0-0.3,0-0.4,0c-7.5,0-14.9,0-22.3,0
	c-0.1,0-0.3,0-0.4,0c-0.1,0.1-0.1,0.1-0.2,0c-0.6-0.2-0.9,0-1.2,0.5s-0.5,0.9-0.8,1.4c-0.2,0.3-0.5,0.6-0.3,0.9
	C5.5,21.3,5.8,21.2,6.2,21.2z"/>
</svg>
