<?xml version="1.0" encoding="utf-8"?>
<!-- Generator: Adobe Illustrator 23.0.3, SVG Export Plug-In . SVG Version: 6.00 Build 0)  -->
<svg version="1.1" id="圖層_1" xmlns="http://www.w3.org/2000/svg" xmlns:xlink="http://www.w3.org/1999/xlink" x="0px" y="0px"
	 viewBox="0 0 50 51.5" style="enable-background:new 0 0 50 51.5;" xml:space="preserve">
<style type="text/css">
	.st0{fill:#986F68;stroke:#986F68;stroke-width:0.25;stroke-miterlimit:10;}
</style>
<path class="st0" d="M27.8,19c1.8,0.4,3.6,0.7,5.4,1.1c0.5,0.1,0.9,0.4,1.1,0.9c2,4.1,4.1,8.3,6.1,12.4c0.4,0.9,0.1,1.7-0.3,2.4
	c-0.2,0.4-0.7,0.5-1.1,0.5c-2.5,0-5,0-7.5,0c-0.2,0-0.4,0-0.6,0c0,0.5,0,1,0,1.5c0,0.1,0.2,0.3,0.4,0.3c2.5,0.7,5,1.4,7.5,2.1
	c1,0.3,2.1,0.6,3.1,0.9c1.1,0.4,2,1,2.9,1.8c0.9,0.9,1.2,1.9,0.7,3.1c-0.7,2-2.3,3.1-4.3,3.6c-1,0.3-2,0.4-3,0.4
	c-5.2-0.1-10.3-0.2-15.5-0.4c-1.5-0.1-2.8,0.4-4.2,0.6c-1.1,0.2-2.2,0.5-3.4,0.7c-0.8,0.2-1.4,0-1.8-0.6c-0.3-0.6-0.3-1.1,0.3-1.8
	c0,0,0-0.1,0-0.2c-1,0-2.1,0-3.1,0c-0.8,0-1.6-0.3-2.3-0.7c-0.7-0.4-1.5-0.7-2.2-1.1c-0.3-0.2-0.6-0.3-0.9-0.6
	c-0.9-0.7-1.1-1.7-0.4-2.6c0.4-0.5,0.9-0.9,1.3-1.3c1.3-1.1,2.9-1.4,4.5-1.9c2.6-0.7,5.2-1.5,7.9-2.2c0.4-0.1,0.5-0.3,0.5-0.7
	c0-0.4,0-0.7,0-1.2c-0.2,0-0.4,0-0.6,0c-2.5,0-5,0-7.5,0c-1,0-1.3-0.3-1.6-1.2c-0.2-0.7-0.1-1.4,0.2-2.1c2-4,3.9-7.9,5.9-11.9
	c0.3-0.6,0.7-0.8,1.3-1c1.8-0.3,3.5-0.7,5.3-1c0-0.6,0-1.2,0-1.8c0-0.2-0.2-0.3-0.3-0.5c-2.2-2.6-3.1-5.6-2.3-9
	c0.3-1.1,0.8-2,1.6-2.8c0.1-0.1,0.2-0.3,0.2-0.5c-0.2-1.5,0.6-2.9,1.9-3.6c1.3-0.7,3-0.6,4.1,0.4c0.9,0.8,1.4,1.9,1.3,3.2
	c0,0.1,0,0.3,0.1,0.4c2.2,2.4,2.4,5.1,1.6,8c-0.4,1.5-1.2,2.8-2.2,3.9c-0.1,0.1-0.2,0.4-0.2,0.6C27.8,18,27.8,18.5,27.8,19z
	 M36.4,45c0.5,0.6,1,1.2,0.9,2c-0.1,0.7-0.3,1.4-0.5,2.2c0.6,0,1.2,0,1.8,0c1.2-0.1,2.4-0.3,3.5-0.8c1.2-0.6,2.1-1.4,2.5-2.7
	c0.3-0.9,0.2-1.6-0.5-2.2c-1-0.9-2.1-1.5-3.4-1.9c-3-0.9-6.1-1.7-9.1-2.5c-0.7-0.2-1.5-0.3-2.3-0.3c-3.3,0-6.5,0-9.8,0
	c-0.3,0-0.6,0-0.9,0.1c-3.4,0.9-6.8,1.9-10.2,2.9c-1.3,0.4-2.3,1.2-3.1,2.1c-0.5,0.6-0.4,1.1,0.2,1.5c0.2,0.1,0.4,0.3,0.6,0.4
	c0.9,0.5,1.9,1,2.8,1.5c0.8,0.4,1.7,0.4,2.4,0.4c-0.2-0.8-0.6-1.5-0.6-2.2c0-0.7,0.2-1.5,0.3-2.3c-0.3,0-0.6,0-0.9,0.1
	c0-0.3,0-0.5-0.1-0.8c1.3-0.1,2.5-0.3,3.8-0.4c0.7-0.1,1.4-0.2,2.1-0.1c3,0.5,6,1,9,1.7c1.2,0.3,2.1,0.2,2.8-0.9
	c0.2-0.3,0.7-0.4,1.1-0.4c2.1,0.1,4.3,0.3,6.4,0.5c0.6,0,1.2,0.1,1.5,0.7c0.3-0.1,0.6-0.2,0.8-0.2c0.3-0.1,0.5-0.1,0.8-0.1
	c0,0.3,0,0.6,0,0.8C37.4,44.1,37.3,44.1,36.4,45z M30.5,32.3c0.1-1.5,0.2-2.9,0.3-4.3c0-0.5,0.1-1,0.1-1.5c-0.3-2-0.7-3.9-1.1-5.9
	c0-0.1-0.2-0.3-0.3-0.4c-0.5-0.1-1.1-0.2-1.6-0.3c0,0.4,0,0.8,0,1.2c0,1.7-1.3,3-2.9,3c-1.6,0-2.8-1.3-2.9-3c0-0.4,0-0.8,0-1.2
	c-0.6,0.1-1.1,0.2-1.6,0.3c-0.1,0-0.3,0.2-0.4,0.4c-0.2,0.6-0.3,1.3-0.4,1.9c-0.3,1.9-0.9,3.7-0.7,5.7c0.2,1.4,0.2,2.8,0.3,4.2
	c1,0.1,2,0.2,2.9,0.4c0-0.1,0-0.2,0.1-0.3c0.2-1.4,0.5-2.9,0.7-4.3c0.1-0.6,0.3-1.2,0.9-1.4c1.2-0.4,2.6-0.3,2.8,1.5
	c0.2,1.5,0.5,3,0.7,4.5C28.5,32.6,29.5,32.5,30.5,32.3z M35.7,33.1c-0.9-0.1-1.7-0.3-2.5-0.2c-1.8,0.1-3.6,0.4-5.5,0.6
	c-0.7,0.1-1-0.1-1.2-0.9c-0.2-1.5-0.5-3-0.7-4.5c-0.1-0.3-0.1-0.6-0.5-0.7c0,0-0.1,0.1-0.1,0.1c0,2.3,0,4.5,0,6.8c0,0.1,0,0.2,0,0.2
	c0.5,0.3,1,0.8,1.5,0.8c4,0.1,8.1,0,12.1,0c0.2,0,0.4-0.1,0.5-0.2c0.2-0.5,0.5-1,0.2-1.5c-2-4.1-4.1-8.3-6.1-12.4
	c-0.1-0.2-0.2-0.3-0.4-0.4c-0.9-0.2-1.7-0.3-2.7-0.5c0.2,1,0.4,1.9,0.5,2.9c0.2,1.1,0.3,2.3,0.7,3.4c0.6,1.7,1.4,3.3,2.1,5
	c0.1,0.2,0.3,0.3,0.5,0.4c0.5,0.1,1,0.2,1.5,0.3C35.8,32.7,35.8,32.9,35.7,33.1z M19.3,20.4c-0.9,0.2-1.6,0.3-2.4,0.5
	c-0.3,0.1-0.5,0.2-0.6,0.5c-0.8,1.7-1.7,3.4-2.5,5.2c-1.2,2.4-2.3,4.7-3.5,7.1c-0.5,0.9,0,1.8,1,1.8c3.6,0,7.2,0,10.8,0
	c0.8,0,1.5-0.2,2.1-0.6c0.2-0.2,0.4-0.3,0.3-0.6c0-2.2,0-4.3,0-6.5c0-0.1,0-0.2,0-0.3c-0.1,0-0.1,0-0.2-0.1
	c-0.1,0.3-0.3,0.5-0.4,0.8c-0.3,1.5-0.5,3-0.8,4.5c-0.1,0.7-0.4,0.9-1.1,0.8c-1.1-0.1-2.1-0.3-3.2-0.4C17.6,33,16.3,32.6,15,33
	c-0.3,0.1-0.6,0.1-0.9,0.2c-0.1-0.3-0.1-0.5-0.2-0.8c0.5-0.1,1-0.2,1.4-0.3c0.2-0.1,0.5-0.2,0.5-0.4c0.6-1.4,1.2-2.8,1.8-4.1
	c0.2-0.4,0.4-0.8,0.5-1.2C18.5,24.4,18.9,22.4,19.3,20.4z M25,6.9c-2.3,0-4.3,1.9-4.9,4.4c0,0.1,0,0.2,0,0.3
	c0.4,1.8,1.1,3.4,2.4,4.8c0.5,0.5,1.1,0.9,1.7,1.1c1.3,0.5,2.3-0.2,3.2-1.1c1.3-1.4,2-3,2.4-4.9c0-0.1,0-0.3,0-0.4
	C29.2,8.7,27.2,6.9,25,6.9z M14.1,47.6c0,0,0,0.1,0,0.1c3.3-0.4,6.6-0.8,9.8-1.2c4-0.4,7.9-1.2,11.7-2.3c0.2-0.1,0.3-0.3,0.5-0.4
	c-0.2-0.1-0.4-0.2-0.5-0.3c-1.8-0.1-3.7-0.2-5.5-0.4c-1-0.1-1.8,0-2.4,0.9c-0.4,0.5-0.9,0.6-1.5,0.5c-2.7-0.5-5.3-1-8-1.5
	c-0.8-0.1-1.6-0.4-2.4-0.4c-1.1,0-2.2,0.2-3.3,0.3c-0.1,0-0.3,0.1-0.3,0.2c-0.6,1.2-0.8,2.3-0.1,3.5c0.3,0.7,0.8,1.1,1.6,0.9
	C13.8,47.6,14,47.6,14.1,47.6z M28.2,49c2.5,0.1,4.8,0.1,7.1,0.2c0.2,0,0.4,0,0.5-0.1c0.9-0.9,0.9-2.5,0-3.5
	c-0.3-0.3-0.5-0.4-0.9-0.3c-4.6,1.3-9.3,1.8-13.9,2.4c-2.2,0.3-4.3,0.5-6.4,1.3c-0.4,0.1-0.7,0.3-0.6,0.8c0.1,0.5,0.5,0.5,0.9,0.4
	c1.2-0.3,2.3-0.5,3.5-0.7c1.3-0.2,2.6-0.7,4-0.6C24.4,48.9,26.4,49,28.2,49z M22.9,17.8c0,1.2,0,2.3,0,3.5c0,1.1,0.9,1.9,1.9,2
	c1,0.1,2.1-0.6,2.2-1.7c0.1-1.2,0-2.5,0-3.8C24.9,18.6,24.9,18.6,22.9,17.8z M19.8,36.2c0,0.6,0,1.1,0,1.6c3.4,0,6.8,0,10.2,0
	c0-0.5,0-1.1,0-1.6c-0.7,0-1.5,0-2.2,0c-1,0.1-1.8-0.1-2.6-0.7c-0.2-0.2-0.5-0.2-0.7,0c-0.7,0.6-1.6,0.8-2.6,0.7
	C21.3,36.2,20.5,36.2,19.8,36.2z M20.1,8.9c1.1-1.7,2.6-2.8,4.7-2.8c2.1,0,3.6,1,4.9,2.7c-0.4-2.8-2.7-4.9-5.1-4.7
	C22.3,4.3,20,6.7,20.1,8.9z M27.7,4.1c-0.1-1.7-1.4-2.9-3-2.8c-1.5,0.1-2.7,1.4-2.6,2.8C24,3,25.8,3,27.7,4.1z M31.7,28.5
	c0,0-0.1,0-0.1,0c-0.1,1.2-0.2,2.4-0.2,3.7c0.6-0.1,1.2-0.2,1.8-0.2C32.6,30.8,32.2,29.7,31.7,28.5z M18.5,32.2
	c-0.1-1.3-0.2-2.5-0.3-3.7c0,0-0.1,0-0.1,0c-0.5,1.1-1,2.3-1.5,3.5C17.3,32.1,17.9,32.1,18.5,32.2z"/>
</svg>
